<svg xmlns="http://www.w3.org/2000/svg" xmlns:xlink="http://www.w3.org/1999/xlink" width="100" zoomAndPan="magnify" viewBox="0 0 75 30.000001" height="40" preserveAspectRatio="xMidYMid meet" version="1.0"><defs><g/><clipPath id="45fe663c6d"><path d="M 1.210938 0 L 73.789062 0 L 73.789062 29.03125 L 1.210938 29.03125 Z M 1.210938 0 " clip-rule="nonzero"/></clipPath><clipPath id="efb91afc6b"><path d="M 59.734375 12.382812 L 63.664062 12.382812 L 63.664062 14.644531 L 59.734375 14.644531 Z M 59.734375 12.382812 " clip-rule="nonzero"/></clipPath><clipPath id="6f77888daf"><path d="M 59.210938 10.914062 L 62 10.914062 L 62 13 L 59.210938 13 Z M 59.210938 10.914062 " clip-rule="nonzero"/></clipPath><clipPath id="2920862bab"><path d="M 59.914062 15.628906 L 62.058594 15.628906 L 62.058594 16.886719 L 59.914062 16.886719 Z M 59.914062 15.628906 " clip-rule="nonzero"/></clipPath><clipPath id="89e0aae9e6"><path d="M 8 9 L 16.453125 9 L 16.453125 16 L 8 16 Z M 8 9 " clip-rule="nonzero"/></clipPath><clipPath id="d813865f4f"><path d="M 5 8.265625 L 12 8.265625 L 12 17 L 5 17 Z M 5 8.265625 " clip-rule="nonzero"/></clipPath><clipPath id="862f8343e0"><path d="M 4.113281 13 L 13 13 L 13 20 L 4.113281 20 Z M 4.113281 13 " clip-rule="nonzero"/></clipPath><clipPath id="ab026bc9b9"><path d="M 9 12 L 16 12 L 16 20.601562 L 9 20.601562 Z M 9 12 " clip-rule="nonzero"/></clipPath></defs><g clip-path="url(#45fe663c6d)"><path fill="#ffffff" d="M 1.210938 0 L 73.789062 0 L 73.789062 29.03125 L 1.210938 29.03125 Z M 1.210938 0 " fill-opacity="1" fill-rule="nonzero"/><path fill="#ffffff" d="M 1.210938 0 L 73.789062 0 L 73.789062 29.03125 L 1.210938 29.03125 Z M 1.210938 0 " fill-opacity="1" fill-rule="nonzero"/></g><g fill="#ffd455" fill-opacity="1"><g transform="translate(17.85466, 16.403861)"><g><path d="M 9.453125 0 L 7.484375 0 L 7.484375 -3 L 5.71875 0 L 4.25 0 L 2.5 -3 L 2.5 0 L 0.53125 0 L 0.53125 -4.703125 L 2.859375 -4.703125 L 4.984375 -1.34375 L 7.109375 -4.703125 L 9.453125 -4.703125 Z M 9.453125 0 "/></g></g></g><g fill="#ffd455" fill-opacity="1"><g transform="translate(28.187745, 16.403861)"><g><path d="M 6.171875 0 L 0.53125 0 L 0.53125 -4.703125 L 5.921875 -4.703125 L 5.921875 -3.53125 L 2.5 -3.53125 L 2.5 -2.796875 L 5.390625 -2.796875 L 5.390625 -1.890625 L 2.5 -1.890625 L 2.5 -1.15625 L 6.171875 -1.15625 Z M 6.171875 0 "/></g></g></g><g fill="#ffd455" fill-opacity="1"><g transform="translate(34.983134, 16.403861)"><g><path d="M 3.546875 0.09375 C 2.390625 0.09375 1.535156 -0.140625 0.984375 -0.609375 C 0.503906 -1.035156 0.265625 -1.613281 0.265625 -2.34375 C 0.265625 -3.070312 0.503906 -3.648438 0.984375 -4.078125 C 1.535156 -4.546875 2.390625 -4.78125 3.546875 -4.78125 C 4.234375 -4.78125 4.796875 -4.703125 5.234375 -4.546875 C 5.679688 -4.398438 6.023438 -4.191406 6.265625 -3.921875 C 6.515625 -3.648438 6.679688 -3.335938 6.765625 -2.984375 L 4.703125 -2.984375 C 4.492188 -3.347656 4.109375 -3.53125 3.546875 -3.53125 C 3.078125 -3.53125 2.726562 -3.394531 2.5 -3.125 C 2.320312 -2.90625 2.234375 -2.644531 2.234375 -2.34375 C 2.234375 -2.039062 2.320312 -1.78125 2.5 -1.5625 C 2.726562 -1.289062 3.078125 -1.15625 3.546875 -1.15625 C 4.109375 -1.15625 4.492188 -1.335938 4.703125 -1.703125 L 6.765625 -1.703125 C 6.679688 -1.347656 6.515625 -1.035156 6.265625 -0.765625 C 6.023438 -0.492188 5.679688 -0.28125 5.234375 -0.125 C 4.796875 0.0195312 4.234375 0.09375 3.546875 0.09375 Z M 3.546875 0.09375 "/></g></g></g><g fill="#ffd455" fill-opacity="1"><g transform="translate(42.368141, 16.403861)"><g><path d="M 7.890625 0 L 5.890625 0 L 5.453125 -0.765625 L 2.484375 -0.765625 L 2.046875 0 L 0.046875 0 L 3.046875 -4.6875 L 4.890625 -4.6875 Z M 4.78125 -1.9375 L 3.96875 -3.359375 L 3.15625 -1.9375 Z M 4.78125 -1.9375 "/></g></g></g><g fill="#ffd455" fill-opacity="1"><g transform="translate(50.6605, 16.403861)"><g><path d="M 7.484375 0 L 5.15625 0 L 2.5 -3.171875 L 2.5 0 L 0.53125 0 L 0.53125 -4.703125 L 2.859375 -4.703125 L 5.515625 -1.53125 L 5.515625 -4.703125 L 7.484375 -4.703125 Z M 7.484375 0 "/></g></g></g><g fill="#ffd455" fill-opacity="1"><g transform="translate(59.03312, 16.403861)"><g/></g></g><g fill="#ffd455" fill-opacity="1"><g transform="translate(61.04607, 16.403861)"><g/></g></g><g fill="#032f6b" fill-opacity="1"><g transform="translate(63.061062, 16.403861)"><g><path d="M 7.890625 0 L 5.890625 0 L 5.453125 -0.765625 L 2.484375 -0.765625 L 2.046875 0 L 0.046875 0 L 3.046875 -4.6875 L 4.890625 -4.6875 Z M 4.78125 -1.9375 L 3.96875 -3.359375 L 3.15625 -1.9375 Z M 4.78125 -1.9375 "/></g></g></g><g clip-path="url(#efb91afc6b)"><path fill="#032f6b" d="M 62.40625 14.640625 L 59.90625 14.640625 C 59.777344 14.640625 59.699219 14.5 59.761719 14.390625 L 60.875 12.492188 C 60.902344 12.441406 60.957031 12.410156 61.019531 12.410156 L 63.515625 12.410156 C 63.644531 12.410156 63.722656 12.550781 63.660156 12.660156 L 62.546875 14.558594 C 62.519531 14.609375 62.464844 14.640625 62.40625 14.640625 " fill-opacity="1" fill-rule="nonzero"/></g><g clip-path="url(#6f77888daf)"><path fill="#032f6b" d="M 60.71875 12.246094 L 59.445312 12.246094 C 59.300781 12.246094 59.210938 12.085938 59.285156 11.960938 L 59.835938 11.015625 C 59.871094 10.957031 59.933594 10.921875 60 10.921875 L 61.273438 10.921875 C 61.417969 10.921875 61.511719 11.078125 61.4375 11.207031 L 60.882812 12.152344 C 60.847656 12.210938 60.789062 12.246094 60.71875 12.246094 " fill-opacity="1" fill-rule="nonzero"/></g><g clip-path="url(#2920862bab)"><path fill="#032f6b" d="M 61.34375 16.898438 L 60.105469 16.898438 C 59.976562 16.898438 59.894531 16.757812 59.960938 16.648438 L 60.5 15.722656 C 60.53125 15.671875 60.585938 15.640625 60.644531 15.640625 L 61.886719 15.640625 C 62.015625 15.640625 62.09375 15.78125 62.027344 15.890625 L 61.488281 16.816406 C 61.457031 16.867188 61.402344 16.898438 61.34375 16.898438 " fill-opacity="1" fill-rule="nonzero"/></g><g clip-path="url(#89e0aae9e6)"><path fill="#032f6b" d="M 16.539062 14.519531 L 16.503906 14.660156 L 16.542969 14.660156 L 16.542969 15.066406 C 16.542969 15.277344 16.398438 15.457031 16.195312 15.507812 L 15.304688 15.714844 C 15.261719 15.722656 15.21875 15.738281 15.175781 15.757812 C 15.175781 15.742188 15.175781 15.730469 15.175781 15.71875 C 15.175781 15.714844 15.175781 15.710938 15.175781 15.707031 C 15.175781 15.699219 15.175781 15.6875 15.175781 15.675781 C 15.171875 15.671875 15.171875 15.667969 15.171875 15.664062 C 15.171875 15.652344 15.171875 15.644531 15.171875 15.632812 C 15.171875 15.628906 15.171875 15.625 15.171875 15.621094 C 15.171875 15.609375 15.167969 15.601562 15.167969 15.59375 C 15.167969 15.589844 15.167969 15.582031 15.167969 15.578125 C 15.167969 15.570312 15.164062 15.558594 15.164062 15.546875 C 15.164062 15.542969 15.164062 15.542969 15.164062 15.539062 C 15.164062 15.523438 15.160156 15.511719 15.160156 15.496094 C 15.160156 15.496094 15.160156 15.492188 15.160156 15.492188 C 15.15625 15.480469 15.15625 15.46875 15.15625 15.457031 C 15.15625 15.453125 15.152344 15.449219 15.152344 15.441406 C 15.152344 15.433594 15.152344 15.425781 15.148438 15.414062 C 15.148438 15.410156 15.148438 15.40625 15.148438 15.402344 C 15.144531 15.390625 15.144531 15.382812 15.144531 15.371094 C 15.144531 15.367188 15.140625 15.363281 15.140625 15.359375 C 15.140625 15.347656 15.136719 15.339844 15.136719 15.328125 C 15.136719 15.324219 15.136719 15.320312 15.136719 15.316406 C 15.128906 15.289062 15.125 15.261719 15.121094 15.234375 C 15.121094 15.230469 15.117188 15.230469 15.117188 15.226562 C 15.117188 15.214844 15.113281 15.207031 15.113281 15.195312 C 15.109375 15.191406 15.109375 15.1875 15.109375 15.179688 C 15.105469 15.171875 15.105469 15.164062 15.101562 15.152344 C 15.101562 15.148438 15.101562 15.144531 15.097656 15.140625 C 15.097656 15.128906 15.09375 15.121094 15.09375 15.113281 C 15.089844 15.109375 15.089844 15.101562 15.089844 15.097656 C 15.085938 15.085938 15.082031 15.074219 15.082031 15.0625 C 15.082031 15.0625 15.078125 15.058594 15.078125 15.058594 C 15.074219 15.042969 15.074219 15.03125 15.070312 15.015625 C 15.066406 15.015625 15.066406 15.011719 15.066406 15.007812 C 15.0625 14.996094 15.058594 14.988281 15.058594 14.976562 C 15.054688 14.972656 15.054688 14.96875 15.054688 14.964844 C 15.050781 14.953125 15.046875 14.945312 15.046875 14.9375 C 15.042969 14.929688 15.042969 14.925781 15.042969 14.921875 C 15.039062 14.914062 15.035156 14.902344 15.03125 14.894531 C 15.03125 14.890625 15.03125 14.886719 15.027344 14.882812 C 15.023438 14.871094 15.023438 14.859375 15.019531 14.851562 C 15.015625 14.847656 15.015625 14.84375 15.015625 14.839844 C 15.011719 14.828125 15.007812 14.8125 15 14.800781 C 15 14.796875 15 14.796875 15 14.792969 C 14.996094 14.78125 14.992188 14.769531 14.988281 14.761719 C 14.984375 14.753906 14.984375 14.75 14.980469 14.746094 C 14.980469 14.738281 14.976562 14.730469 14.972656 14.71875 C 14.96875 14.714844 14.96875 14.710938 14.96875 14.703125 C 14.964844 14.695312 14.960938 14.6875 14.957031 14.679688 C 14.953125 14.675781 14.953125 14.667969 14.949219 14.664062 C 14.949219 14.65625 14.945312 14.644531 14.941406 14.636719 C 14.9375 14.632812 14.9375 14.628906 14.933594 14.625 C 14.929688 14.609375 14.925781 14.597656 14.917969 14.585938 C 14.726562 14.128906 14.4375 13.710938 14.058594 13.34375 C 14.023438 13.308594 13.984375 13.273438 13.949219 13.238281 C 13.582031 12.90625 13.152344 12.628906 12.671875 12.417969 C 12.65625 12.410156 12.636719 12.402344 12.621094 12.394531 C 12.617188 12.394531 12.613281 12.390625 12.609375 12.390625 C 12.59375 12.386719 12.582031 12.378906 12.566406 12.375 C 12.5625 12.371094 12.554688 12.367188 12.550781 12.367188 C 12.539062 12.363281 12.527344 12.355469 12.515625 12.351562 C 12.507812 12.351562 12.503906 12.347656 12.496094 12.34375 C 12.484375 12.339844 12.472656 12.335938 12.460938 12.332031 C 12.453125 12.328125 12.449219 12.324219 12.441406 12.324219 C 12.429688 12.320312 12.417969 12.316406 12.40625 12.308594 C 12.398438 12.308594 12.394531 12.304688 12.386719 12.304688 C 12.375 12.296875 12.363281 12.292969 12.351562 12.289062 C 12.34375 12.289062 12.339844 12.285156 12.332031 12.285156 C 12.320312 12.277344 12.308594 12.273438 12.296875 12.269531 C 12.289062 12.269531 12.285156 12.265625 12.277344 12.265625 C 12.265625 12.261719 12.253906 12.257812 12.242188 12.25 C 12.234375 12.25 12.230469 12.246094 12.222656 12.246094 C 12.210938 12.242188 12.199219 12.238281 12.1875 12.234375 C 12.179688 12.230469 12.171875 12.230469 12.167969 12.226562 C 12.15625 12.222656 12.144531 12.21875 12.128906 12.214844 C 12.125 12.214844 12.117188 12.210938 12.109375 12.210938 C 12.097656 12.207031 12.085938 12.203125 12.074219 12.199219 C 12.066406 12.195312 12.0625 12.195312 12.054688 12.191406 C 12.042969 12.1875 12.03125 12.183594 12.019531 12.183594 C 12.011719 12.179688 12.003906 12.179688 12 12.175781 C 11.984375 12.171875 11.972656 12.167969 11.960938 12.164062 C 11.953125 12.164062 11.949219 12.160156 11.941406 12.160156 C 11.929688 12.15625 11.917969 12.152344 11.90625 12.148438 C 11.898438 12.148438 11.890625 12.144531 11.882812 12.144531 C 11.871094 12.140625 11.859375 12.136719 11.847656 12.136719 C 11.839844 12.132812 11.832031 12.132812 11.824219 12.128906 C 11.8125 12.125 11.800781 12.125 11.789062 12.121094 C 11.785156 12.117188 11.777344 12.117188 11.769531 12.117188 C 11.757812 12.113281 11.746094 12.109375 11.734375 12.105469 C 11.726562 12.105469 11.71875 12.105469 11.710938 12.101562 C 11.699219 12.097656 11.6875 12.097656 11.675781 12.09375 C 11.667969 12.09375 11.660156 12.089844 11.652344 12.089844 C 11.640625 12.085938 11.628906 12.082031 11.617188 12.082031 C 11.609375 12.078125 11.601562 12.078125 11.59375 12.078125 C 11.582031 12.074219 11.570312 12.070312 11.558594 12.070312 C 11.550781 12.066406 11.542969 12.066406 11.535156 12.0625 C 11.523438 12.0625 11.511719 12.058594 11.5 12.058594 C 11.492188 12.054688 11.484375 12.054688 11.472656 12.054688 C 11.464844 12.050781 11.453125 12.050781 11.441406 12.046875 C 11.433594 12.046875 11.421875 12.042969 11.414062 12.042969 C 11.402344 12.039062 11.394531 12.039062 11.382812 12.035156 C 11.371094 12.035156 11.363281 12.035156 11.355469 12.03125 C 11.34375 12.03125 11.332031 12.027344 11.320312 12.027344 L 11.296875 12.023438 C 11.285156 12.019531 11.273438 12.019531 11.261719 12.019531 C 11.253906 12.015625 11.242188 12.015625 11.234375 12.015625 C 11.222656 12.011719 11.214844 12.011719 11.203125 12.007812 C 11.191406 12.007812 11.183594 12.007812 11.175781 12.003906 C 11.164062 12.003906 11.152344 12.003906 11.140625 12 C 11.132812 12 11.125 12 11.113281 11.996094 C 11.101562 11.996094 11.09375 11.996094 11.082031 11.992188 C 11.070312 11.992188 11.0625 11.992188 11.054688 11.992188 C 11.042969 11.988281 11.03125 11.988281 11.019531 11.988281 C 11.011719 11.984375 11 11.984375 10.992188 11.984375 C 10.980469 11.984375 10.96875 11.980469 10.960938 11.980469 C 10.949219 11.980469 10.941406 11.980469 10.929688 11.976562 C 10.921875 11.976562 10.910156 11.976562 10.898438 11.976562 C 10.890625 11.972656 10.878906 11.972656 10.871094 11.972656 C 10.859375 11.972656 10.851562 11.972656 10.839844 11.96875 C 10.671875 11.9375 10.5 11.917969 10.328125 11.917969 C 10.023438 11.917969 9.722656 11.972656 9.4375 12.078125 C 9.160156 12.179688 8.90625 12.324219 8.675781 12.511719 C 8.476562 12.679688 8.300781 12.875 8.160156 13.089844 C 8.167969 13.0625 8.171875 13.035156 8.179688 13.007812 C 8.183594 13 8.183594 12.996094 8.1875 12.988281 C 8.191406 12.964844 8.199219 12.9375 8.207031 12.914062 C 8.207031 12.910156 8.207031 12.910156 8.207031 12.90625 C 8.214844 12.878906 8.222656 12.851562 8.230469 12.828125 C 8.234375 12.820312 8.234375 12.816406 8.238281 12.808594 C 8.246094 12.78125 8.253906 12.753906 8.261719 12.730469 L 8.261719 12.726562 C 8.269531 12.703125 8.28125 12.675781 8.289062 12.648438 C 8.289062 12.644531 8.292969 12.636719 8.292969 12.632812 C 8.304688 12.605469 8.3125 12.578125 8.320312 12.554688 C 8.324219 12.550781 8.324219 12.550781 8.324219 12.546875 C 8.332031 12.523438 8.34375 12.5 8.351562 12.476562 C 8.351562 12.46875 8.355469 12.464844 8.359375 12.457031 C 8.367188 12.433594 8.378906 12.410156 8.386719 12.382812 C 8.390625 12.378906 8.390625 12.375 8.390625 12.371094 C 8.402344 12.351562 8.410156 12.328125 8.417969 12.304688 C 8.421875 12.300781 8.425781 12.296875 8.425781 12.289062 C 8.4375 12.265625 8.449219 12.242188 8.457031 12.21875 C 8.460938 12.210938 8.460938 12.207031 8.464844 12.203125 C 8.472656 12.183594 8.484375 12.160156 8.492188 12.140625 C 8.496094 12.136719 8.5 12.128906 8.5 12.125 C 8.511719 12.101562 8.523438 12.078125 8.535156 12.054688 C 8.539062 12.050781 8.539062 12.042969 8.542969 12.039062 C 8.554688 12.019531 8.5625 12 8.574219 11.976562 C 8.578125 11.972656 8.578125 11.96875 8.582031 11.964844 C 8.59375 11.941406 8.605469 11.917969 8.617188 11.898438 C 8.621094 11.890625 8.621094 11.886719 8.625 11.878906 C 8.636719 11.859375 8.648438 11.839844 8.660156 11.816406 C 8.664062 11.816406 8.664062 11.8125 8.664062 11.808594 C 8.679688 11.789062 8.691406 11.765625 8.703125 11.742188 C 8.707031 11.738281 8.710938 11.730469 8.714844 11.726562 C 8.726562 11.703125 8.742188 11.683594 8.753906 11.660156 L 8.757812 11.660156 C 8.769531 11.636719 8.785156 11.613281 8.796875 11.59375 C 8.800781 11.585938 8.804688 11.582031 8.808594 11.578125 C 8.824219 11.554688 8.835938 11.535156 8.851562 11.511719 C 8.851562 11.511719 8.855469 11.507812 8.855469 11.507812 C 8.867188 11.488281 8.882812 11.46875 8.898438 11.449219 C 8.898438 11.441406 8.902344 11.4375 8.90625 11.433594 C 8.921875 11.410156 8.9375 11.390625 8.953125 11.371094 C 8.953125 11.367188 8.957031 11.363281 8.960938 11.363281 C 8.972656 11.34375 8.988281 11.324219 9 11.308594 C 9.003906 11.300781 9.007812 11.296875 9.011719 11.292969 C 9.027344 11.273438 9.042969 11.253906 9.058594 11.234375 C 9.0625 11.230469 9.066406 11.226562 9.066406 11.222656 C 9.082031 11.207031 9.097656 11.1875 9.109375 11.171875 C 9.113281 11.167969 9.117188 11.164062 9.121094 11.160156 C 9.136719 11.140625 9.152344 11.121094 9.171875 11.101562 C 9.175781 11.097656 9.179688 11.09375 9.179688 11.089844 C 9.195312 11.074219 9.210938 11.058594 9.226562 11.039062 C 9.230469 11.035156 9.230469 11.03125 9.234375 11.027344 C 9.253906 11.011719 9.269531 10.992188 9.289062 10.972656 C 9.292969 10.96875 9.296875 10.964844 9.300781 10.960938 C 9.316406 10.945312 9.332031 10.929688 9.347656 10.914062 C 9.347656 10.910156 9.351562 10.910156 9.355469 10.90625 C 9.371094 10.886719 9.390625 10.871094 9.410156 10.851562 C 9.414062 10.847656 9.417969 10.84375 9.421875 10.839844 C 9.4375 10.824219 9.457031 10.808594 9.472656 10.792969 C 9.476562 10.789062 9.476562 10.789062 9.480469 10.785156 C 9.496094 10.769531 9.515625 10.753906 9.535156 10.738281 C 9.539062 10.730469 9.546875 10.726562 9.550781 10.722656 C 9.570312 10.707031 9.589844 10.691406 9.605469 10.675781 L 9.609375 10.675781 C 9.628906 10.65625 9.652344 10.636719 9.671875 10.621094 L 9.675781 10.617188 C 9.6875 10.609375 9.695312 10.601562 9.707031 10.59375 C 9.707031 10.59375 9.710938 10.589844 9.714844 10.589844 C 9.722656 10.582031 9.730469 10.578125 9.738281 10.570312 C 9.742188 10.566406 9.746094 10.566406 9.75 10.5625 C 9.757812 10.558594 9.765625 10.550781 9.769531 10.546875 C 9.777344 10.542969 9.78125 10.539062 9.785156 10.535156 C 9.789062 10.53125 9.796875 10.527344 9.804688 10.519531 C 9.808594 10.515625 9.8125 10.515625 9.816406 10.511719 C 9.824219 10.507812 9.832031 10.5 9.835938 10.496094 C 9.84375 10.492188 9.847656 10.488281 9.851562 10.488281 C 9.859375 10.480469 9.863281 10.476562 9.871094 10.472656 C 9.875 10.46875 9.882812 10.464844 9.886719 10.464844 C 9.890625 10.457031 9.898438 10.453125 9.90625 10.449219 C 9.910156 10.445312 9.914062 10.441406 9.921875 10.441406 C 9.925781 10.4375 9.933594 10.429688 9.9375 10.425781 C 9.945312 10.425781 9.949219 10.421875 9.953125 10.417969 C 9.960938 10.414062 9.964844 10.410156 9.972656 10.40625 C 9.976562 10.402344 9.984375 10.398438 9.988281 10.394531 C 9.996094 10.390625 10 10.386719 10.007812 10.382812 C 10.011719 10.378906 10.019531 10.375 10.023438 10.375 C 10.027344 10.371094 10.035156 10.367188 10.039062 10.363281 C 10.046875 10.359375 10.050781 10.355469 10.058594 10.351562 C 10.0625 10.347656 10.070312 10.34375 10.074219 10.339844 C 10.082031 10.339844 10.085938 10.335938 10.09375 10.332031 C 10.097656 10.328125 10.105469 10.324219 10.109375 10.320312 C 10.117188 10.316406 10.121094 10.3125 10.128906 10.3125 C 10.132812 10.308594 10.136719 10.304688 10.144531 10.300781 C 10.148438 10.296875 10.15625 10.292969 10.160156 10.292969 C 10.167969 10.289062 10.171875 10.285156 10.179688 10.28125 C 10.183594 10.277344 10.191406 10.273438 10.195312 10.273438 C 10.203125 10.269531 10.207031 10.265625 10.214844 10.261719 C 10.21875 10.257812 10.226562 10.257812 10.230469 10.253906 C 10.238281 10.25 10.242188 10.246094 10.25 10.242188 C 10.253906 10.242188 10.261719 10.238281 10.265625 10.234375 C 10.273438 10.230469 10.277344 10.230469 10.285156 10.226562 C 10.289062 10.222656 10.296875 10.21875 10.300781 10.214844 C 10.308594 10.214844 10.3125 10.210938 10.320312 10.207031 C 10.324219 10.207031 10.332031 10.203125 10.335938 10.199219 C 10.34375 10.195312 10.347656 10.195312 10.355469 10.191406 C 10.359375 10.1875 10.367188 10.183594 10.375 10.183594 C 10.378906 10.179688 10.382812 10.175781 10.390625 10.175781 C 10.394531 10.171875 10.402344 10.167969 10.410156 10.164062 C 10.414062 10.164062 10.421875 10.160156 10.425781 10.15625 C 10.433594 10.15625 10.4375 10.152344 10.445312 10.148438 C 10.449219 10.148438 10.457031 10.144531 10.460938 10.140625 C 10.46875 10.140625 10.472656 10.136719 10.480469 10.132812 C 10.484375 10.132812 10.492188 10.128906 10.496094 10.128906 C 10.503906 10.125 10.511719 10.121094 10.515625 10.121094 C 10.523438 10.117188 10.527344 10.113281 10.53125 10.113281 C 10.539062 10.109375 10.546875 10.105469 10.550781 10.105469 C 10.558594 10.101562 10.5625 10.101562 10.570312 10.097656 C 10.574219 10.09375 10.582031 10.09375 10.589844 10.089844 C 10.59375 10.089844 10.597656 10.085938 10.605469 10.082031 C 10.613281 10.082031 10.617188 10.078125 10.625 10.078125 C 10.628906 10.074219 10.636719 10.074219 10.640625 10.070312 C 10.648438 10.066406 10.652344 10.066406 10.660156 10.0625 C 10.667969 10.0625 10.671875 10.058594 10.679688 10.058594 C 10.683594 10.054688 10.691406 10.054688 10.695312 10.050781 C 10.703125 10.050781 10.707031 10.046875 10.714844 10.046875 C 10.71875 10.042969 10.726562 10.039062 10.734375 10.039062 C 10.738281 10.035156 10.746094 10.035156 10.75 10.03125 C 10.757812 10.03125 10.761719 10.027344 10.769531 10.027344 C 10.773438 10.023438 10.78125 10.023438 10.789062 10.019531 C 10.792969 10.019531 10.800781 10.019531 10.804688 10.015625 C 10.8125 10.015625 10.816406 10.011719 10.824219 10.011719 C 10.828125 10.007812 10.835938 10.007812 10.84375 10.003906 C 10.847656 10.003906 10.855469 10 10.859375 10 C 10.867188 9.996094 10.871094 9.996094 10.878906 9.996094 C 10.886719 9.992188 10.890625 9.992188 10.898438 9.988281 C 10.902344 9.988281 10.910156 9.988281 10.917969 9.984375 C 10.921875 9.984375 10.929688 9.980469 10.933594 9.980469 C 10.941406 9.980469 10.945312 9.976562 10.953125 9.976562 C 10.957031 9.972656 10.964844 9.972656 10.972656 9.972656 C 10.976562 9.96875 10.984375 9.96875 10.988281 9.964844 C 10.996094 9.964844 11 9.964844 11.007812 9.960938 C 11.015625 9.960938 11.019531 9.960938 11.027344 9.957031 C 11.03125 9.957031 11.039062 9.957031 11.042969 9.953125 C 11.050781 9.953125 11.058594 9.953125 11.0625 9.949219 C 11.070312 9.949219 11.074219 9.949219 11.082031 9.945312 C 11.089844 9.945312 11.09375 9.945312 11.101562 9.941406 C 11.105469 9.941406 11.113281 9.941406 11.117188 9.9375 C 11.125 9.9375 11.132812 9.9375 11.136719 9.9375 C 11.144531 9.933594 11.148438 9.933594 11.15625 9.933594 C 11.164062 9.929688 11.167969 9.929688 11.175781 9.929688 C 11.179688 9.929688 11.1875 9.925781 11.191406 9.925781 C 11.199219 9.925781 11.207031 9.925781 11.210938 9.921875 C 11.21875 9.921875 11.222656 9.921875 11.230469 9.921875 C 11.238281 9.917969 11.242188 9.917969 11.25 9.917969 C 11.253906 9.917969 11.261719 9.917969 11.265625 9.914062 C 11.273438 9.914062 11.28125 9.914062 11.285156 9.914062 C 11.292969 9.914062 11.296875 9.910156 11.304688 9.910156 C 11.3125 9.910156 11.316406 9.910156 11.324219 9.910156 C 11.328125 9.90625 11.335938 9.90625 11.34375 9.90625 C 11.347656 9.90625 11.355469 9.90625 11.359375 9.90625 C 11.367188 9.902344 11.371094 9.902344 11.378906 9.902344 C 11.386719 9.902344 11.390625 9.902344 11.398438 9.902344 C 11.402344 9.902344 11.410156 9.898438 11.417969 9.898438 C 11.421875 9.898438 11.429688 9.898438 11.433594 9.898438 C 11.441406 9.898438 11.449219 9.898438 11.453125 9.898438 C 11.460938 9.894531 11.464844 9.894531 11.472656 9.894531 C 11.480469 9.894531 11.484375 9.894531 11.492188 9.894531 C 11.496094 9.894531 11.503906 9.894531 11.507812 9.894531 C 11.515625 9.894531 11.523438 9.894531 11.527344 9.890625 C 11.535156 9.890625 11.539062 9.890625 11.546875 9.890625 C 11.554688 9.890625 11.558594 9.890625 11.566406 9.890625 C 11.570312 9.890625 11.578125 9.890625 11.585938 9.890625 C 11.589844 9.890625 11.597656 9.890625 11.601562 9.890625 C 11.609375 9.890625 11.617188 9.890625 11.621094 9.890625 C 11.628906 9.890625 11.632812 9.890625 11.640625 9.890625 C 11.648438 9.890625 11.652344 9.890625 11.660156 9.890625 C 11.664062 9.890625 11.671875 9.890625 11.675781 9.890625 C 11.683594 9.890625 11.691406 9.890625 11.695312 9.890625 C 11.703125 9.890625 11.707031 9.890625 11.714844 9.890625 C 11.722656 9.890625 11.726562 9.890625 11.734375 9.890625 C 11.738281 9.890625 11.746094 9.890625 11.753906 9.890625 C 11.757812 9.894531 11.765625 9.894531 11.769531 9.894531 C 11.777344 9.894531 11.78125 9.894531 11.789062 9.894531 C 11.796875 9.894531 11.800781 9.894531 11.808594 9.894531 C 11.8125 9.894531 11.820312 9.894531 11.828125 9.898438 C 11.832031 9.898438 11.839844 9.898438 11.84375 9.898438 C 11.851562 9.898438 11.859375 9.898438 11.863281 9.898438 C 11.871094 9.898438 11.875 9.902344 11.882812 9.902344 C 11.882812 9.902344 11.886719 9.902344 11.886719 9.902344 C 11.90625 9.914062 11.929688 9.921875 11.949219 9.929688 C 12.101562 9.984375 12.253906 10.046875 12.398438 10.117188 C 12.515625 10.171875 12.652344 10.164062 12.761719 10.09375 L 13.507812 9.632812 C 13.640625 9.550781 13.800781 9.515625 13.957031 9.53125 C 14.113281 9.550781 14.257812 9.621094 14.371094 9.730469 L 15.074219 10.4375 C 15.1875 10.546875 15.257812 10.695312 15.277344 10.851562 C 15.292969 11.007812 15.257812 11.167969 15.175781 11.300781 L 14.710938 12.042969 C 14.644531 12.15625 14.636719 12.292969 14.691406 12.410156 C 14.761719 12.554688 14.824219 12.707031 14.878906 12.859375 C 14.921875 12.980469 15.023438 13.070312 15.148438 13.101562 L 16.003906 13.300781 C 16.15625 13.335938 16.292969 13.421875 16.390625 13.546875 C 16.488281 13.667969 16.542969 13.824219 16.542969 13.980469 L 16.542969 14.480469 C 16.542969 14.492188 16.542969 14.503906 16.539062 14.519531 " fill-opacity="1" fill-rule="nonzero"/></g><g clip-path="url(#d813865f4f)"><path fill="#ffd455" d="M 11.707031 9.664062 C 11.707031 9.664062 11.703125 9.664062 11.699219 9.664062 C 11.695312 9.664062 11.691406 9.664062 11.683594 9.664062 C 11.675781 9.664062 11.667969 9.664062 11.660156 9.664062 C 11.65625 9.664062 11.652344 9.664062 11.644531 9.664062 C 11.636719 9.664062 11.628906 9.664062 11.621094 9.664062 C 11.617188 9.664062 11.613281 9.664062 11.609375 9.664062 C 11.597656 9.664062 11.589844 9.664062 11.582031 9.664062 C 11.578125 9.664062 11.574219 9.664062 11.570312 9.664062 C 11.558594 9.664062 11.550781 9.664062 11.542969 9.664062 C 11.539062 9.664062 11.535156 9.664062 11.53125 9.664062 C 11.519531 9.664062 11.511719 9.667969 11.503906 9.667969 C 11.5 9.667969 11.496094 9.667969 11.492188 9.667969 C 11.480469 9.667969 11.46875 9.667969 11.457031 9.667969 C 11.457031 9.667969 11.453125 9.667969 11.453125 9.667969 C 11.4375 9.671875 11.425781 9.671875 11.414062 9.671875 C 11.398438 9.671875 11.386719 9.675781 11.375 9.675781 C 11.371094 9.675781 11.367188 9.675781 11.363281 9.675781 C 11.355469 9.675781 11.34375 9.679688 11.335938 9.679688 C 11.332031 9.679688 11.328125 9.679688 11.324219 9.679688 C 11.3125 9.679688 11.304688 9.683594 11.296875 9.683594 C 11.292969 9.683594 11.289062 9.683594 11.28125 9.683594 C 11.273438 9.6875 11.265625 9.6875 11.257812 9.6875 C 11.253906 9.6875 11.25 9.6875 11.242188 9.691406 C 11.234375 9.691406 11.226562 9.691406 11.21875 9.691406 C 11.214844 9.695312 11.210938 9.695312 11.203125 9.695312 C 11.195312 9.695312 11.1875 9.699219 11.179688 9.699219 C 11.175781 9.699219 11.171875 9.699219 11.164062 9.699219 C 11.15625 9.703125 11.148438 9.703125 11.140625 9.707031 C 11.136719 9.707031 11.132812 9.707031 11.128906 9.707031 C 11.117188 9.707031 11.109375 9.710938 11.097656 9.710938 C 11.09375 9.710938 11.09375 9.714844 11.089844 9.714844 C 11.078125 9.714844 11.066406 9.71875 11.054688 9.71875 C 11.054688 9.71875 11.050781 9.722656 11.050781 9.722656 C 11.023438 9.726562 10.996094 9.730469 10.972656 9.738281 C 10.96875 9.738281 10.96875 9.738281 10.964844 9.738281 C 10.957031 9.742188 10.945312 9.742188 10.933594 9.746094 C 10.929688 9.746094 10.925781 9.75 10.921875 9.75 C 10.914062 9.75 10.90625 9.753906 10.894531 9.753906 C 10.890625 9.757812 10.886719 9.757812 10.882812 9.757812 C 10.875 9.761719 10.867188 9.761719 10.855469 9.765625 C 10.851562 9.765625 10.847656 9.769531 10.84375 9.769531 C 10.835938 9.769531 10.828125 9.773438 10.820312 9.777344 C 10.8125 9.777344 10.808594 9.777344 10.804688 9.78125 C 10.796875 9.78125 10.789062 9.785156 10.78125 9.785156 C 10.777344 9.789062 10.769531 9.789062 10.765625 9.789062 C 10.757812 9.792969 10.75 9.796875 10.742188 9.796875 C 10.738281 9.800781 10.734375 9.800781 10.730469 9.800781 C 10.71875 9.804688 10.710938 9.808594 10.703125 9.808594 C 10.699219 9.8125 10.695312 9.8125 10.691406 9.8125 C 10.679688 9.816406 10.671875 9.820312 10.660156 9.824219 C 10.65625 9.824219 10.65625 9.824219 10.652344 9.824219 C 10.628906 9.835938 10.601562 9.84375 10.578125 9.851562 C 10.574219 9.851562 10.574219 9.855469 10.570312 9.855469 C 10.558594 9.859375 10.550781 9.863281 10.539062 9.867188 C 10.535156 9.867188 10.53125 9.867188 10.527344 9.871094 C 10.519531 9.875 10.511719 9.878906 10.5 9.878906 C 10.496094 9.882812 10.492188 9.882812 10.488281 9.886719 C 10.480469 9.890625 10.472656 9.890625 10.464844 9.894531 C 10.460938 9.898438 10.457031 9.898438 10.449219 9.902344 C 10.441406 9.902344 10.433594 9.90625 10.425781 9.910156 C 10.421875 9.914062 10.417969 9.914062 10.414062 9.917969 C 10.40625 9.917969 10.398438 9.921875 10.390625 9.925781 C 10.382812 9.929688 10.378906 9.929688 10.375 9.933594 C 10.367188 9.9375 10.359375 9.9375 10.351562 9.941406 C 10.347656 9.945312 10.34375 9.945312 10.339844 9.949219 C 10.328125 9.953125 10.320312 9.957031 10.3125 9.960938 C 10.308594 9.960938 10.304688 9.964844 10.300781 9.964844 C 10.292969 9.96875 10.285156 9.972656 10.273438 9.976562 C 10.273438 9.980469 10.269531 9.980469 10.265625 9.984375 C 10.253906 9.988281 10.242188 9.992188 10.230469 10 L 10.226562 10 C 10.214844 10.007812 10.203125 10.011719 10.191406 10.019531 C 10.1875 10.019531 10.1875 10.019531 10.183594 10.023438 C 10.175781 10.027344 10.164062 10.03125 10.15625 10.039062 C 10.152344 10.039062 10.148438 10.042969 10.144531 10.042969 C 10.132812 10.046875 10.125 10.050781 10.117188 10.054688 C 10.113281 10.058594 10.109375 10.0625 10.105469 10.0625 C 10.097656 10.066406 10.089844 10.070312 10.082031 10.074219 C 10.078125 10.078125 10.074219 10.082031 10.066406 10.082031 C 10.058594 10.089844 10.054688 10.09375 10.046875 10.097656 C 10.042969 10.097656 10.035156 10.101562 10.03125 10.105469 C 10.023438 10.109375 10.015625 10.113281 10.011719 10.117188 C 10.003906 10.121094 10 10.121094 9.996094 10.125 C 9.988281 10.128906 9.980469 10.132812 9.972656 10.136719 C 9.96875 10.140625 9.964844 10.144531 9.960938 10.144531 C 9.953125 10.152344 9.945312 10.15625 9.9375 10.160156 C 9.933594 10.160156 9.929688 10.164062 9.925781 10.167969 C 9.917969 10.171875 9.910156 10.175781 9.902344 10.183594 C 9.898438 10.183594 9.894531 10.1875 9.886719 10.191406 C 9.878906 10.195312 9.871094 10.199219 9.863281 10.207031 C 9.859375 10.207031 9.855469 10.210938 9.851562 10.210938 C 9.839844 10.21875 9.828125 10.226562 9.816406 10.234375 C 9.816406 10.238281 9.8125 10.238281 9.8125 10.238281 C 9.800781 10.246094 9.792969 10.253906 9.785156 10.257812 C 9.78125 10.261719 9.773438 10.265625 9.769531 10.265625 C 9.761719 10.273438 9.757812 10.277344 9.75 10.28125 C 9.746094 10.285156 9.738281 10.289062 9.734375 10.292969 C 9.726562 10.296875 9.722656 10.300781 9.714844 10.304688 C 9.710938 10.308594 9.703125 10.3125 9.699219 10.316406 C 9.691406 10.320312 9.6875 10.328125 9.679688 10.332031 C 9.675781 10.335938 9.671875 10.339844 9.664062 10.34375 C 9.660156 10.347656 9.652344 10.351562 9.644531 10.355469 C 9.640625 10.359375 9.636719 10.363281 9.628906 10.367188 C 9.625 10.371094 9.617188 10.375 9.613281 10.382812 C 9.605469 10.386719 9.601562 10.390625 9.597656 10.394531 C 9.589844 10.398438 9.582031 10.402344 9.578125 10.40625 C 9.574219 10.410156 9.566406 10.414062 9.5625 10.417969 C 9.554688 10.425781 9.550781 10.429688 9.542969 10.433594 C 9.539062 10.4375 9.535156 10.441406 9.527344 10.445312 C 9.523438 10.453125 9.515625 10.457031 9.507812 10.464844 C 9.503906 10.464844 9.5 10.46875 9.496094 10.472656 C 9.484375 10.480469 9.472656 10.492188 9.460938 10.5 C 9.417969 10.535156 9.375 10.574219 9.335938 10.613281 C 8.929688 10.980469 8.59375 11.433594 8.332031 11.957031 C 8.324219 11.976562 8.3125 11.996094 8.304688 12.015625 C 8.300781 12.019531 8.296875 12.027344 8.296875 12.035156 C 8.289062 12.046875 8.28125 12.058594 8.277344 12.074219 C 8.273438 12.082031 8.269531 12.089844 8.265625 12.097656 C 8.261719 12.109375 8.253906 12.121094 8.25 12.132812 C 8.246094 12.140625 8.242188 12.152344 8.238281 12.160156 C 8.234375 12.171875 8.226562 12.179688 8.222656 12.191406 C 8.21875 12.199219 8.214844 12.210938 8.210938 12.21875 C 8.207031 12.230469 8.203125 12.242188 8.199219 12.25 C 8.195312 12.261719 8.191406 12.269531 8.1875 12.28125 C 8.183594 12.292969 8.179688 12.300781 8.175781 12.3125 C 8.167969 12.320312 8.164062 12.332031 8.160156 12.34375 C 8.15625 12.351562 8.152344 12.363281 8.148438 12.371094 C 8.144531 12.382812 8.140625 12.394531 8.136719 12.40625 C 8.132812 12.414062 8.128906 12.421875 8.125 12.433594 C 8.121094 12.445312 8.117188 12.457031 8.113281 12.46875 C 8.109375 12.476562 8.105469 12.484375 8.105469 12.492188 C 8.101562 12.503906 8.09375 12.519531 8.089844 12.53125 C 8.089844 12.539062 8.085938 12.546875 8.082031 12.554688 C 8.078125 12.566406 8.074219 12.582031 8.070312 12.59375 C 8.066406 12.601562 8.0625 12.609375 8.0625 12.617188 C 8.058594 12.628906 8.050781 12.640625 8.046875 12.65625 C 8.046875 12.664062 8.042969 12.671875 8.039062 12.679688 C 8.035156 12.691406 8.03125 12.707031 8.027344 12.71875 C 8.027344 12.726562 8.023438 12.734375 8.019531 12.742188 C 8.015625 12.753906 8.011719 12.769531 8.007812 12.78125 C 8.007812 12.789062 8.003906 12.796875 8.003906 12.804688 C 8 12.820312 7.996094 12.832031 7.992188 12.847656 C 7.988281 12.851562 7.984375 12.859375 7.984375 12.867188 C 7.980469 12.882812 7.976562 12.894531 7.972656 12.910156 C 7.96875 12.917969 7.96875 12.925781 7.964844 12.933594 C 7.960938 12.945312 7.960938 12.960938 7.957031 12.972656 C 7.953125 12.980469 7.953125 12.988281 7.949219 12.996094 C 7.945312 13.011719 7.941406 13.023438 7.9375 13.039062 C 7.9375 13.046875 7.933594 13.054688 7.933594 13.0625 C 7.929688 13.074219 7.925781 13.089844 7.921875 13.101562 C 7.921875 13.109375 7.921875 13.117188 7.917969 13.125 C 7.914062 13.140625 7.910156 13.152344 7.910156 13.167969 C 7.90625 13.175781 7.90625 13.183594 7.902344 13.191406 C 7.902344 13.207031 7.898438 13.21875 7.894531 13.234375 C 7.894531 13.242188 7.890625 13.25 7.890625 13.257812 C 7.886719 13.269531 7.882812 13.285156 7.882812 13.296875 C 7.878906 13.308594 7.878906 13.316406 7.875 13.324219 C 7.875 13.335938 7.871094 13.351562 7.867188 13.363281 C 7.867188 13.371094 7.867188 13.382812 7.863281 13.390625 C 7.863281 13.402344 7.859375 13.417969 7.855469 13.429688 C 7.855469 13.4375 7.855469 13.449219 7.851562 13.457031 C 7.851562 13.46875 7.847656 13.484375 7.847656 13.496094 C 7.84375 13.507812 7.84375 13.515625 7.839844 13.523438 C 7.839844 13.539062 7.835938 13.550781 7.835938 13.5625 C 7.835938 13.574219 7.832031 13.582031 7.832031 13.589844 C 7.828125 13.605469 7.828125 13.617188 7.824219 13.628906 C 7.824219 13.640625 7.824219 13.648438 7.820312 13.660156 C 7.820312 13.671875 7.820312 13.683594 7.816406 13.695312 C 7.816406 13.707031 7.8125 13.71875 7.8125 13.726562 C 7.8125 13.738281 7.808594 13.753906 7.808594 13.765625 C 7.808594 13.773438 7.804688 13.785156 7.804688 13.796875 C 7.804688 13.808594 7.800781 13.820312 7.800781 13.832031 C 7.800781 13.84375 7.796875 13.855469 7.796875 13.863281 C 7.796875 13.875 7.796875 13.886719 7.792969 13.898438 C 7.792969 13.910156 7.792969 13.921875 7.792969 13.933594 C 7.789062 13.945312 7.789062 13.957031 7.789062 13.96875 C 7.789062 13.980469 7.785156 13.988281 7.785156 14 C 7.75 14.167969 7.734375 14.339844 7.734375 14.511719 C 7.734375 14.820312 7.789062 15.121094 7.894531 15.40625 C 7.992188 15.679688 8.140625 15.9375 8.328125 16.164062 C 8.496094 16.367188 8.691406 16.539062 8.90625 16.679688 C 8.878906 16.675781 8.851562 16.667969 8.824219 16.660156 C 8.816406 16.660156 8.8125 16.65625 8.804688 16.65625 C 8.777344 16.648438 8.753906 16.640625 8.726562 16.632812 L 8.722656 16.632812 C 8.695312 16.625 8.667969 16.617188 8.644531 16.609375 C 8.636719 16.609375 8.632812 16.605469 8.625 16.605469 C 8.597656 16.597656 8.570312 16.585938 8.546875 16.578125 L 8.542969 16.578125 C 8.519531 16.570312 8.492188 16.5625 8.464844 16.550781 C 8.460938 16.550781 8.453125 16.546875 8.449219 16.546875 C 8.421875 16.539062 8.398438 16.527344 8.371094 16.519531 C 8.367188 16.519531 8.367188 16.519531 8.363281 16.515625 C 8.339844 16.507812 8.316406 16.5 8.292969 16.488281 C 8.285156 16.488281 8.28125 16.484375 8.277344 16.484375 C 8.25 16.472656 8.226562 16.464844 8.199219 16.453125 C 8.195312 16.453125 8.195312 16.453125 8.191406 16.449219 C 8.167969 16.441406 8.144531 16.429688 8.121094 16.421875 L 8.109375 16.414062 C 8.082031 16.40625 8.058594 16.394531 8.035156 16.382812 C 8.03125 16.382812 8.027344 16.378906 8.023438 16.378906 C 8 16.367188 7.976562 16.355469 7.953125 16.347656 C 7.953125 16.34375 7.949219 16.34375 7.945312 16.339844 C 7.917969 16.332031 7.894531 16.316406 7.871094 16.304688 C 7.867188 16.304688 7.863281 16.300781 7.859375 16.300781 C 7.835938 16.289062 7.8125 16.277344 7.792969 16.265625 C 7.789062 16.265625 7.785156 16.261719 7.785156 16.261719 C 7.761719 16.25 7.738281 16.238281 7.714844 16.222656 C 7.707031 16.222656 7.703125 16.21875 7.699219 16.21875 C 7.675781 16.203125 7.65625 16.191406 7.632812 16.179688 L 7.628906 16.175781 C 7.605469 16.164062 7.582031 16.148438 7.558594 16.136719 C 7.554688 16.132812 7.550781 16.132812 7.546875 16.128906 C 7.5 16.101562 7.453125 16.074219 7.410156 16.042969 C 7.40625 16.039062 7.402344 16.039062 7.394531 16.035156 C 7.375 16.019531 7.351562 16.003906 7.328125 15.992188 L 7.328125 15.988281 C 7.308594 15.976562 7.285156 15.960938 7.265625 15.945312 C 7.261719 15.941406 7.257812 15.9375 7.25 15.9375 C 7.230469 15.921875 7.207031 15.90625 7.1875 15.890625 C 7.1875 15.886719 7.183594 15.886719 7.183594 15.886719 C 7.164062 15.871094 7.144531 15.855469 7.125 15.839844 C 7.121094 15.839844 7.117188 15.835938 7.113281 15.832031 C 7.089844 15.816406 7.070312 15.800781 7.050781 15.785156 C 7.046875 15.78125 7.046875 15.777344 7.042969 15.777344 C 7.023438 15.761719 7.007812 15.746094 6.988281 15.730469 C 6.984375 15.730469 6.980469 15.726562 6.976562 15.722656 C 6.957031 15.707031 6.9375 15.6875 6.917969 15.671875 C 6.914062 15.667969 6.914062 15.664062 6.910156 15.664062 C 6.890625 15.648438 6.875 15.632812 6.859375 15.617188 C 6.855469 15.613281 6.851562 15.609375 6.847656 15.609375 C 6.828125 15.589844 6.8125 15.574219 6.792969 15.554688 C 6.789062 15.550781 6.785156 15.546875 6.78125 15.542969 C 6.765625 15.527344 6.746094 15.511719 6.730469 15.496094 C 6.730469 15.492188 6.726562 15.492188 6.722656 15.488281 C 6.707031 15.472656 6.6875 15.453125 6.671875 15.433594 C 6.667969 15.429688 6.664062 15.425781 6.660156 15.421875 C 6.644531 15.40625 6.625 15.386719 6.609375 15.371094 C 6.609375 15.367188 6.605469 15.367188 6.605469 15.363281 C 6.589844 15.347656 6.570312 15.328125 6.554688 15.308594 C 6.550781 15.304688 6.546875 15.300781 6.542969 15.292969 C 6.527344 15.277344 6.507812 15.257812 6.492188 15.238281 C 6.484375 15.226562 6.476562 15.214844 6.464844 15.203125 C 6.464844 15.199219 6.460938 15.199219 6.457031 15.195312 C 6.453125 15.1875 6.445312 15.179688 6.441406 15.171875 C 6.4375 15.167969 6.433594 15.164062 6.429688 15.160156 C 6.425781 15.152344 6.417969 15.144531 6.414062 15.140625 C 6.410156 15.132812 6.40625 15.128906 6.402344 15.125 C 6.398438 15.117188 6.394531 15.113281 6.390625 15.105469 C 6.386719 15.101562 6.382812 15.097656 6.378906 15.09375 C 6.375 15.085938 6.367188 15.078125 6.363281 15.074219 C 6.359375 15.070312 6.355469 15.0625 6.351562 15.058594 C 6.347656 15.054688 6.34375 15.046875 6.339844 15.039062 C 6.335938 15.035156 6.332031 15.03125 6.328125 15.027344 C 6.324219 15.019531 6.320312 15.015625 6.316406 15.007812 C 6.3125 15.003906 6.308594 14.996094 6.304688 14.992188 C 6.300781 14.988281 6.296875 14.980469 6.292969 14.972656 C 6.289062 14.96875 6.285156 14.964844 6.28125 14.957031 C 6.277344 14.953125 6.273438 14.945312 6.269531 14.941406 C 6.265625 14.9375 6.261719 14.929688 6.257812 14.925781 C 6.253906 14.917969 6.25 14.914062 6.246094 14.90625 C 6.242188 14.902344 6.238281 14.898438 6.234375 14.890625 C 6.230469 14.886719 6.226562 14.878906 6.222656 14.875 C 6.21875 14.867188 6.21875 14.863281 6.214844 14.859375 C 6.210938 14.851562 6.207031 14.84375 6.203125 14.839844 C 6.199219 14.835938 6.195312 14.828125 6.191406 14.824219 C 6.1875 14.816406 6.183594 14.8125 6.179688 14.804688 C 6.179688 14.800781 6.175781 14.792969 6.171875 14.789062 C 6.167969 14.785156 6.164062 14.777344 6.160156 14.769531 C 6.15625 14.765625 6.152344 14.761719 6.152344 14.753906 C 6.148438 14.75 6.144531 14.742188 6.140625 14.738281 C 6.136719 14.730469 6.132812 14.726562 6.128906 14.71875 C 6.125 14.714844 6.125 14.707031 6.121094 14.703125 C 6.117188 14.695312 6.113281 14.691406 6.109375 14.6875 C 6.105469 14.679688 6.105469 14.671875 6.101562 14.667969 C 6.097656 14.664062 6.09375 14.65625 6.089844 14.652344 C 6.089844 14.644531 6.085938 14.640625 6.082031 14.632812 C 6.078125 14.628906 6.074219 14.621094 6.074219 14.617188 C 6.070312 14.609375 6.066406 14.605469 6.0625 14.597656 C 6.058594 14.59375 6.058594 14.585938 6.054688 14.582031 C 6.050781 14.574219 6.046875 14.570312 6.042969 14.5625 C 6.042969 14.558594 6.039062 14.550781 6.035156 14.546875 C 6.03125 14.539062 6.03125 14.535156 6.027344 14.527344 C 6.023438 14.523438 6.023438 14.515625 6.019531 14.511719 C 6.015625 14.503906 6.011719 14.5 6.007812 14.492188 C 6.007812 14.488281 6.003906 14.480469 6 14.476562 C 6 14.46875 5.996094 14.464844 5.992188 14.457031 C 5.992188 14.453125 5.988281 14.445312 5.984375 14.441406 C 5.980469 14.433594 5.980469 14.429688 5.976562 14.421875 C 5.972656 14.414062 5.972656 14.410156 5.96875 14.40625 C 5.964844 14.398438 5.964844 14.390625 5.960938 14.386719 C 5.957031 14.378906 5.957031 14.375 5.953125 14.371094 C 5.949219 14.363281 5.949219 14.355469 5.945312 14.351562 C 5.941406 14.34375 5.941406 14.339844 5.9375 14.332031 C 5.9375 14.328125 5.933594 14.320312 5.929688 14.3125 C 5.929688 14.308594 5.925781 14.304688 5.925781 14.296875 C 5.921875 14.292969 5.917969 14.285156 5.914062 14.277344 C 5.914062 14.273438 5.910156 14.265625 5.910156 14.261719 C 5.90625 14.253906 5.90625 14.25 5.902344 14.242188 C 5.898438 14.238281 5.898438 14.230469 5.894531 14.226562 C 5.894531 14.21875 5.890625 14.210938 5.886719 14.207031 C 5.886719 14.199219 5.882812 14.195312 5.882812 14.191406 C 5.878906 14.183594 5.878906 14.175781 5.875 14.171875 C 5.875 14.164062 5.871094 14.160156 5.871094 14.152344 C 5.867188 14.148438 5.863281 14.140625 5.863281 14.132812 C 5.859375 14.128906 5.859375 14.121094 5.859375 14.117188 C 5.855469 14.109375 5.851562 14.105469 5.851562 14.097656 C 5.847656 14.09375 5.847656 14.085938 5.84375 14.082031 C 5.84375 14.074219 5.839844 14.066406 5.839844 14.0625 C 5.835938 14.054688 5.835938 14.050781 5.835938 14.042969 C 5.832031 14.039062 5.832031 14.03125 5.828125 14.023438 C 5.828125 14.019531 5.824219 14.011719 5.824219 14.007812 C 5.820312 14 5.820312 13.996094 5.816406 13.988281 C 5.816406 13.980469 5.8125 13.976562 5.8125 13.972656 C 5.8125 13.964844 5.808594 13.957031 5.808594 13.953125 C 5.804688 13.945312 5.804688 13.941406 5.804688 13.933594 C 5.800781 13.929688 5.800781 13.921875 5.796875 13.914062 C 5.796875 13.910156 5.792969 13.902344 5.792969 13.898438 C 5.792969 13.890625 5.789062 13.882812 5.789062 13.878906 C 5.785156 13.871094 5.785156 13.867188 5.785156 13.859375 C 5.78125 13.855469 5.78125 13.847656 5.78125 13.839844 C 5.777344 13.835938 5.777344 13.828125 5.777344 13.824219 C 5.773438 13.816406 5.773438 13.8125 5.769531 13.804688 C 5.769531 13.796875 5.769531 13.792969 5.769531 13.789062 C 5.765625 13.78125 5.765625 13.773438 5.761719 13.765625 C 5.761719 13.761719 5.761719 13.757812 5.761719 13.75 C 5.757812 13.742188 5.757812 13.738281 5.757812 13.730469 C 5.753906 13.726562 5.753906 13.71875 5.753906 13.714844 C 5.753906 13.707031 5.75 13.699219 5.75 13.691406 C 5.75 13.6875 5.746094 13.683594 5.746094 13.675781 C 5.746094 13.667969 5.746094 13.664062 5.742188 13.65625 C 5.742188 13.652344 5.742188 13.644531 5.742188 13.640625 C 5.738281 13.632812 5.738281 13.625 5.738281 13.617188 C 5.738281 13.613281 5.734375 13.609375 5.734375 13.601562 C 5.734375 13.59375 5.734375 13.589844 5.730469 13.582031 C 5.730469 13.578125 5.730469 13.570312 5.730469 13.566406 C 5.730469 13.558594 5.726562 13.550781 5.726562 13.542969 C 5.726562 13.539062 5.726562 13.535156 5.726562 13.527344 C 5.722656 13.519531 5.722656 13.515625 5.722656 13.507812 C 5.722656 13.503906 5.722656 13.496094 5.722656 13.492188 C 5.71875 13.484375 5.71875 13.476562 5.71875 13.46875 C 5.71875 13.464844 5.71875 13.460938 5.71875 13.453125 C 5.71875 13.445312 5.714844 13.441406 5.714844 13.433594 C 5.714844 13.425781 5.714844 13.421875 5.714844 13.417969 C 5.714844 13.410156 5.714844 13.402344 5.710938 13.394531 C 5.710938 13.390625 5.710938 13.386719 5.710938 13.378906 C 5.710938 13.371094 5.710938 13.367188 5.710938 13.359375 C 5.710938 13.351562 5.710938 13.347656 5.710938 13.34375 C 5.710938 13.335938 5.707031 13.328125 5.707031 13.320312 C 5.707031 13.316406 5.707031 13.3125 5.707031 13.304688 C 5.707031 13.296875 5.707031 13.289062 5.707031 13.285156 C 5.707031 13.277344 5.707031 13.273438 5.707031 13.269531 C 5.707031 13.261719 5.707031 13.253906 5.707031 13.246094 C 5.707031 13.242188 5.707031 13.234375 5.707031 13.230469 C 5.707031 13.222656 5.707031 13.214844 5.707031 13.210938 C 5.707031 13.203125 5.707031 13.199219 5.707031 13.195312 C 5.707031 13.1875 5.707031 13.179688 5.707031 13.171875 C 5.707031 13.167969 5.707031 13.160156 5.707031 13.15625 C 5.707031 13.148438 5.707031 13.140625 5.707031 13.132812 C 5.707031 13.128906 5.707031 13.125 5.707031 13.117188 C 5.707031 13.113281 5.707031 13.105469 5.707031 13.097656 C 5.707031 13.089844 5.707031 13.085938 5.707031 13.082031 C 5.707031 13.074219 5.710938 13.066406 5.710938 13.058594 C 5.710938 13.054688 5.710938 13.050781 5.710938 13.042969 C 5.710938 13.035156 5.710938 13.027344 5.710938 13.019531 C 5.710938 13.015625 5.710938 13.011719 5.710938 13.007812 C 5.714844 13 5.714844 12.988281 5.714844 12.980469 C 5.714844 12.976562 5.714844 12.972656 5.714844 12.96875 C 5.742188 12.9375 5.765625 12.898438 5.777344 12.859375 C 5.832031 12.707031 5.894531 12.554688 5.964844 12.410156 C 6.019531 12.292969 6.011719 12.15625 5.945312 12.042969 L 5.480469 11.300781 C 5.398438 11.167969 5.363281 11.007812 5.378906 10.851562 C 5.398438 10.695312 5.46875 10.546875 5.582031 10.4375 L 6.285156 9.730469 C 6.398438 9.621094 6.542969 9.550781 6.699219 9.53125 C 6.855469 9.515625 7.015625 9.550781 7.148438 9.632812 L 7.894531 10.09375 C 8.003906 10.164062 8.140625 10.171875 8.257812 10.117188 C 8.402344 10.046875 8.554688 9.984375 8.707031 9.929688 C 8.828125 9.886719 8.921875 9.785156 8.949219 9.65625 L 9.148438 8.804688 C 9.183594 8.652344 9.273438 8.511719 9.394531 8.414062 C 9.519531 8.316406 9.671875 8.265625 9.828125 8.265625 L 10.828125 8.265625 C 10.984375 8.265625 11.136719 8.316406 11.261719 8.414062 C 11.382812 8.511719 11.472656 8.652344 11.507812 8.804688 L 11.707031 9.65625 C 11.707031 9.660156 11.707031 9.660156 11.707031 9.664062 " fill-opacity="1" fill-rule="nonzero"/></g><g clip-path="url(#862f8343e0)"><path fill="#032f6b" d="M 12.496094 15.9375 L 12.492188 15.941406 C 12.488281 15.964844 12.480469 15.988281 12.476562 16.011719 C 12.472656 16.015625 12.472656 16.019531 12.472656 16.027344 C 12.464844 16.046875 12.460938 16.066406 12.457031 16.085938 C 12.453125 16.089844 12.453125 16.09375 12.453125 16.097656 C 12.445312 16.121094 12.4375 16.144531 12.433594 16.167969 C 12.429688 16.171875 12.429688 16.175781 12.425781 16.183594 C 12.421875 16.199219 12.417969 16.21875 12.410156 16.238281 C 12.410156 16.242188 12.40625 16.25 12.40625 16.253906 C 12.398438 16.277344 12.390625 16.296875 12.382812 16.320312 C 12.382812 16.324219 12.378906 16.328125 12.378906 16.335938 C 12.371094 16.351562 12.367188 16.371094 12.359375 16.390625 C 12.359375 16.394531 12.355469 16.402344 12.355469 16.40625 C 12.347656 16.425781 12.339844 16.449219 12.332031 16.472656 C 12.328125 16.476562 12.328125 16.480469 12.328125 16.484375 C 12.320312 16.503906 12.3125 16.519531 12.304688 16.539062 C 12.304688 16.542969 12.300781 16.550781 12.300781 16.554688 C 12.292969 16.578125 12.285156 16.597656 12.273438 16.621094 C 12.273438 16.625 12.273438 16.628906 12.269531 16.632812 C 12.261719 16.648438 12.253906 16.667969 12.246094 16.683594 C 12.246094 16.691406 12.242188 16.695312 12.242188 16.703125 C 12.230469 16.722656 12.222656 16.746094 12.214844 16.765625 C 12.210938 16.769531 12.210938 16.769531 12.210938 16.773438 C 12.203125 16.792969 12.195312 16.8125 12.183594 16.828125 C 12.183594 16.835938 12.179688 16.839844 12.175781 16.847656 C 12.167969 16.867188 12.15625 16.886719 12.148438 16.90625 C 12.148438 16.910156 12.148438 16.910156 12.144531 16.914062 C 12.136719 16.933594 12.128906 16.949219 12.117188 16.96875 C 12.117188 16.976562 12.113281 16.980469 12.109375 16.988281 C 12.101562 17.007812 12.089844 17.023438 12.082031 17.042969 C 12.082031 17.046875 12.078125 17.046875 12.078125 17.046875 C 12.066406 17.070312 12.058594 17.089844 12.046875 17.109375 C 12.042969 17.113281 12.042969 17.121094 12.039062 17.125 C 12.027344 17.140625 12.019531 17.160156 12.011719 17.175781 C 12.007812 17.179688 12.007812 17.183594 12.003906 17.183594 C 11.992188 17.203125 11.984375 17.222656 11.972656 17.242188 C 11.96875 17.25 11.964844 17.253906 11.960938 17.257812 C 11.953125 17.273438 11.945312 17.289062 11.933594 17.308594 L 11.925781 17.316406 C 11.914062 17.335938 11.902344 17.355469 11.890625 17.375 C 11.890625 17.378906 11.886719 17.382812 11.882812 17.390625 C 11.875 17.40625 11.863281 17.421875 11.851562 17.433594 C 11.851562 17.441406 11.847656 17.445312 11.84375 17.449219 C 11.832031 17.464844 11.820312 17.484375 11.808594 17.503906 C 11.804688 17.507812 11.804688 17.511719 11.800781 17.515625 C 11.789062 17.53125 11.78125 17.546875 11.769531 17.5625 C 11.765625 17.566406 11.761719 17.570312 11.761719 17.574219 C 11.746094 17.589844 11.734375 17.609375 11.722656 17.628906 C 11.71875 17.632812 11.714844 17.636719 11.710938 17.640625 C 11.703125 17.652344 11.691406 17.667969 11.679688 17.683594 C 11.675781 17.6875 11.671875 17.691406 11.671875 17.695312 C 11.65625 17.714844 11.644531 17.730469 11.628906 17.746094 C 11.628906 17.75 11.625 17.753906 11.621094 17.757812 C 11.609375 17.773438 11.597656 17.785156 11.585938 17.800781 C 11.585938 17.804688 11.582031 17.808594 11.578125 17.8125 C 11.5625 17.832031 11.550781 17.847656 11.535156 17.863281 C 11.535156 17.867188 11.53125 17.871094 11.527344 17.871094 C 11.515625 17.886719 11.503906 17.902344 11.492188 17.914062 C 11.488281 17.921875 11.484375 17.925781 11.480469 17.929688 C 11.464844 17.945312 11.449219 17.960938 11.4375 17.976562 C 11.433594 17.980469 11.433594 17.980469 11.433594 17.980469 C 11.417969 17.996094 11.40625 18.011719 11.390625 18.027344 C 11.386719 18.03125 11.382812 18.035156 11.378906 18.039062 C 11.363281 18.054688 11.347656 18.070312 11.332031 18.085938 C 11.324219 18.097656 11.3125 18.109375 11.300781 18.121094 C 11.296875 18.121094 11.292969 18.125 11.292969 18.128906 C 11.285156 18.136719 11.277344 18.144531 11.269531 18.152344 C 11.265625 18.15625 11.261719 18.160156 11.257812 18.164062 C 11.25 18.171875 11.242188 18.175781 11.234375 18.183594 C 11.230469 18.1875 11.226562 18.191406 11.222656 18.195312 C 11.214844 18.203125 11.207031 18.207031 11.203125 18.214844 C 11.199219 18.21875 11.191406 18.222656 11.1875 18.226562 C 11.183594 18.234375 11.175781 18.238281 11.167969 18.246094 C 11.164062 18.25 11.160156 18.253906 11.152344 18.257812 C 11.148438 18.265625 11.140625 18.269531 11.132812 18.277344 C 11.128906 18.28125 11.125 18.285156 11.121094 18.289062 C 11.113281 18.296875 11.105469 18.300781 11.101562 18.304688 C 11.09375 18.308594 11.089844 18.316406 11.085938 18.320312 C 11.078125 18.324219 11.074219 18.332031 11.066406 18.335938 C 11.0625 18.339844 11.054688 18.34375 11.050781 18.347656 C 11.042969 18.355469 11.039062 18.359375 11.03125 18.363281 C 11.027344 18.367188 11.023438 18.371094 11.015625 18.375 C 11.011719 18.382812 11.003906 18.386719 10.996094 18.394531 C 10.992188 18.398438 10.988281 18.402344 10.980469 18.40625 C 10.976562 18.410156 10.96875 18.414062 10.960938 18.421875 C 10.957031 18.425781 10.949219 18.429688 10.945312 18.433594 C 10.9375 18.4375 10.933594 18.445312 10.925781 18.449219 C 10.921875 18.453125 10.914062 18.457031 10.910156 18.460938 C 10.902344 18.464844 10.898438 18.46875 10.890625 18.476562 C 10.886719 18.480469 10.878906 18.484375 10.875 18.488281 C 10.867188 18.492188 10.859375 18.496094 10.855469 18.503906 C 10.847656 18.503906 10.84375 18.507812 10.839844 18.511719 C 10.832031 18.519531 10.824219 18.523438 10.816406 18.527344 C 10.8125 18.53125 10.808594 18.535156 10.804688 18.539062 C 10.796875 18.542969 10.789062 18.546875 10.78125 18.554688 C 10.777344 18.558594 10.773438 18.558594 10.765625 18.5625 C 10.757812 18.570312 10.753906 18.574219 10.746094 18.578125 C 10.742188 18.582031 10.734375 18.585938 10.730469 18.589844 C 10.722656 18.59375 10.714844 18.597656 10.707031 18.601562 C 10.703125 18.605469 10.699219 18.609375 10.691406 18.613281 C 10.6875 18.617188 10.679688 18.621094 10.671875 18.625 C 10.667969 18.628906 10.660156 18.632812 10.65625 18.636719 C 10.648438 18.640625 10.640625 18.644531 10.632812 18.648438 C 10.628906 18.652344 10.625 18.65625 10.621094 18.660156 C 10.613281 18.664062 10.605469 18.667969 10.597656 18.671875 C 10.59375 18.675781 10.585938 18.679688 10.582031 18.683594 C 10.574219 18.6875 10.566406 18.691406 10.558594 18.695312 C 10.554688 18.699219 10.550781 18.703125 10.542969 18.703125 C 10.535156 18.707031 10.53125 18.710938 10.523438 18.71875 C 10.515625 18.71875 10.511719 18.722656 10.507812 18.726562 C 10.5 18.730469 10.492188 18.734375 10.484375 18.738281 C 10.480469 18.742188 10.472656 18.742188 10.46875 18.746094 C 10.460938 18.75 10.453125 18.753906 10.445312 18.757812 C 10.441406 18.761719 10.4375 18.765625 10.429688 18.765625 C 10.421875 18.769531 10.414062 18.777344 10.40625 18.78125 C 10.402344 18.78125 10.398438 18.785156 10.390625 18.789062 C 10.386719 18.792969 10.378906 18.796875 10.371094 18.800781 C 10.363281 18.800781 10.359375 18.804688 10.355469 18.808594 C 10.347656 18.808594 10.339844 18.8125 10.332031 18.816406 C 10.324219 18.820312 10.320312 18.824219 10.316406 18.824219 C 10.308594 18.828125 10.300781 18.832031 10.292969 18.835938 C 10.285156 18.839844 10.28125 18.839844 10.277344 18.84375 C 10.269531 18.847656 10.261719 18.851562 10.253906 18.855469 C 10.25 18.855469 10.242188 18.859375 10.238281 18.863281 C 10.230469 18.867188 10.222656 18.867188 10.214844 18.871094 C 10.210938 18.875 10.203125 18.875 10.199219 18.878906 C 10.191406 18.882812 10.183594 18.886719 10.175781 18.890625 C 10.171875 18.890625 10.164062 18.894531 10.160156 18.894531 L 10.136719 18.90625 C 10.132812 18.90625 10.125 18.910156 10.121094 18.910156 C 10.113281 18.914062 10.105469 18.917969 10.097656 18.921875 C 10.089844 18.921875 10.085938 18.925781 10.082031 18.929688 C 10.074219 18.929688 10.066406 18.933594 10.058594 18.9375 C 10.050781 18.9375 10.046875 18.941406 10.042969 18.941406 C 10.035156 18.945312 10.027344 18.949219 10.015625 18.953125 C 10.011719 18.953125 10.007812 18.957031 10.003906 18.957031 C 9.992188 18.960938 9.984375 18.964844 9.976562 18.964844 C 9.972656 18.96875 9.96875 18.96875 9.960938 18.972656 C 9.953125 18.972656 9.945312 18.976562 9.9375 18.980469 C 9.933594 18.980469 9.929688 18.984375 9.921875 18.984375 C 9.914062 18.988281 9.90625 18.988281 9.898438 18.992188 C 9.894531 18.996094 9.886719 18.996094 9.882812 18.996094 C 9.875 19 9.867188 19.003906 9.859375 19.003906 C 9.851562 19.007812 9.847656 19.007812 9.84375 19.011719 C 9.835938 19.011719 9.828125 19.015625 9.816406 19.015625 C 9.8125 19.019531 9.808594 19.019531 9.800781 19.023438 C 9.792969 19.023438 9.785156 19.027344 9.777344 19.027344 C 9.773438 19.03125 9.769531 19.03125 9.761719 19.03125 C 9.753906 19.035156 9.746094 19.039062 9.738281 19.039062 C 9.730469 19.042969 9.726562 19.042969 9.722656 19.042969 C 9.714844 19.046875 9.707031 19.046875 9.695312 19.050781 C 9.691406 19.050781 9.6875 19.050781 9.683594 19.054688 C 9.671875 19.054688 9.664062 19.058594 9.65625 19.058594 C 9.652344 19.0625 9.648438 19.0625 9.640625 19.0625 C 9.632812 19.066406 9.625 19.066406 9.617188 19.070312 C 9.609375 19.070312 9.605469 19.070312 9.601562 19.070312 C 9.59375 19.074219 9.585938 19.074219 9.574219 19.078125 C 9.570312 19.078125 9.566406 19.078125 9.5625 19.082031 C 9.550781 19.082031 9.542969 19.082031 9.535156 19.085938 C 9.53125 19.085938 9.523438 19.085938 9.519531 19.089844 L 9.496094 19.09375 C 9.488281 19.09375 9.484375 19.09375 9.480469 19.09375 C 9.472656 19.097656 9.460938 19.097656 9.453125 19.097656 C 9.449219 19.101562 9.445312 19.101562 9.4375 19.101562 C 9.429688 19.101562 9.421875 19.105469 9.414062 19.105469 C 9.410156 19.105469 9.402344 19.105469 9.398438 19.109375 C 9.390625 19.109375 9.382812 19.109375 9.371094 19.109375 C 9.367188 19.113281 9.363281 19.113281 9.355469 19.113281 C 9.347656 19.113281 9.339844 19.117188 9.332031 19.117188 C 9.328125 19.117188 9.320312 19.117188 9.316406 19.117188 C 9.308594 19.117188 9.300781 19.121094 9.292969 19.121094 C 9.285156 19.121094 9.28125 19.121094 9.277344 19.121094 C 9.269531 19.125 9.257812 19.125 9.25 19.125 C 9.246094 19.125 9.242188 19.125 9.234375 19.125 C 9.226562 19.125 9.21875 19.128906 9.210938 19.128906 C 9.203125 19.128906 9.199219 19.128906 9.195312 19.128906 C 9.1875 19.128906 9.175781 19.128906 9.167969 19.128906 C 9.164062 19.128906 9.160156 19.132812 9.152344 19.132812 C 9.144531 19.132812 9.136719 19.132812 9.128906 19.132812 C 9.125 19.132812 9.117188 19.132812 9.113281 19.132812 C 9.105469 19.132812 9.097656 19.132812 9.089844 19.132812 C 9.082031 19.132812 9.078125 19.132812 9.070312 19.132812 C 9.0625 19.132812 9.054688 19.132812 9.046875 19.132812 C 9.042969 19.136719 9.035156 19.136719 9.03125 19.136719 C 9.023438 19.136719 9.015625 19.136719 9.007812 19.136719 L 8.992188 19.136719 C 8.984375 19.136719 8.972656 19.132812 8.964844 19.132812 C 8.960938 19.132812 8.957031 19.132812 8.949219 19.132812 C 8.941406 19.132812 8.933594 19.132812 8.925781 19.132812 C 8.921875 19.132812 8.914062 19.132812 8.910156 19.132812 L 8.90625 19.132812 C 8.851562 19.09375 8.792969 19.058594 8.726562 19.035156 C 8.578125 18.984375 8.429688 18.921875 8.285156 18.855469 C 8.074219 18.753906 7.832031 18.765625 7.636719 18.890625 L 6.859375 19.375 C 6.679688 19.484375 6.449219 19.457031 6.300781 19.308594 L 5.582031 18.589844 L 5.566406 18.570312 C 5.417969 18.421875 5.390625 18.195312 5.5 18.015625 L 5.984375 17.238281 C 6.105469 17.042969 6.121094 16.796875 6.019531 16.589844 C 5.953125 16.445312 5.890625 16.296875 5.835938 16.148438 C 5.757812 15.929688 5.578125 15.765625 5.351562 15.714844 L 4.460938 15.507812 C 4.257812 15.457031 4.113281 15.277344 4.113281 15.066406 L 4.113281 14.660156 L 4.117188 14.519531 C 4.113281 14.503906 4.113281 14.492188 4.113281 14.480469 L 4.113281 13.980469 C 4.113281 13.824219 4.167969 13.667969 4.265625 13.546875 C 4.363281 13.421875 4.5 13.335938 4.652344 13.300781 L 5.480469 13.105469 L 5.480469 13.109375 C 5.480469 13.113281 5.480469 13.121094 5.480469 13.125 C 5.480469 13.132812 5.480469 13.140625 5.480469 13.148438 C 5.480469 13.152344 5.480469 13.160156 5.480469 13.164062 C 5.480469 13.171875 5.480469 13.179688 5.480469 13.1875 L 5.480469 13.203125 C 5.480469 13.210938 5.480469 13.21875 5.480469 13.226562 C 5.480469 13.230469 5.480469 13.238281 5.480469 13.242188 C 5.480469 13.25 5.480469 13.257812 5.480469 13.265625 C 5.480469 13.273438 5.480469 13.277344 5.480469 13.28125 C 5.480469 13.289062 5.480469 13.296875 5.480469 13.304688 C 5.480469 13.3125 5.480469 13.316406 5.480469 13.320312 C 5.480469 13.328125 5.480469 13.335938 5.484375 13.34375 C 5.484375 13.351562 5.484375 13.355469 5.484375 13.359375 C 5.484375 13.367188 5.484375 13.375 5.484375 13.382812 C 5.484375 13.390625 5.484375 13.394531 5.484375 13.398438 C 5.484375 13.40625 5.488281 13.414062 5.488281 13.421875 C 5.488281 13.429688 5.488281 13.433594 5.488281 13.4375 C 5.488281 13.445312 5.488281 13.457031 5.492188 13.464844 C 5.492188 13.46875 5.492188 13.472656 5.492188 13.476562 C 5.492188 13.488281 5.492188 13.5 5.496094 13.507812 C 5.496094 13.511719 5.496094 13.515625 5.496094 13.515625 C 5.496094 13.527344 5.5 13.542969 5.5 13.554688 C 5.5 13.558594 5.5 13.558594 5.5 13.5625 C 5.503906 13.574219 5.503906 13.582031 5.503906 13.59375 C 5.503906 13.597656 5.507812 13.601562 5.507812 13.605469 C 5.507812 13.617188 5.507812 13.625 5.511719 13.632812 C 5.511719 13.636719 5.511719 13.640625 5.511719 13.648438 C 5.511719 13.65625 5.515625 13.664062 5.515625 13.671875 C 5.515625 13.675781 5.515625 13.683594 5.519531 13.6875 C 5.519531 13.695312 5.519531 13.703125 5.523438 13.710938 C 5.523438 13.714844 5.523438 13.722656 5.523438 13.726562 C 5.527344 13.734375 5.527344 13.742188 5.527344 13.75 C 5.53125 13.753906 5.53125 13.757812 5.53125 13.765625 C 5.535156 13.773438 5.535156 13.78125 5.535156 13.789062 C 5.539062 13.792969 5.539062 13.796875 5.539062 13.804688 C 5.542969 13.8125 5.542969 13.820312 5.542969 13.828125 C 5.546875 13.832031 5.546875 13.835938 5.546875 13.84375 C 5.550781 13.851562 5.550781 13.859375 5.550781 13.867188 C 5.554688 13.871094 5.554688 13.875 5.554688 13.882812 C 5.558594 13.890625 5.558594 13.898438 5.5625 13.90625 C 5.5625 13.910156 5.5625 13.914062 5.566406 13.917969 C 5.566406 13.929688 5.570312 13.9375 5.570312 13.945312 C 5.574219 13.949219 5.574219 13.953125 5.574219 13.957031 C 5.578125 13.96875 5.578125 13.980469 5.582031 13.988281 C 5.582031 13.992188 5.582031 13.992188 5.585938 13.996094 C 5.585938 14.007812 5.589844 14.023438 5.59375 14.035156 C 5.59375 14.035156 5.597656 14.039062 5.597656 14.039062 C 5.597656 14.050781 5.601562 14.0625 5.605469 14.074219 C 5.605469 14.078125 5.609375 14.082031 5.609375 14.085938 C 5.613281 14.09375 5.613281 14.101562 5.617188 14.109375 C 5.617188 14.117188 5.621094 14.121094 5.621094 14.125 C 5.625 14.132812 5.625 14.140625 5.628906 14.148438 C 5.628906 14.152344 5.632812 14.160156 5.632812 14.164062 C 5.636719 14.171875 5.640625 14.179688 5.640625 14.1875 C 5.644531 14.191406 5.644531 14.195312 5.648438 14.203125 C 5.648438 14.210938 5.652344 14.21875 5.652344 14.226562 C 5.65625 14.230469 5.65625 14.234375 5.660156 14.242188 C 5.664062 14.246094 5.664062 14.253906 5.667969 14.261719 L 5.671875 14.277344 C 5.675781 14.285156 5.679688 14.292969 5.679688 14.300781 C 5.683594 14.304688 5.683594 14.3125 5.6875 14.316406 C 5.691406 14.324219 5.691406 14.332031 5.695312 14.339844 C 5.699219 14.34375 5.699219 14.347656 5.703125 14.355469 C 5.703125 14.363281 5.707031 14.367188 5.710938 14.375 C 5.714844 14.382812 5.714844 14.386719 5.714844 14.390625 C 5.71875 14.398438 5.722656 14.40625 5.726562 14.414062 C 5.730469 14.417969 5.730469 14.425781 5.730469 14.429688 C 5.734375 14.4375 5.738281 14.449219 5.746094 14.457031 C 5.746094 14.460938 5.746094 14.460938 5.746094 14.464844 C 5.753906 14.476562 5.757812 14.492188 5.765625 14.503906 L 5.765625 14.507812 C 5.769531 14.519531 5.777344 14.527344 5.78125 14.539062 C 5.78125 14.542969 5.785156 14.546875 5.785156 14.550781 C 5.789062 14.558594 5.792969 14.570312 5.796875 14.578125 C 5.800781 14.582031 5.804688 14.585938 5.804688 14.589844 C 5.808594 14.597656 5.8125 14.605469 5.816406 14.613281 C 5.820312 14.617188 5.820312 14.625 5.824219 14.628906 C 5.828125 14.636719 5.832031 14.644531 5.835938 14.648438 C 5.835938 14.65625 5.839844 14.660156 5.84375 14.664062 C 5.847656 14.671875 5.847656 14.679688 5.851562 14.6875 C 5.855469 14.691406 5.859375 14.699219 5.859375 14.703125 C 5.863281 14.710938 5.867188 14.714844 5.871094 14.722656 C 5.875 14.730469 5.878906 14.734375 5.882812 14.738281 C 5.882812 14.746094 5.886719 14.753906 5.890625 14.761719 C 5.894531 14.765625 5.898438 14.769531 5.902344 14.773438 C 5.90625 14.78125 5.910156 14.789062 5.914062 14.796875 C 5.914062 14.800781 5.917969 14.804688 5.921875 14.8125 C 5.925781 14.820312 5.929688 14.824219 5.933594 14.832031 C 5.9375 14.835938 5.9375 14.84375 5.941406 14.847656 C 5.945312 14.855469 5.949219 14.863281 5.953125 14.871094 C 5.957031 14.875 5.960938 14.878906 5.960938 14.882812 C 5.96875 14.890625 5.972656 14.898438 5.976562 14.90625 C 5.980469 14.910156 5.980469 14.914062 5.984375 14.917969 C 5.992188 14.929688 6 14.941406 6.007812 14.953125 L 6.007812 14.957031 C 6.015625 14.96875 6.023438 14.980469 6.027344 14.988281 C 6.03125 14.992188 6.035156 14.996094 6.035156 15 C 6.042969 15.007812 6.046875 15.015625 6.050781 15.023438 C 6.054688 15.027344 6.058594 15.035156 6.0625 15.039062 C 6.066406 15.046875 6.070312 15.050781 6.074219 15.058594 C 6.078125 15.066406 6.082031 15.070312 6.085938 15.074219 C 6.089844 15.082031 6.09375 15.085938 6.097656 15.09375 C 6.101562 15.097656 6.105469 15.105469 6.109375 15.109375 C 6.113281 15.117188 6.121094 15.121094 6.125 15.128906 C 6.128906 15.132812 6.132812 15.140625 6.132812 15.144531 C 6.140625 15.152344 6.144531 15.15625 6.148438 15.164062 C 6.152344 15.167969 6.15625 15.175781 6.160156 15.179688 C 6.164062 15.183594 6.167969 15.191406 6.175781 15.199219 C 6.179688 15.203125 6.179688 15.207031 6.183594 15.214844 C 6.191406 15.21875 6.195312 15.226562 6.199219 15.234375 C 6.203125 15.238281 6.207031 15.242188 6.210938 15.246094 C 6.214844 15.253906 6.222656 15.261719 6.226562 15.265625 C 6.230469 15.273438 6.234375 15.277344 6.238281 15.28125 C 6.242188 15.289062 6.25 15.296875 6.253906 15.300781 C 6.257812 15.304688 6.261719 15.3125 6.265625 15.316406 C 6.269531 15.324219 6.277344 15.332031 6.28125 15.335938 C 6.285156 15.339844 6.289062 15.34375 6.292969 15.347656 C 6.300781 15.359375 6.308594 15.371094 6.320312 15.382812 C 6.707031 15.84375 7.195312 16.222656 7.773438 16.507812 C 7.792969 16.519531 7.8125 16.527344 7.832031 16.539062 C 7.839844 16.542969 7.847656 16.546875 7.855469 16.546875 C 7.867188 16.554688 7.878906 16.558594 7.890625 16.566406 C 7.902344 16.570312 7.910156 16.574219 7.921875 16.578125 C 7.929688 16.582031 7.941406 16.585938 7.949219 16.59375 C 7.960938 16.597656 7.972656 16.601562 7.980469 16.605469 C 7.992188 16.609375 8 16.613281 8.007812 16.617188 C 8.019531 16.621094 8.03125 16.628906 8.042969 16.632812 C 8.050781 16.636719 8.058594 16.640625 8.070312 16.644531 C 8.082031 16.648438 8.089844 16.652344 8.101562 16.65625 C 8.113281 16.660156 8.121094 16.664062 8.128906 16.667969 C 8.140625 16.671875 8.152344 16.675781 8.164062 16.683594 C 8.171875 16.683594 8.179688 16.6875 8.1875 16.691406 C 8.199219 16.695312 8.210938 16.699219 8.222656 16.707031 C 8.234375 16.707031 8.242188 16.710938 8.25 16.714844 C 8.261719 16.71875 8.273438 16.722656 8.285156 16.726562 C 8.292969 16.730469 8.300781 16.734375 8.3125 16.738281 C 8.324219 16.742188 8.335938 16.746094 8.347656 16.75 C 8.355469 16.753906 8.363281 16.757812 8.371094 16.757812 C 8.382812 16.761719 8.394531 16.769531 8.410156 16.773438 C 8.417969 16.773438 8.425781 16.777344 8.433594 16.78125 C 8.445312 16.785156 8.457031 16.789062 8.472656 16.792969 C 8.480469 16.796875 8.488281 16.796875 8.496094 16.800781 C 8.507812 16.804688 8.519531 16.808594 8.535156 16.8125 C 8.542969 16.816406 8.550781 16.816406 8.558594 16.820312 C 8.570312 16.824219 8.585938 16.828125 8.597656 16.832031 C 8.605469 16.835938 8.613281 16.835938 8.621094 16.839844 C 8.632812 16.84375 8.648438 16.847656 8.660156 16.851562 C 8.667969 16.851562 8.675781 16.855469 8.6875 16.859375 C 8.699219 16.859375 8.710938 16.863281 8.722656 16.867188 C 8.730469 16.871094 8.742188 16.871094 8.75 16.875 C 8.761719 16.878906 8.773438 16.882812 8.785156 16.882812 C 8.796875 16.886719 8.804688 16.890625 8.8125 16.890625 C 8.828125 16.894531 8.839844 16.898438 8.851562 16.902344 C 8.859375 16.902344 8.871094 16.90625 8.878906 16.90625 C 8.890625 16.910156 8.902344 16.914062 8.914062 16.917969 C 8.925781 16.917969 8.933594 16.921875 8.945312 16.921875 C 8.957031 16.925781 8.96875 16.929688 8.980469 16.929688 C 8.988281 16.933594 9 16.9375 9.007812 16.9375 C 9.019531 16.941406 9.03125 16.941406 9.042969 16.945312 C 9.054688 16.949219 9.066406 16.949219 9.074219 16.953125 C 9.085938 16.953125 9.097656 16.957031 9.109375 16.957031 C 9.121094 16.960938 9.128906 16.960938 9.140625 16.964844 C 9.152344 16.96875 9.164062 16.96875 9.175781 16.972656 C 9.1875 16.972656 9.195312 16.976562 9.207031 16.976562 C 9.21875 16.980469 9.230469 16.980469 9.242188 16.984375 C 9.253906 16.984375 9.261719 16.988281 9.273438 16.988281 C 9.285156 16.992188 9.296875 16.992188 9.308594 16.996094 C 9.320312 16.996094 9.332031 17 9.339844 17 C 9.351562 17 9.363281 17.003906 9.375 17.003906 C 9.386719 17.007812 9.398438 17.007812 9.40625 17.011719 C 9.417969 17.011719 9.429688 17.011719 9.441406 17.015625 C 9.453125 17.015625 9.464844 17.019531 9.476562 17.019531 C 9.488281 17.019531 9.5 17.023438 9.511719 17.023438 C 9.523438 17.023438 9.53125 17.027344 9.542969 17.027344 C 9.554688 17.03125 9.566406 17.03125 9.578125 17.03125 C 9.589844 17.035156 9.601562 17.035156 9.613281 17.035156 C 9.625 17.039062 9.636719 17.039062 9.648438 17.039062 C 9.660156 17.042969 9.667969 17.042969 9.679688 17.042969 C 9.691406 17.042969 9.703125 17.046875 9.714844 17.046875 C 9.726562 17.046875 9.738281 17.050781 9.75 17.050781 C 9.761719 17.050781 9.773438 17.050781 9.785156 17.054688 C 9.792969 17.054688 9.804688 17.054688 9.816406 17.054688 C 9.984375 17.089844 10.15625 17.105469 10.328125 17.105469 C 10.636719 17.105469 10.933594 17.054688 11.222656 16.949219 C 11.496094 16.847656 11.75 16.699219 11.980469 16.511719 C 12.179688 16.347656 12.351562 16.152344 12.496094 15.9375 " fill-opacity="1" fill-rule="nonzero"/></g><g clip-path="url(#ab026bc9b9)"><path fill="#ffd455" d="M 15.089844 18.570312 L 14.355469 19.308594 C 14.207031 19.457031 13.976562 19.484375 13.796875 19.375 L 13.019531 18.890625 C 12.824219 18.765625 12.582031 18.753906 12.371094 18.855469 C 12.226562 18.921875 12.078125 18.984375 11.929688 19.035156 C 11.710938 19.113281 11.546875 19.296875 11.496094 19.519531 L 11.289062 20.414062 C 11.242188 20.617188 11.058594 20.761719 10.847656 20.761719 L 9.808594 20.761719 C 9.597656 20.761719 9.417969 20.617188 9.367188 20.414062 L 9.160156 19.519531 C 9.148438 19.464844 9.128906 19.410156 9.101562 19.359375 C 9.105469 19.359375 9.109375 19.359375 9.117188 19.359375 C 9.121094 19.359375 9.125 19.359375 9.128906 19.359375 C 9.136719 19.359375 9.148438 19.359375 9.160156 19.359375 C 9.164062 19.359375 9.164062 19.359375 9.167969 19.359375 C 9.195312 19.355469 9.222656 19.355469 9.25 19.351562 C 9.253906 19.351562 9.257812 19.351562 9.261719 19.351562 C 9.273438 19.351562 9.28125 19.351562 9.292969 19.347656 C 9.296875 19.347656 9.300781 19.347656 9.304688 19.347656 C 9.316406 19.347656 9.324219 19.347656 9.335938 19.34375 C 9.339844 19.34375 9.34375 19.34375 9.347656 19.34375 C 9.359375 19.34375 9.367188 19.339844 9.378906 19.339844 C 9.382812 19.339844 9.386719 19.339844 9.386719 19.339844 C 9.402344 19.335938 9.414062 19.335938 9.429688 19.332031 C 9.445312 19.332031 9.457031 19.328125 9.46875 19.328125 C 9.472656 19.328125 9.476562 19.328125 9.480469 19.324219 C 9.492188 19.324219 9.5 19.324219 9.511719 19.320312 C 9.515625 19.320312 9.519531 19.320312 9.523438 19.320312 C 9.535156 19.316406 9.542969 19.316406 9.554688 19.3125 C 9.558594 19.3125 9.5625 19.3125 9.566406 19.3125 C 9.578125 19.308594 9.585938 19.308594 9.597656 19.304688 C 9.601562 19.304688 9.605469 19.304688 9.605469 19.304688 C 9.621094 19.300781 9.632812 19.296875 9.648438 19.296875 C 9.648438 19.296875 9.652344 19.292969 9.65625 19.292969 C 9.664062 19.292969 9.675781 19.289062 9.6875 19.285156 C 9.691406 19.285156 9.695312 19.285156 9.699219 19.285156 C 9.710938 19.28125 9.71875 19.28125 9.726562 19.277344 C 9.734375 19.277344 9.738281 19.273438 9.742188 19.273438 C 9.75 19.273438 9.761719 19.269531 9.769531 19.265625 C 9.773438 19.265625 9.777344 19.265625 9.785156 19.261719 C 9.792969 19.261719 9.804688 19.257812 9.816406 19.253906 C 9.820312 19.253906 9.820312 19.253906 9.824219 19.253906 C 9.835938 19.25 9.851562 19.246094 9.863281 19.242188 C 9.867188 19.242188 9.871094 19.238281 9.875 19.238281 C 9.882812 19.234375 9.894531 19.234375 9.90625 19.230469 C 9.910156 19.230469 9.914062 19.226562 9.917969 19.226562 C 9.925781 19.222656 9.9375 19.21875 9.945312 19.21875 C 9.949219 19.214844 9.953125 19.214844 9.960938 19.214844 C 9.96875 19.210938 9.976562 19.207031 9.988281 19.203125 C 9.992188 19.203125 9.996094 19.203125 10 19.199219 C 10.011719 19.195312 10.023438 19.191406 10.035156 19.1875 C 10.035156 19.1875 10.039062 19.1875 10.039062 19.1875 C 10.054688 19.183594 10.066406 19.175781 10.078125 19.171875 C 10.082031 19.171875 10.085938 19.167969 10.089844 19.167969 C 10.101562 19.164062 10.109375 19.160156 10.121094 19.15625 C 10.125 19.15625 10.128906 19.152344 10.132812 19.152344 C 10.144531 19.148438 10.152344 19.144531 10.160156 19.140625 C 10.164062 19.140625 10.171875 19.136719 10.175781 19.136719 C 10.183594 19.132812 10.191406 19.128906 10.203125 19.125 C 10.207031 19.125 10.210938 19.121094 10.214844 19.121094 C 10.226562 19.113281 10.242188 19.109375 10.253906 19.105469 C 10.710938 18.910156 11.125 18.621094 11.496094 18.246094 C 11.878906 17.855469 12.1875 17.390625 12.421875 16.859375 C 12.429688 16.839844 12.4375 16.824219 12.445312 16.804688 C 12.449219 16.800781 12.449219 16.792969 12.453125 16.785156 C 12.457031 16.773438 12.460938 16.761719 12.46875 16.753906 C 12.46875 16.742188 12.472656 16.734375 12.476562 16.726562 C 12.480469 16.71875 12.484375 16.707031 12.488281 16.699219 C 12.492188 16.691406 12.496094 16.683594 12.5 16.671875 C 12.503906 16.664062 12.507812 16.65625 12.511719 16.644531 C 12.511719 16.636719 12.515625 16.628906 12.519531 16.617188 C 12.523438 16.609375 12.527344 16.601562 12.53125 16.589844 C 12.535156 16.582031 12.539062 16.574219 12.539062 16.5625 C 12.542969 16.554688 12.546875 16.546875 12.550781 16.535156 C 12.554688 16.527344 12.558594 16.519531 12.558594 16.511719 C 12.5625 16.5 12.566406 16.492188 12.570312 16.480469 C 12.574219 16.472656 12.574219 16.464844 12.578125 16.457031 C 12.582031 16.445312 12.585938 16.4375 12.589844 16.425781 C 12.59375 16.417969 12.59375 16.410156 12.597656 16.402344 C 12.601562 16.390625 12.605469 16.382812 12.609375 16.371094 C 12.609375 16.363281 12.613281 16.355469 12.617188 16.347656 C 12.617188 16.335938 12.621094 16.328125 12.625 16.316406 C 12.628906 16.308594 12.628906 16.300781 12.632812 16.292969 C 12.636719 16.28125 12.640625 16.269531 12.640625 16.261719 C 12.644531 16.25 12.648438 16.242188 12.648438 16.234375 C 12.652344 16.226562 12.65625 16.214844 12.660156 16.203125 C 12.660156 16.195312 12.664062 16.1875 12.664062 16.179688 C 12.667969 16.167969 12.671875 16.15625 12.675781 16.148438 C 12.675781 16.140625 12.679688 16.132812 12.683594 16.125 C 12.683594 16.113281 12.6875 16.101562 12.691406 16.089844 C 12.691406 16.082031 12.695312 16.074219 12.695312 16.066406 C 12.699219 16.054688 12.703125 16.042969 12.707031 16.03125 C 12.707031 16.023438 12.710938 16.015625 12.710938 16.007812 C 12.714844 16 12.71875 15.988281 12.71875 15.976562 C 12.722656 15.96875 12.722656 15.960938 12.726562 15.953125 C 12.726562 15.941406 12.730469 15.929688 12.734375 15.917969 C 12.734375 15.910156 12.738281 15.902344 12.738281 15.894531 C 12.742188 15.882812 12.746094 15.871094 12.746094 15.859375 C 12.75 15.851562 12.75 15.84375 12.753906 15.835938 C 12.753906 15.824219 12.757812 15.8125 12.757812 15.800781 C 12.761719 15.792969 12.761719 15.785156 12.765625 15.777344 C 12.765625 15.765625 12.769531 15.753906 12.773438 15.742188 C 12.773438 15.734375 12.773438 15.726562 12.777344 15.71875 C 12.777344 15.707031 12.78125 15.695312 12.785156 15.683594 C 12.785156 15.675781 12.785156 15.667969 12.789062 15.660156 C 12.789062 15.648438 12.792969 15.636719 12.792969 15.625 C 12.796875 15.617188 12.796875 15.609375 12.796875 15.601562 C 12.800781 15.589844 12.800781 15.578125 12.804688 15.566406 C 12.804688 15.558594 12.808594 15.550781 12.808594 15.539062 C 12.808594 15.53125 12.8125 15.519531 12.8125 15.507812 C 12.816406 15.496094 12.816406 15.488281 12.816406 15.480469 C 12.820312 15.46875 12.820312 15.457031 12.824219 15.445312 C 12.824219 15.4375 12.824219 15.429688 12.828125 15.421875 C 12.828125 15.410156 12.832031 15.398438 12.832031 15.386719 C 12.832031 15.378906 12.835938 15.367188 12.835938 15.359375 C 12.835938 15.347656 12.839844 15.335938 12.839844 15.328125 C 12.839844 15.316406 12.84375 15.308594 12.84375 15.300781 C 12.84375 15.289062 12.847656 15.277344 12.847656 15.265625 C 12.847656 15.257812 12.851562 15.246094 12.851562 15.238281 C 12.851562 15.226562 12.851562 15.214844 12.855469 15.207031 C 12.855469 15.195312 12.855469 15.1875 12.855469 15.175781 C 12.859375 15.164062 12.859375 15.15625 12.859375 15.144531 C 12.863281 15.132812 12.863281 15.125 12.863281 15.113281 C 12.863281 15.105469 12.867188 15.09375 12.867188 15.082031 C 12.867188 15.074219 12.867188 15.0625 12.867188 15.054688 C 12.871094 15.042969 12.871094 15.035156 12.871094 15.023438 C 12.90625 14.855469 12.921875 14.683594 12.921875 14.511719 C 12.921875 14.207031 12.867188 13.90625 12.765625 13.621094 C 12.664062 13.34375 12.515625 13.089844 12.328125 12.863281 C 12.164062 12.660156 11.96875 12.488281 11.753906 12.347656 L 11.757812 12.347656 C 11.78125 12.351562 11.800781 12.359375 11.824219 12.363281 C 11.832031 12.367188 11.835938 12.367188 11.84375 12.371094 C 11.863281 12.375 11.882812 12.378906 11.902344 12.386719 C 11.90625 12.386719 11.910156 12.386719 11.914062 12.390625 C 11.9375 12.394531 11.957031 12.402344 11.980469 12.410156 C 11.988281 12.410156 11.992188 12.410156 11.996094 12.414062 C 12.015625 12.417969 12.035156 12.425781 12.054688 12.429688 C 12.058594 12.433594 12.0625 12.433594 12.070312 12.433594 C 12.089844 12.441406 12.113281 12.449219 12.136719 12.457031 C 12.140625 12.457031 12.144531 12.460938 12.148438 12.460938 C 12.167969 12.46875 12.1875 12.472656 12.207031 12.480469 C 12.210938 12.484375 12.214844 12.484375 12.222656 12.484375 C 12.242188 12.492188 12.265625 12.5 12.285156 12.507812 C 12.289062 12.511719 12.296875 12.511719 12.300781 12.515625 C 12.316406 12.519531 12.335938 12.527344 12.355469 12.535156 C 12.359375 12.535156 12.363281 12.539062 12.371094 12.539062 C 12.390625 12.550781 12.414062 12.558594 12.433594 12.566406 C 12.4375 12.566406 12.441406 12.570312 12.445312 12.570312 C 12.464844 12.578125 12.484375 12.585938 12.5 12.59375 C 12.507812 12.59375 12.511719 12.597656 12.515625 12.601562 C 12.539062 12.609375 12.558594 12.617188 12.582031 12.628906 C 12.582031 12.628906 12.585938 12.628906 12.589844 12.628906 C 12.605469 12.640625 12.625 12.648438 12.644531 12.65625 C 12.648438 12.660156 12.65625 12.660156 12.660156 12.664062 C 12.683594 12.671875 12.703125 12.683594 12.722656 12.691406 L 12.726562 12.695312 C 12.746094 12.703125 12.765625 12.714844 12.785156 12.722656 C 12.789062 12.726562 12.796875 12.726562 12.800781 12.730469 C 12.820312 12.742188 12.839844 12.75 12.859375 12.761719 L 12.863281 12.761719 C 12.882812 12.773438 12.902344 12.78125 12.921875 12.792969 C 12.929688 12.796875 12.933594 12.800781 12.9375 12.800781 C 12.957031 12.8125 12.976562 12.820312 12.992188 12.832031 C 12.996094 12.832031 12.996094 12.835938 13 12.835938 C 13.019531 12.847656 13.039062 12.859375 13.058594 12.867188 C 13.0625 12.871094 13.066406 12.875 13.074219 12.878906 C 13.089844 12.886719 13.105469 12.898438 13.125 12.90625 C 13.125 12.910156 13.128906 12.910156 13.132812 12.914062 C 13.152344 12.925781 13.171875 12.9375 13.191406 12.949219 C 13.195312 12.953125 13.199219 12.953125 13.203125 12.957031 C 13.21875 12.96875 13.234375 12.976562 13.25 12.988281 C 13.253906 12.988281 13.257812 12.992188 13.261719 12.996094 C 13.28125 13.007812 13.300781 13.019531 13.316406 13.03125 C 13.320312 13.035156 13.324219 13.039062 13.332031 13.039062 C 13.34375 13.050781 13.359375 13.0625 13.375 13.070312 C 13.378906 13.074219 13.382812 13.078125 13.386719 13.082031 C 13.40625 13.09375 13.425781 13.105469 13.441406 13.117188 C 13.445312 13.121094 13.449219 13.125 13.453125 13.128906 C 13.46875 13.136719 13.484375 13.148438 13.496094 13.160156 C 13.503906 13.164062 13.507812 13.167969 13.511719 13.167969 C 13.527344 13.183594 13.546875 13.195312 13.5625 13.210938 C 13.566406 13.210938 13.570312 13.214844 13.570312 13.21875 C 13.585938 13.230469 13.601562 13.242188 13.617188 13.253906 C 13.621094 13.257812 13.625 13.257812 13.628906 13.261719 C 13.644531 13.277344 13.664062 13.289062 13.679688 13.304688 C 13.683594 13.308594 13.683594 13.308594 13.6875 13.3125 C 13.703125 13.324219 13.714844 13.335938 13.730469 13.347656 C 13.734375 13.351562 13.738281 13.355469 13.742188 13.359375 C 13.757812 13.375 13.777344 13.390625 13.792969 13.402344 C 13.792969 13.40625 13.792969 13.40625 13.796875 13.40625 C 13.8125 13.421875 13.828125 13.433594 13.839844 13.449219 C 13.84375 13.453125 13.847656 13.457031 13.851562 13.460938 C 13.871094 13.476562 13.886719 13.492188 13.902344 13.507812 C 13.910156 13.515625 13.921875 13.527344 13.933594 13.539062 C 13.9375 13.542969 13.941406 13.546875 13.945312 13.550781 C 13.953125 13.558594 13.960938 13.5625 13.964844 13.570312 C 13.96875 13.574219 13.976562 13.578125 13.980469 13.585938 C 13.984375 13.589844 13.992188 13.597656 13.996094 13.605469 C 14.003906 13.609375 14.007812 13.613281 14.011719 13.617188 C 14.015625 13.625 14.023438 13.628906 14.027344 13.636719 C 14.035156 13.640625 14.039062 13.648438 14.042969 13.652344 C 14.046875 13.660156 14.054688 13.664062 14.058594 13.671875 C 14.066406 13.675781 14.070312 13.679688 14.074219 13.6875 C 14.078125 13.691406 14.085938 13.699219 14.089844 13.703125 C 14.09375 13.710938 14.097656 13.714844 14.105469 13.71875 C 14.109375 13.726562 14.113281 13.734375 14.121094 13.738281 C 14.125 13.742188 14.128906 13.75 14.132812 13.753906 C 14.140625 13.761719 14.144531 13.765625 14.148438 13.773438 C 14.152344 13.777344 14.160156 13.785156 14.164062 13.789062 C 14.167969 13.796875 14.171875 13.800781 14.179688 13.808594 C 14.183594 13.8125 14.1875 13.816406 14.191406 13.824219 C 14.195312 13.828125 14.203125 13.835938 14.207031 13.84375 C 14.210938 13.847656 14.214844 13.851562 14.21875 13.859375 C 14.226562 13.863281 14.230469 13.871094 14.234375 13.878906 C 14.238281 13.882812 14.242188 13.886719 14.246094 13.894531 C 14.253906 13.898438 14.257812 13.90625 14.261719 13.914062 C 14.265625 13.917969 14.269531 13.921875 14.273438 13.929688 C 14.28125 13.933594 14.285156 13.941406 14.289062 13.949219 C 14.292969 13.953125 14.296875 13.960938 14.300781 13.964844 C 14.304688 13.972656 14.3125 13.976562 14.316406 13.984375 C 14.320312 13.988281 14.324219 13.996094 14.328125 14 C 14.332031 14.007812 14.335938 14.015625 14.34375 14.019531 C 14.347656 14.027344 14.347656 14.03125 14.351562 14.035156 C 14.359375 14.042969 14.363281 14.050781 14.367188 14.054688 C 14.371094 14.0625 14.375 14.066406 14.378906 14.074219 C 14.382812 14.078125 14.386719 14.085938 14.390625 14.09375 C 14.394531 14.097656 14.398438 14.105469 14.402344 14.109375 C 14.40625 14.117188 14.414062 14.121094 14.417969 14.128906 C 14.421875 14.136719 14.421875 14.140625 14.425781 14.144531 C 14.433594 14.152344 14.4375 14.160156 14.441406 14.167969 C 14.445312 14.171875 14.449219 14.175781 14.449219 14.183594 C 14.457031 14.191406 14.460938 14.195312 14.464844 14.203125 C 14.46875 14.210938 14.46875 14.214844 14.472656 14.21875 C 14.476562 14.226562 14.484375 14.234375 14.488281 14.242188 C 14.488281 14.246094 14.492188 14.25 14.496094 14.257812 C 14.5 14.265625 14.503906 14.269531 14.507812 14.277344 C 14.511719 14.285156 14.515625 14.289062 14.519531 14.292969 C 14.523438 14.300781 14.527344 14.308594 14.53125 14.316406 C 14.535156 14.320312 14.535156 14.328125 14.539062 14.332031 C 14.542969 14.339844 14.546875 14.347656 14.550781 14.355469 C 14.554688 14.359375 14.558594 14.363281 14.5625 14.371094 C 14.566406 14.378906 14.570312 14.382812 14.574219 14.390625 C 14.574219 14.398438 14.578125 14.402344 14.582031 14.40625 C 14.585938 14.414062 14.589844 14.421875 14.59375 14.429688 C 14.597656 14.433594 14.597656 14.441406 14.601562 14.445312 C 14.605469 14.453125 14.609375 14.460938 14.613281 14.46875 C 14.617188 14.472656 14.617188 14.480469 14.621094 14.484375 C 14.625 14.492188 14.628906 14.5 14.632812 14.507812 C 14.632812 14.511719 14.636719 14.519531 14.640625 14.523438 C 14.644531 14.53125 14.648438 14.539062 14.652344 14.546875 C 14.652344 14.550781 14.65625 14.554688 14.660156 14.5625 C 14.660156 14.570312 14.664062 14.578125 14.667969 14.585938 C 14.671875 14.589844 14.671875 14.59375 14.675781 14.601562 C 14.679688 14.609375 14.683594 14.617188 14.6875 14.625 C 14.6875 14.628906 14.691406 14.632812 14.695312 14.640625 C 14.695312 14.648438 14.699219 14.65625 14.703125 14.664062 C 14.707031 14.667969 14.707031 14.671875 14.710938 14.679688 C 14.714844 14.6875 14.71875 14.695312 14.71875 14.703125 C 14.722656 14.707031 14.722656 14.710938 14.726562 14.71875 C 14.730469 14.726562 14.734375 14.734375 14.734375 14.742188 C 14.738281 14.746094 14.738281 14.75 14.742188 14.757812 C 14.746094 14.765625 14.75 14.773438 14.75 14.78125 C 14.753906 14.785156 14.753906 14.789062 14.757812 14.796875 C 14.761719 14.804688 14.761719 14.8125 14.765625 14.820312 C 14.769531 14.824219 14.769531 14.832031 14.773438 14.835938 C 14.773438 14.84375 14.777344 14.851562 14.78125 14.859375 C 14.78125 14.863281 14.785156 14.871094 14.785156 14.875 C 14.789062 14.882812 14.792969 14.890625 14.792969 14.898438 C 14.796875 14.90625 14.796875 14.910156 14.800781 14.914062 C 14.800781 14.921875 14.804688 14.929688 14.808594 14.9375 C 14.808594 14.945312 14.8125 14.949219 14.8125 14.953125 C 14.816406 14.960938 14.816406 14.972656 14.820312 14.980469 C 14.820312 14.984375 14.824219 14.988281 14.824219 14.996094 C 14.828125 15.003906 14.828125 15.011719 14.832031 15.019531 C 14.832031 15.023438 14.835938 15.03125 14.835938 15.035156 C 14.839844 15.042969 14.839844 15.050781 14.84375 15.058594 C 14.84375 15.066406 14.847656 15.070312 14.847656 15.074219 C 14.851562 15.082031 14.851562 15.089844 14.855469 15.097656 C 14.855469 15.105469 14.855469 15.109375 14.859375 15.113281 C 14.859375 15.125 14.863281 15.132812 14.863281 15.140625 C 14.867188 15.144531 14.867188 15.148438 14.867188 15.15625 C 14.871094 15.164062 14.871094 15.171875 14.875 15.179688 C 14.875 15.183594 14.875 15.191406 14.878906 15.195312 C 14.878906 15.203125 14.882812 15.210938 14.882812 15.222656 C 14.882812 15.226562 14.886719 15.230469 14.886719 15.234375 C 14.886719 15.246094 14.890625 15.253906 14.890625 15.261719 C 14.894531 15.265625 14.894531 15.269531 14.894531 15.277344 C 14.898438 15.285156 14.898438 15.292969 14.898438 15.300781 C 14.902344 15.308594 14.902344 15.3125 14.902344 15.316406 C 14.90625 15.324219 14.90625 15.335938 14.90625 15.34375 C 14.910156 15.347656 14.910156 15.351562 14.910156 15.355469 C 14.910156 15.367188 14.914062 15.375 14.914062 15.382812 C 14.914062 15.386719 14.914062 15.394531 14.917969 15.398438 C 14.917969 15.40625 14.917969 15.414062 14.921875 15.425781 C 14.921875 15.429688 14.921875 15.433594 14.921875 15.4375 C 14.925781 15.449219 14.925781 15.457031 14.925781 15.464844 C 14.925781 15.46875 14.929688 15.472656 14.929688 15.480469 C 14.929688 15.488281 14.929688 15.496094 14.929688 15.507812 C 14.933594 15.511719 14.933594 15.515625 14.933594 15.519531 C 14.933594 15.527344 14.933594 15.539062 14.9375 15.546875 C 14.9375 15.550781 14.9375 15.554688 14.9375 15.558594 C 14.9375 15.570312 14.9375 15.578125 14.941406 15.589844 C 14.941406 15.59375 14.941406 15.597656 14.941406 15.601562 C 14.941406 15.609375 14.941406 15.621094 14.941406 15.628906 C 14.945312 15.632812 14.945312 15.636719 14.945312 15.640625 C 14.945312 15.652344 14.945312 15.660156 14.945312 15.671875 C 14.945312 15.675781 14.945312 15.679688 14.945312 15.683594 C 14.945312 15.691406 14.949219 15.703125 14.949219 15.710938 C 14.949219 15.714844 14.949219 15.71875 14.949219 15.722656 C 14.949219 15.734375 14.949219 15.746094 14.949219 15.753906 C 14.949219 15.757812 14.949219 15.761719 14.949219 15.765625 C 14.949219 15.773438 14.949219 15.785156 14.949219 15.796875 C 14.949219 15.800781 14.949219 15.800781 14.949219 15.804688 C 14.949219 15.816406 14.949219 15.832031 14.949219 15.84375 C 14.949219 15.871094 14.949219 15.898438 14.949219 15.925781 C 14.890625 15.992188 14.847656 16.066406 14.820312 16.148438 C 14.765625 16.296875 14.703125 16.445312 14.636719 16.589844 C 14.535156 16.796875 14.550781 17.042969 14.671875 17.238281 L 15.15625 18.015625 C 15.265625 18.195312 15.242188 18.421875 15.089844 18.570312 " fill-opacity="1" fill-rule="nonzero"/></g></svg>