<svg xmlns="http://www.w3.org/2000/svg" xmlns:xlink="http://www.w3.org/1999/xlink" width="100" zoomAndPan="magnify" viewBox="0 0 75 30.000001" height="40" preserveAspectRatio="xMidYMid meet" version="1.0"><defs><g/><clipPath id="f7e9e1da8a"><path d="M 1.210938 0 L 73.789062 0 L 73.789062 29.03125 L 1.210938 29.03125 Z M 1.210938 0 " clip-rule="nonzero"/></clipPath><clipPath id="92d33b0680"><path d="M 53.703125 21.148438 L 58.03125 21.148438 L 58.03125 23.644531 L 53.703125 23.644531 Z M 53.703125 21.148438 " clip-rule="nonzero"/></clipPath><clipPath id="a4f792e8fe"><path d="M 53.125 19.535156 L 56 19.535156 L 56 21 L 53.125 21 Z M 53.125 19.535156 " clip-rule="nonzero"/></clipPath><clipPath id="077ad3228f"><path d="M 53.898438 24.726562 L 56.261719 24.726562 L 56.261719 26.113281 L 53.898438 26.113281 Z M 53.898438 24.726562 " clip-rule="nonzero"/></clipPath><clipPath id="33d2e78c0a"><path d="M 34 4 L 45.417969 4 L 45.417969 13 L 34 13 Z M 34 4 " clip-rule="nonzero"/></clipPath><clipPath id="8075aa8b2c"><path d="M 31 2.902344 L 40 2.902344 L 40 14 L 31 14 Z M 31 2.902344 " clip-rule="nonzero"/></clipPath><clipPath id="d00b1ceecf"><path d="M 29.449219 9 L 41 9 L 41 18 L 29.449219 18 Z M 29.449219 9 " clip-rule="nonzero"/></clipPath><clipPath id="de33b22954"><path d="M 35 8 L 44 8 L 44 18.871094 L 35 18.871094 Z M 35 8 " clip-rule="nonzero"/></clipPath></defs><g clip-path="url(#f7e9e1da8a)"><path fill="#ffffff" d="M 1.210938 0 L 73.789062 0 L 73.789062 29.03125 L 1.210938 29.03125 Z M 1.210938 0 " fill-opacity="1" fill-rule="nonzero"/><path fill="#ffffff" d="M 1.210938 0 L 73.789062 0 L 73.789062 29.03125 L 1.210938 29.03125 Z M 1.210938 0 " fill-opacity="1" fill-rule="nonzero"/></g><g fill="#ffd455" fill-opacity="1"><g transform="translate(7.575436, 25.580501)"><g><path d="M 10.421875 0 L 8.25 0 L 8.25 -3.296875 L 6.3125 0 L 4.6875 0 L 2.75 -3.296875 L 2.75 0 L 0.578125 0 L 0.578125 -5.171875 L 3.15625 -5.171875 L 5.5 -1.484375 L 7.84375 -5.171875 L 10.421875 -5.171875 Z M 10.421875 0 "/></g></g></g><g fill="#ffd455" fill-opacity="1"><g transform="translate(18.956347, 25.580501)"><g><path d="M 6.8125 0 L 0.578125 0 L 0.578125 -5.171875 L 6.53125 -5.171875 L 6.53125 -3.890625 L 2.75 -3.890625 L 2.75 -3.078125 L 5.9375 -3.078125 L 5.9375 -2.09375 L 2.75 -2.09375 L 2.75 -1.28125 L 6.8125 -1.28125 Z M 6.8125 0 "/></g></g></g><g fill="#ffd455" fill-opacity="1"><g transform="translate(26.440823, 25.580501)"><g><path d="M 3.921875 0.109375 C 2.640625 0.109375 1.695312 -0.148438 1.09375 -0.671875 C 0.550781 -1.140625 0.28125 -1.773438 0.28125 -2.578125 C 0.28125 -3.390625 0.550781 -4.03125 1.09375 -4.5 C 1.695312 -5.019531 2.640625 -5.28125 3.921875 -5.28125 C 4.671875 -5.28125 5.289062 -5.191406 5.78125 -5.015625 C 6.269531 -4.847656 6.648438 -4.613281 6.921875 -4.3125 C 7.191406 -4.019531 7.375 -3.679688 7.46875 -3.296875 L 5.171875 -3.296875 C 4.941406 -3.691406 4.523438 -3.890625 3.921875 -3.890625 C 3.390625 -3.890625 3 -3.738281 2.75 -3.4375 C 2.5625 -3.195312 2.46875 -2.910156 2.46875 -2.578125 C 2.46875 -2.253906 2.5625 -1.972656 2.75 -1.734375 C 3 -1.429688 3.390625 -1.28125 3.921875 -1.28125 C 4.523438 -1.28125 4.941406 -1.476562 5.171875 -1.875 L 7.46875 -1.875 C 7.375 -1.488281 7.191406 -1.144531 6.921875 -0.84375 C 6.648438 -0.550781 6.269531 -0.316406 5.78125 -0.140625 C 5.289062 0.0234375 4.671875 0.109375 3.921875 0.109375 Z M 3.921875 0.109375 "/></g></g></g><g fill="#ffd455" fill-opacity="1"><g transform="translate(34.574705, 25.580501)"><g><path d="M 8.703125 0 L 6.5 0 L 6.015625 -0.84375 L 2.75 -0.84375 L 2.25 0 L 0.046875 0 L 3.359375 -5.171875 L 5.390625 -5.171875 Z M 5.28125 -2.125 L 4.375 -3.703125 L 3.46875 -2.125 Z M 5.28125 -2.125 "/></g></g></g><g fill="#ffd455" fill-opacity="1"><g transform="translate(43.70795, 25.580501)"><g><path d="M 8.265625 0 L 5.671875 0 L 2.75 -3.5 L 2.75 0 L 0.578125 0 L 0.578125 -5.171875 L 3.15625 -5.171875 L 6.09375 -1.6875 L 6.09375 -5.171875 L 8.265625 -5.171875 Z M 8.265625 0 "/></g></g></g><g fill="#ffd455" fill-opacity="1"><g transform="translate(52.929596, 25.580501)"><g/></g></g><g fill="#ffd455" fill-opacity="1"><g transform="translate(55.146669, 25.580501)"><g/></g></g><g fill="#032f6b" fill-opacity="1"><g transform="translate(57.365991, 25.580501)"><g><path d="M 8.703125 0 L 6.5 0 L 6.015625 -0.84375 L 2.75 -0.84375 L 2.25 0 L 0.046875 0 L 3.359375 -5.171875 L 5.390625 -5.171875 Z M 5.28125 -2.125 L 4.375 -3.703125 L 3.46875 -2.125 Z M 5.28125 -2.125 "/></g></g></g><g clip-path="url(#92d33b0680)"><path fill="#032f6b" d="M 56.644531 23.640625 L 53.894531 23.640625 C 53.75 23.640625 53.664062 23.484375 53.734375 23.363281 L 54.957031 21.273438 C 54.988281 21.214844 55.050781 21.183594 55.117188 21.183594 L 57.867188 21.183594 C 58.007812 21.183594 58.097656 21.335938 58.023438 21.457031 L 56.800781 23.546875 C 56.769531 23.605469 56.707031 23.640625 56.644531 23.640625 " fill-opacity="1" fill-rule="nonzero"/></g><g clip-path="url(#a4f792e8fe)"><path fill="#032f6b" d="M 54.789062 21 L 53.386719 21 C 53.226562 21 53.125 20.824219 53.207031 20.6875 L 53.816406 19.644531 C 53.851562 19.582031 53.921875 19.542969 53.996094 19.542969 L 55.398438 19.542969 C 55.558594 19.542969 55.65625 19.714844 55.578125 19.855469 L 54.96875 20.898438 C 54.929688 20.960938 54.863281 21 54.789062 21 " fill-opacity="1" fill-rule="nonzero"/></g><g clip-path="url(#077ad3228f)"><path fill="#032f6b" d="M 55.476562 26.125 L 54.109375 26.125 C 53.96875 26.125 53.878906 25.972656 53.949219 25.847656 L 54.546875 24.832031 C 54.578125 24.773438 54.640625 24.738281 54.707031 24.738281 L 56.070312 24.738281 C 56.210938 24.738281 56.300781 24.894531 56.230469 25.015625 L 55.632812 26.035156 C 55.601562 26.089844 55.539062 26.125 55.476562 26.125 " fill-opacity="1" fill-rule="nonzero"/></g><g clip-path="url(#33d2e78c0a)"><path fill="#032f6b" d="M 45.535156 11 L 45.492188 11.183594 L 45.542969 11.183594 L 45.542969 11.710938 C 45.542969 11.984375 45.355469 12.21875 45.089844 12.28125 L 43.9375 12.550781 C 43.878906 12.5625 43.824219 12.582031 43.773438 12.605469 C 43.773438 12.585938 43.773438 12.570312 43.773438 12.554688 C 43.773438 12.550781 43.769531 12.546875 43.769531 12.542969 C 43.769531 12.527344 43.769531 12.515625 43.769531 12.5 C 43.769531 12.496094 43.769531 12.488281 43.769531 12.484375 C 43.769531 12.472656 43.765625 12.457031 43.765625 12.445312 C 43.765625 12.441406 43.765625 12.433594 43.765625 12.429688 C 43.765625 12.417969 43.761719 12.402344 43.761719 12.390625 C 43.761719 12.386719 43.761719 12.378906 43.761719 12.375 C 43.761719 12.359375 43.757812 12.347656 43.757812 12.332031 C 43.757812 12.328125 43.757812 12.324219 43.757812 12.320312 C 43.753906 12.304688 43.753906 12.285156 43.75 12.269531 C 43.75 12.265625 43.75 12.265625 43.75 12.261719 C 43.75 12.246094 43.746094 12.230469 43.746094 12.214844 C 43.746094 12.210938 43.742188 12.203125 43.742188 12.199219 C 43.742188 12.1875 43.738281 12.175781 43.738281 12.160156 C 43.738281 12.15625 43.738281 12.148438 43.734375 12.144531 C 43.734375 12.132812 43.730469 12.121094 43.730469 12.109375 C 43.730469 12.101562 43.726562 12.097656 43.726562 12.089844 C 43.726562 12.078125 43.722656 12.0625 43.722656 12.050781 C 43.71875 12.046875 43.71875 12.042969 43.71875 12.035156 C 43.710938 12 43.707031 11.964844 43.699219 11.929688 C 43.699219 11.925781 43.699219 11.921875 43.695312 11.914062 C 43.695312 11.902344 43.691406 11.890625 43.6875 11.878906 C 43.6875 11.871094 43.6875 11.867188 43.683594 11.859375 C 43.683594 11.847656 43.679688 11.835938 43.675781 11.824219 C 43.675781 11.816406 43.675781 11.8125 43.671875 11.804688 C 43.671875 11.792969 43.667969 11.78125 43.664062 11.769531 C 43.664062 11.765625 43.660156 11.757812 43.660156 11.753906 C 43.65625 11.738281 43.652344 11.722656 43.648438 11.707031 C 43.648438 11.707031 43.648438 11.703125 43.648438 11.699219 C 43.644531 11.683594 43.636719 11.664062 43.632812 11.648438 C 43.632812 11.644531 43.632812 11.640625 43.628906 11.636719 C 43.625 11.621094 43.621094 11.609375 43.617188 11.59375 C 43.617188 11.589844 43.613281 11.582031 43.613281 11.578125 C 43.609375 11.566406 43.605469 11.554688 43.601562 11.542969 C 43.601562 11.535156 43.597656 11.53125 43.597656 11.523438 C 43.59375 11.511719 43.589844 11.5 43.585938 11.488281 C 43.585938 11.484375 43.582031 11.476562 43.582031 11.472656 C 43.578125 11.457031 43.574219 11.445312 43.570312 11.433594 C 43.566406 11.425781 43.566406 11.421875 43.5625 11.417969 C 43.558594 11.402344 43.550781 11.382812 43.546875 11.367188 C 43.546875 11.363281 43.542969 11.359375 43.542969 11.355469 C 43.539062 11.34375 43.53125 11.328125 43.527344 11.3125 C 43.527344 11.308594 43.523438 11.300781 43.519531 11.296875 C 43.515625 11.285156 43.511719 11.273438 43.507812 11.261719 C 43.507812 11.253906 43.503906 11.25 43.5 11.242188 C 43.496094 11.230469 43.492188 11.21875 43.488281 11.210938 C 43.484375 11.203125 43.484375 11.195312 43.480469 11.191406 C 43.476562 11.179688 43.472656 11.167969 43.464844 11.15625 C 43.464844 11.148438 43.460938 11.144531 43.460938 11.136719 C 43.453125 11.121094 43.445312 11.105469 43.4375 11.085938 C 43.1875 10.5 42.816406 9.957031 42.328125 9.480469 C 42.28125 9.433594 42.230469 9.390625 42.183594 9.34375 C 41.707031 8.914062 41.152344 8.554688 40.53125 8.28125 C 40.507812 8.273438 40.488281 8.261719 40.464844 8.253906 C 40.457031 8.25 40.453125 8.25 40.449219 8.246094 C 40.429688 8.238281 40.414062 8.230469 40.394531 8.222656 C 40.386719 8.222656 40.378906 8.21875 40.371094 8.214844 C 40.355469 8.210938 40.339844 8.203125 40.324219 8.195312 C 40.316406 8.195312 40.308594 8.191406 40.304688 8.1875 C 40.289062 8.179688 40.273438 8.175781 40.257812 8.167969 C 40.246094 8.164062 40.238281 8.164062 40.230469 8.160156 C 40.21875 8.152344 40.203125 8.148438 40.1875 8.140625 C 40.175781 8.140625 40.167969 8.136719 40.160156 8.132812 C 40.144531 8.128906 40.128906 8.121094 40.117188 8.117188 C 40.105469 8.113281 40.097656 8.109375 40.089844 8.109375 C 40.074219 8.101562 40.058594 8.097656 40.042969 8.089844 C 40.035156 8.089844 40.027344 8.085938 40.019531 8.082031 C 40.003906 8.078125 39.988281 8.070312 39.972656 8.066406 C 39.964844 8.0625 39.957031 8.0625 39.949219 8.058594 C 39.933594 8.054688 39.917969 8.046875 39.902344 8.042969 C 39.894531 8.039062 39.886719 8.039062 39.875 8.035156 C 39.859375 8.03125 39.84375 8.023438 39.828125 8.019531 C 39.820312 8.015625 39.8125 8.015625 39.804688 8.011719 C 39.789062 8.007812 39.773438 8.003906 39.757812 7.996094 C 39.75 7.996094 39.738281 7.992188 39.730469 7.988281 C 39.714844 7.984375 39.699219 7.980469 39.683594 7.976562 C 39.675781 7.972656 39.667969 7.972656 39.65625 7.96875 C 39.640625 7.964844 39.625 7.960938 39.609375 7.957031 C 39.601562 7.953125 39.59375 7.949219 39.582031 7.949219 C 39.566406 7.945312 39.554688 7.9375 39.539062 7.933594 C 39.527344 7.933594 39.519531 7.929688 39.507812 7.929688 C 39.492188 7.921875 39.480469 7.917969 39.464844 7.914062 C 39.453125 7.914062 39.445312 7.910156 39.433594 7.910156 C 39.417969 7.90625 39.40625 7.902344 39.390625 7.898438 C 39.378906 7.894531 39.371094 7.894531 39.359375 7.890625 C 39.34375 7.886719 39.328125 7.882812 39.3125 7.878906 C 39.304688 7.878906 39.292969 7.875 39.285156 7.871094 C 39.269531 7.871094 39.253906 7.867188 39.238281 7.863281 C 39.230469 7.859375 39.21875 7.859375 39.207031 7.855469 C 39.195312 7.851562 39.179688 7.847656 39.164062 7.847656 C 39.152344 7.84375 39.144531 7.839844 39.132812 7.839844 C 39.117188 7.835938 39.101562 7.832031 39.089844 7.832031 C 39.078125 7.828125 39.066406 7.828125 39.054688 7.824219 C 39.042969 7.820312 39.027344 7.816406 39.011719 7.816406 C 39 7.8125 38.992188 7.8125 38.980469 7.808594 C 38.964844 7.808594 38.949219 7.804688 38.9375 7.800781 C 38.925781 7.800781 38.914062 7.796875 38.902344 7.796875 C 38.886719 7.792969 38.875 7.789062 38.859375 7.789062 C 38.847656 7.785156 38.835938 7.785156 38.824219 7.78125 C 38.8125 7.78125 38.796875 7.777344 38.78125 7.777344 L 38.746094 7.769531 C 38.734375 7.769531 38.71875 7.765625 38.703125 7.761719 C 38.691406 7.761719 38.679688 7.761719 38.667969 7.757812 C 38.65625 7.757812 38.640625 7.753906 38.628906 7.753906 C 38.617188 7.75 38.601562 7.75 38.589844 7.746094 C 38.578125 7.746094 38.5625 7.742188 38.550781 7.742188 C 38.539062 7.742188 38.523438 7.738281 38.511719 7.738281 C 38.5 7.734375 38.484375 7.734375 38.472656 7.730469 C 38.457031 7.730469 38.445312 7.730469 38.433594 7.726562 C 38.421875 7.726562 38.40625 7.726562 38.390625 7.722656 C 38.378906 7.722656 38.367188 7.722656 38.355469 7.71875 C 38.339844 7.71875 38.328125 7.714844 38.3125 7.714844 C 38.300781 7.714844 38.289062 7.714844 38.277344 7.710938 C 38.261719 7.710938 38.25 7.710938 38.234375 7.707031 C 38.222656 7.707031 38.210938 7.707031 38.195312 7.707031 C 38.183594 7.703125 38.171875 7.703125 38.160156 7.703125 C 37.941406 7.660156 37.71875 7.636719 37.496094 7.636719 C 37.097656 7.636719 36.710938 7.707031 36.339844 7.839844 C 35.984375 7.972656 35.652344 8.160156 35.359375 8.40625 C 35.097656 8.621094 34.871094 8.875 34.6875 9.152344 L 34.6875 9.148438 C 34.699219 9.113281 34.707031 9.078125 34.714844 9.046875 C 34.71875 9.035156 34.71875 9.027344 34.722656 9.019531 C 34.730469 8.988281 34.738281 8.953125 34.75 8.921875 C 34.75 8.917969 34.75 8.917969 34.75 8.914062 C 34.761719 8.878906 34.769531 8.847656 34.78125 8.8125 C 34.785156 8.804688 34.785156 8.796875 34.789062 8.789062 C 34.800781 8.753906 34.808594 8.71875 34.820312 8.683594 C 34.832031 8.648438 34.84375 8.617188 34.855469 8.582031 C 34.855469 8.574219 34.859375 8.566406 34.863281 8.558594 C 34.875 8.523438 34.886719 8.492188 34.898438 8.457031 C 34.898438 8.457031 34.902344 8.453125 34.902344 8.449219 C 34.914062 8.417969 34.925781 8.386719 34.9375 8.359375 C 34.9375 8.351562 34.941406 8.34375 34.945312 8.335938 C 34.957031 8.300781 34.96875 8.269531 34.984375 8.238281 C 34.984375 8.234375 34.988281 8.226562 34.988281 8.222656 C 35 8.195312 35.011719 8.164062 35.023438 8.136719 C 35.027344 8.128906 35.03125 8.125 35.035156 8.117188 C 35.046875 8.085938 35.0625 8.054688 35.074219 8.023438 C 35.078125 8.015625 35.082031 8.011719 35.082031 8.003906 C 35.09375 7.976562 35.109375 7.949219 35.121094 7.921875 C 35.125 7.917969 35.125 7.910156 35.128906 7.902344 C 35.144531 7.871094 35.160156 7.84375 35.175781 7.8125 C 35.175781 7.804688 35.179688 7.796875 35.183594 7.792969 C 35.199219 7.765625 35.210938 7.738281 35.226562 7.710938 C 35.226562 7.707031 35.230469 7.703125 35.234375 7.695312 C 35.25 7.667969 35.265625 7.636719 35.28125 7.605469 C 35.285156 7.601562 35.289062 7.59375 35.292969 7.585938 C 35.304688 7.558594 35.320312 7.53125 35.335938 7.503906 C 35.339844 7.5 35.339844 7.5 35.34375 7.496094 C 35.359375 7.464844 35.375 7.4375 35.394531 7.40625 C 35.398438 7.402344 35.402344 7.394531 35.40625 7.386719 C 35.421875 7.359375 35.441406 7.332031 35.457031 7.304688 L 35.460938 7.300781 C 35.476562 7.269531 35.496094 7.242188 35.515625 7.214844 C 35.519531 7.207031 35.523438 7.199219 35.527344 7.191406 C 35.546875 7.164062 35.566406 7.136719 35.582031 7.109375 C 35.585938 7.105469 35.585938 7.105469 35.589844 7.101562 C 35.605469 7.078125 35.625 7.050781 35.640625 7.027344 C 35.648438 7.019531 35.652344 7.011719 35.65625 7.003906 C 35.675781 6.980469 35.695312 6.953125 35.714844 6.925781 C 35.71875 6.921875 35.71875 6.917969 35.722656 6.914062 C 35.742188 6.890625 35.757812 6.867188 35.777344 6.84375 C 35.78125 6.835938 35.785156 6.832031 35.792969 6.824219 C 35.8125 6.800781 35.832031 6.773438 35.851562 6.75 C 35.855469 6.742188 35.859375 6.738281 35.863281 6.734375 C 35.882812 6.710938 35.902344 6.691406 35.917969 6.667969 C 35.921875 6.664062 35.929688 6.65625 35.933594 6.652344 C 35.953125 6.625 35.976562 6.601562 35.996094 6.578125 C 36 6.570312 36.007812 6.566406 36.011719 6.5625 C 36.03125 6.539062 36.046875 6.519531 36.066406 6.5 C 36.074219 6.492188 36.078125 6.488281 36.082031 6.484375 C 36.101562 6.460938 36.125 6.4375 36.148438 6.414062 C 36.152344 6.40625 36.160156 6.402344 36.164062 6.398438 C 36.183594 6.375 36.203125 6.355469 36.222656 6.335938 C 36.226562 6.332031 36.230469 6.328125 36.234375 6.324219 C 36.257812 6.300781 36.28125 6.277344 36.304688 6.253906 C 36.3125 6.25 36.316406 6.246094 36.324219 6.238281 C 36.34375 6.21875 36.367188 6.199219 36.390625 6.175781 C 36.390625 6.175781 36.394531 6.171875 36.398438 6.171875 C 36.421875 6.148438 36.445312 6.125 36.46875 6.105469 C 36.476562 6.097656 36.480469 6.09375 36.488281 6.089844 C 36.511719 6.066406 36.539062 6.046875 36.5625 6.027344 L 36.5625 6.023438 C 36.589844 6 36.621094 5.976562 36.648438 5.957031 L 36.652344 5.953125 C 36.664062 5.941406 36.675781 5.933594 36.691406 5.921875 C 36.691406 5.917969 36.695312 5.917969 36.699219 5.914062 C 36.710938 5.90625 36.722656 5.898438 36.730469 5.890625 C 36.738281 5.886719 36.742188 5.882812 36.746094 5.878906 C 36.753906 5.871094 36.765625 5.863281 36.773438 5.855469 C 36.78125 5.851562 36.785156 5.847656 36.789062 5.84375 C 36.800781 5.839844 36.808594 5.832031 36.816406 5.824219 C 36.824219 5.820312 36.828125 5.816406 36.835938 5.8125 C 36.84375 5.808594 36.851562 5.800781 36.859375 5.792969 C 36.867188 5.789062 36.875 5.785156 36.878906 5.78125 C 36.886719 5.777344 36.894531 5.769531 36.902344 5.765625 C 36.910156 5.757812 36.917969 5.753906 36.921875 5.75 C 36.929688 5.746094 36.9375 5.738281 36.949219 5.734375 C 36.953125 5.730469 36.960938 5.726562 36.96875 5.71875 C 36.976562 5.714844 36.984375 5.710938 36.992188 5.703125 C 37 5.699219 37.003906 5.695312 37.011719 5.691406 C 37.019531 5.6875 37.027344 5.679688 37.035156 5.675781 C 37.042969 5.671875 37.050781 5.667969 37.054688 5.664062 C 37.0625 5.65625 37.070312 5.652344 37.078125 5.648438 C 37.085938 5.644531 37.09375 5.640625 37.101562 5.632812 C 37.109375 5.628906 37.117188 5.625 37.125 5.621094 C 37.132812 5.617188 37.136719 5.609375 37.144531 5.605469 C 37.152344 5.601562 37.160156 5.597656 37.167969 5.59375 C 37.175781 5.589844 37.183594 5.585938 37.191406 5.578125 C 37.199219 5.574219 37.207031 5.570312 37.210938 5.566406 C 37.21875 5.5625 37.226562 5.558594 37.234375 5.554688 C 37.242188 5.550781 37.25 5.546875 37.257812 5.542969 C 37.265625 5.535156 37.273438 5.53125 37.28125 5.527344 C 37.289062 5.523438 37.296875 5.519531 37.300781 5.515625 C 37.308594 5.511719 37.316406 5.507812 37.324219 5.503906 C 37.332031 5.5 37.339844 5.496094 37.347656 5.492188 C 37.355469 5.488281 37.363281 5.484375 37.371094 5.480469 C 37.378906 5.476562 37.386719 5.472656 37.394531 5.46875 C 37.402344 5.464844 37.410156 5.460938 37.417969 5.453125 C 37.425781 5.453125 37.429688 5.449219 37.4375 5.445312 C 37.445312 5.441406 37.453125 5.4375 37.460938 5.433594 C 37.46875 5.429688 37.476562 5.425781 37.484375 5.421875 C 37.492188 5.417969 37.5 5.414062 37.507812 5.410156 C 37.515625 5.40625 37.523438 5.402344 37.53125 5.398438 C 37.539062 5.394531 37.546875 5.390625 37.554688 5.386719 C 37.5625 5.382812 37.570312 5.378906 37.574219 5.378906 C 37.582031 5.375 37.59375 5.371094 37.601562 5.367188 C 37.605469 5.363281 37.613281 5.359375 37.621094 5.355469 C 37.628906 5.351562 37.636719 5.347656 37.644531 5.34375 C 37.652344 5.34375 37.660156 5.339844 37.667969 5.335938 C 37.675781 5.332031 37.683594 5.328125 37.691406 5.324219 C 37.699219 5.320312 37.707031 5.320312 37.714844 5.316406 C 37.722656 5.3125 37.730469 5.308594 37.738281 5.304688 C 37.746094 5.300781 37.753906 5.300781 37.761719 5.296875 C 37.769531 5.292969 37.777344 5.289062 37.785156 5.285156 C 37.792969 5.285156 37.800781 5.28125 37.808594 5.277344 C 37.816406 5.273438 37.824219 5.273438 37.832031 5.269531 C 37.839844 5.265625 37.847656 5.261719 37.855469 5.261719 C 37.863281 5.257812 37.871094 5.253906 37.878906 5.25 C 37.886719 5.246094 37.894531 5.246094 37.902344 5.242188 C 37.910156 5.238281 37.917969 5.238281 37.925781 5.234375 C 37.933594 5.230469 37.941406 5.226562 37.949219 5.226562 C 37.957031 5.222656 37.964844 5.21875 37.972656 5.21875 C 37.980469 5.214844 37.988281 5.210938 37.996094 5.210938 C 38.003906 5.207031 38.011719 5.203125 38.019531 5.203125 C 38.027344 5.199219 38.035156 5.195312 38.042969 5.195312 C 38.050781 5.191406 38.058594 5.1875 38.066406 5.1875 C 38.074219 5.183594 38.082031 5.179688 38.089844 5.179688 C 38.097656 5.175781 38.105469 5.175781 38.113281 5.171875 C 38.121094 5.167969 38.128906 5.167969 38.136719 5.164062 C 38.144531 5.164062 38.152344 5.160156 38.160156 5.15625 C 38.167969 5.15625 38.175781 5.152344 38.183594 5.152344 C 38.191406 5.148438 38.199219 5.148438 38.210938 5.144531 C 38.21875 5.140625 38.222656 5.140625 38.230469 5.136719 C 38.242188 5.136719 38.25 5.132812 38.257812 5.132812 C 38.265625 5.128906 38.273438 5.128906 38.28125 5.125 C 38.289062 5.125 38.296875 5.121094 38.304688 5.121094 C 38.3125 5.117188 38.320312 5.117188 38.328125 5.113281 C 38.335938 5.113281 38.34375 5.109375 38.351562 5.109375 C 38.359375 5.105469 38.367188 5.105469 38.375 5.101562 C 38.382812 5.101562 38.390625 5.097656 38.398438 5.097656 C 38.40625 5.09375 38.414062 5.09375 38.421875 5.09375 C 38.429688 5.089844 38.441406 5.089844 38.449219 5.085938 C 38.457031 5.085938 38.464844 5.082031 38.472656 5.082031 C 38.480469 5.082031 38.488281 5.078125 38.496094 5.078125 C 38.503906 5.074219 38.511719 5.074219 38.519531 5.074219 C 38.527344 5.070312 38.535156 5.070312 38.542969 5.066406 C 38.550781 5.066406 38.558594 5.066406 38.566406 5.0625 C 38.574219 5.0625 38.582031 5.0625 38.589844 5.058594 C 38.597656 5.058594 38.605469 5.058594 38.617188 5.054688 C 38.625 5.054688 38.632812 5.054688 38.640625 5.050781 C 38.648438 5.050781 38.65625 5.050781 38.664062 5.046875 C 38.671875 5.046875 38.679688 5.046875 38.6875 5.046875 C 38.695312 5.042969 38.703125 5.042969 38.710938 5.042969 C 38.71875 5.039062 38.726562 5.039062 38.734375 5.039062 C 38.742188 5.039062 38.75 5.035156 38.761719 5.035156 C 38.769531 5.035156 38.777344 5.035156 38.785156 5.03125 C 38.792969 5.03125 38.800781 5.03125 38.808594 5.03125 C 38.816406 5.027344 38.824219 5.027344 38.832031 5.027344 C 38.839844 5.027344 38.847656 5.027344 38.855469 5.023438 C 38.863281 5.023438 38.871094 5.023438 38.878906 5.023438 C 38.886719 5.023438 38.898438 5.023438 38.90625 5.019531 C 38.914062 5.019531 38.921875 5.019531 38.929688 5.019531 C 38.9375 5.019531 38.945312 5.019531 38.953125 5.015625 C 38.960938 5.015625 38.96875 5.015625 38.976562 5.015625 C 38.984375 5.015625 38.992188 5.015625 39 5.015625 C 39.007812 5.015625 39.015625 5.011719 39.023438 5.011719 C 39.035156 5.011719 39.042969 5.011719 39.050781 5.011719 C 39.058594 5.011719 39.066406 5.011719 39.074219 5.011719 C 39.082031 5.011719 39.089844 5.011719 39.097656 5.011719 C 39.105469 5.011719 39.113281 5.011719 39.121094 5.011719 C 39.128906 5.011719 39.136719 5.007812 39.144531 5.007812 C 39.152344 5.007812 39.164062 5.007812 39.171875 5.007812 C 39.179688 5.007812 39.1875 5.007812 39.195312 5.007812 C 39.203125 5.007812 39.210938 5.007812 39.21875 5.007812 C 39.226562 5.007812 39.234375 5.007812 39.242188 5.007812 C 39.25 5.007812 39.257812 5.011719 39.265625 5.011719 C 39.273438 5.011719 39.28125 5.011719 39.289062 5.011719 C 39.300781 5.011719 39.308594 5.011719 39.316406 5.011719 C 39.324219 5.011719 39.332031 5.011719 39.339844 5.011719 C 39.347656 5.011719 39.355469 5.011719 39.363281 5.011719 C 39.371094 5.011719 39.378906 5.015625 39.386719 5.015625 C 39.394531 5.015625 39.402344 5.015625 39.410156 5.015625 C 39.417969 5.015625 39.425781 5.015625 39.433594 5.015625 C 39.445312 5.019531 39.453125 5.019531 39.460938 5.019531 C 39.46875 5.019531 39.476562 5.019531 39.484375 5.019531 C 39.492188 5.023438 39.5 5.023438 39.507812 5.023438 C 39.511719 5.023438 39.511719 5.023438 39.515625 5.023438 C 39.539062 5.039062 39.566406 5.050781 39.59375 5.058594 C 39.792969 5.128906 39.988281 5.210938 40.175781 5.300781 C 40.328125 5.375 40.503906 5.363281 40.648438 5.273438 L 41.613281 4.675781 C 41.785156 4.570312 41.992188 4.523438 42.191406 4.546875 C 42.394531 4.570312 42.585938 4.660156 42.730469 4.804688 L 43.640625 5.71875 C 43.785156 5.863281 43.878906 6.050781 43.902344 6.253906 C 43.925781 6.457031 43.878906 6.664062 43.769531 6.835938 L 43.171875 7.796875 C 43.082031 7.941406 43.074219 8.117188 43.144531 8.273438 C 43.234375 8.460938 43.316406 8.65625 43.386719 8.851562 C 43.441406 9.011719 43.574219 9.128906 43.738281 9.167969 L 44.84375 9.425781 C 45.042969 9.46875 45.21875 9.582031 45.347656 9.742188 C 45.472656 9.902344 45.542969 10.101562 45.542969 10.304688 L 45.542969 10.949219 C 45.542969 10.96875 45.539062 10.984375 45.535156 11 " fill-opacity="1" fill-rule="nonzero"/></g><g clip-path="url(#8075aa8b2c)"><path fill="#ffd455" d="M 39.28125 4.714844 C 39.277344 4.714844 39.277344 4.714844 39.273438 4.714844 C 39.265625 4.714844 39.257812 4.714844 39.253906 4.714844 C 39.242188 4.714844 39.234375 4.714844 39.222656 4.714844 C 39.214844 4.714844 39.207031 4.714844 39.203125 4.714844 C 39.191406 4.714844 39.183594 4.714844 39.171875 4.714844 C 39.164062 4.714844 39.160156 4.714844 39.152344 4.714844 C 39.140625 4.714844 39.132812 4.714844 39.121094 4.714844 C 39.113281 4.714844 39.109375 4.714844 39.101562 4.714844 C 39.089844 4.71875 39.078125 4.71875 39.070312 4.71875 C 39.0625 4.71875 39.058594 4.71875 39.050781 4.71875 C 39.039062 4.71875 39.027344 4.71875 39.015625 4.71875 C 39.011719 4.71875 39.007812 4.71875 39 4.71875 C 38.988281 4.722656 38.972656 4.722656 38.957031 4.722656 C 38.957031 4.722656 38.953125 4.722656 38.953125 4.722656 C 38.933594 4.722656 38.917969 4.726562 38.898438 4.726562 C 38.882812 4.726562 38.867188 4.730469 38.847656 4.730469 C 38.84375 4.730469 38.839844 4.730469 38.835938 4.730469 C 38.824219 4.734375 38.8125 4.734375 38.800781 4.734375 C 38.792969 4.734375 38.789062 4.738281 38.785156 4.738281 C 38.773438 4.738281 38.761719 4.738281 38.75 4.742188 C 38.742188 4.742188 38.738281 4.742188 38.730469 4.742188 C 38.722656 4.746094 38.710938 4.746094 38.699219 4.746094 C 38.691406 4.746094 38.6875 4.75 38.679688 4.75 C 38.671875 4.75 38.660156 4.753906 38.648438 4.753906 C 38.640625 4.753906 38.636719 4.753906 38.628906 4.757812 C 38.621094 4.757812 38.609375 4.757812 38.597656 4.761719 C 38.59375 4.761719 38.585938 4.761719 38.582031 4.765625 C 38.570312 4.765625 38.558594 4.769531 38.546875 4.769531 C 38.539062 4.769531 38.535156 4.769531 38.53125 4.773438 C 38.519531 4.773438 38.507812 4.777344 38.492188 4.777344 C 38.488281 4.78125 38.484375 4.78125 38.480469 4.78125 C 38.464844 4.785156 38.453125 4.785156 38.4375 4.789062 C 38.433594 4.789062 38.433594 4.789062 38.429688 4.789062 C 38.398438 4.796875 38.363281 4.804688 38.328125 4.8125 C 38.328125 4.8125 38.324219 4.8125 38.320312 4.8125 C 38.308594 4.816406 38.292969 4.820312 38.28125 4.824219 C 38.273438 4.824219 38.269531 4.824219 38.265625 4.828125 C 38.253906 4.828125 38.242188 4.832031 38.230469 4.835938 C 38.222656 4.835938 38.21875 4.835938 38.214844 4.839844 C 38.203125 4.84375 38.191406 4.84375 38.179688 4.847656 C 38.175781 4.847656 38.167969 4.851562 38.164062 4.851562 C 38.152344 4.855469 38.140625 4.859375 38.128906 4.859375 C 38.125 4.863281 38.117188 4.863281 38.113281 4.867188 C 38.101562 4.867188 38.089844 4.871094 38.082031 4.875 C 38.074219 4.875 38.070312 4.878906 38.0625 4.878906 C 38.050781 4.882812 38.042969 4.886719 38.03125 4.890625 C 38.023438 4.890625 38.019531 4.894531 38.015625 4.894531 C 38.003906 4.898438 37.992188 4.902344 37.980469 4.90625 C 37.976562 4.90625 37.96875 4.910156 37.964844 4.910156 C 37.953125 4.914062 37.9375 4.917969 37.925781 4.921875 C 37.921875 4.925781 37.917969 4.925781 37.917969 4.925781 C 37.882812 4.9375 37.851562 4.949219 37.816406 4.960938 C 37.816406 4.960938 37.8125 4.960938 37.8125 4.964844 C 37.796875 4.96875 37.78125 4.972656 37.769531 4.976562 C 37.765625 4.980469 37.757812 4.980469 37.753906 4.984375 C 37.742188 4.988281 37.730469 4.992188 37.71875 4.996094 C 37.714844 5 37.710938 5 37.703125 5.003906 C 37.691406 5.007812 37.683594 5.011719 37.671875 5.015625 C 37.664062 5.019531 37.660156 5.019531 37.652344 5.023438 C 37.644531 5.027344 37.632812 5.03125 37.625 5.035156 C 37.617188 5.039062 37.609375 5.039062 37.605469 5.042969 C 37.59375 5.046875 37.585938 5.050781 37.574219 5.054688 C 37.570312 5.058594 37.5625 5.0625 37.558594 5.0625 C 37.546875 5.066406 37.535156 5.074219 37.527344 5.078125 C 37.519531 5.078125 37.515625 5.082031 37.507812 5.085938 C 37.496094 5.089844 37.488281 5.09375 37.476562 5.097656 C 37.472656 5.101562 37.464844 5.105469 37.460938 5.105469 C 37.449219 5.113281 37.4375 5.117188 37.425781 5.121094 C 37.421875 5.125 37.417969 5.125 37.414062 5.128906 C 37.398438 5.136719 37.382812 5.144531 37.371094 5.148438 L 37.367188 5.152344 C 37.351562 5.160156 37.332031 5.167969 37.316406 5.175781 C 37.316406 5.175781 37.3125 5.179688 37.308594 5.179688 C 37.296875 5.1875 37.285156 5.191406 37.269531 5.199219 C 37.265625 5.203125 37.261719 5.203125 37.253906 5.207031 C 37.246094 5.214844 37.234375 5.21875 37.222656 5.222656 C 37.21875 5.226562 37.210938 5.230469 37.207031 5.234375 C 37.195312 5.238281 37.1875 5.246094 37.175781 5.25 C 37.171875 5.253906 37.164062 5.257812 37.160156 5.261719 C 37.148438 5.265625 37.140625 5.269531 37.128906 5.277344 C 37.125 5.277344 37.117188 5.28125 37.109375 5.285156 C 37.101562 5.292969 37.09375 5.296875 37.082031 5.300781 C 37.078125 5.304688 37.070312 5.308594 37.066406 5.3125 C 37.054688 5.320312 37.046875 5.324219 37.039062 5.328125 C 37.03125 5.332031 37.023438 5.335938 37.019531 5.339844 C 37.007812 5.347656 37 5.351562 36.992188 5.359375 C 36.984375 5.359375 36.976562 5.363281 36.972656 5.367188 C 36.960938 5.375 36.953125 5.378906 36.941406 5.386719 C 36.9375 5.390625 36.933594 5.394531 36.925781 5.398438 C 36.914062 5.402344 36.90625 5.410156 36.894531 5.417969 C 36.890625 5.421875 36.886719 5.421875 36.878906 5.425781 C 36.867188 5.4375 36.851562 5.445312 36.835938 5.457031 C 36.832031 5.457031 36.828125 5.460938 36.828125 5.460938 C 36.816406 5.46875 36.800781 5.476562 36.789062 5.484375 C 36.785156 5.488281 36.78125 5.492188 36.773438 5.496094 C 36.765625 5.503906 36.753906 5.511719 36.746094 5.515625 C 36.738281 5.519531 36.734375 5.523438 36.726562 5.53125 C 36.71875 5.535156 36.710938 5.542969 36.699219 5.546875 C 36.695312 5.550781 36.6875 5.558594 36.683594 5.5625 C 36.671875 5.566406 36.664062 5.574219 36.65625 5.578125 C 36.648438 5.585938 36.644531 5.589844 36.636719 5.59375 C 36.628906 5.601562 36.621094 5.605469 36.613281 5.613281 C 36.605469 5.617188 36.597656 5.621094 36.59375 5.625 C 36.585938 5.632812 36.574219 5.640625 36.566406 5.644531 C 36.5625 5.652344 36.554688 5.65625 36.546875 5.660156 C 36.539062 5.667969 36.53125 5.671875 36.523438 5.679688 C 36.515625 5.683594 36.511719 5.6875 36.503906 5.695312 C 36.496094 5.699219 36.488281 5.707031 36.480469 5.714844 C 36.472656 5.71875 36.46875 5.722656 36.460938 5.730469 C 36.453125 5.738281 36.441406 5.742188 36.433594 5.75 C 36.429688 5.753906 36.421875 5.757812 36.417969 5.765625 C 36.402344 5.777344 36.390625 5.789062 36.375 5.800781 C 36.320312 5.847656 36.265625 5.894531 36.210938 5.945312 C 35.683594 6.421875 35.25 7.003906 34.910156 7.683594 C 34.898438 7.710938 34.886719 7.734375 34.875 7.761719 C 34.871094 7.769531 34.867188 7.777344 34.863281 7.785156 C 34.855469 7.800781 34.847656 7.820312 34.839844 7.835938 C 34.835938 7.847656 34.828125 7.855469 34.824219 7.867188 C 34.816406 7.882812 34.8125 7.898438 34.804688 7.910156 C 34.800781 7.921875 34.792969 7.9375 34.789062 7.949219 C 34.78125 7.960938 34.777344 7.976562 34.769531 7.988281 C 34.765625 8 34.761719 8.011719 34.753906 8.027344 C 34.75 8.039062 34.742188 8.050781 34.738281 8.066406 C 34.734375 8.078125 34.726562 8.09375 34.722656 8.105469 C 34.714844 8.117188 34.710938 8.128906 34.707031 8.144531 C 34.699219 8.15625 34.695312 8.171875 34.6875 8.1875 C 34.683594 8.199219 34.679688 8.210938 34.675781 8.222656 C 34.667969 8.234375 34.664062 8.25 34.660156 8.265625 C 34.652344 8.277344 34.648438 8.289062 34.644531 8.300781 C 34.640625 8.316406 34.632812 8.332031 34.628906 8.347656 C 34.625 8.355469 34.621094 8.367188 34.617188 8.378906 C 34.609375 8.394531 34.605469 8.410156 34.597656 8.425781 C 34.59375 8.4375 34.589844 8.449219 34.585938 8.460938 C 34.582031 8.476562 34.578125 8.492188 34.570312 8.507812 C 34.566406 8.519531 34.5625 8.527344 34.558594 8.539062 C 34.554688 8.554688 34.550781 8.574219 34.542969 8.589844 C 34.539062 8.597656 34.539062 8.609375 34.535156 8.621094 C 34.527344 8.636719 34.523438 8.652344 34.519531 8.671875 C 34.515625 8.679688 34.511719 8.691406 34.507812 8.703125 C 34.503906 8.71875 34.5 8.734375 34.492188 8.753906 C 34.488281 8.761719 34.488281 8.773438 34.484375 8.785156 C 34.480469 8.800781 34.472656 8.816406 34.46875 8.835938 C 34.464844 8.847656 34.464844 8.855469 34.460938 8.867188 C 34.457031 8.882812 34.449219 8.902344 34.445312 8.917969 C 34.441406 8.929688 34.441406 8.9375 34.4375 8.949219 C 34.433594 8.964844 34.429688 8.984375 34.425781 9 C 34.421875 9.011719 34.417969 9.019531 34.417969 9.03125 C 34.410156 9.050781 34.40625 9.066406 34.402344 9.085938 C 34.398438 9.09375 34.398438 9.105469 34.394531 9.113281 C 34.390625 9.132812 34.386719 9.152344 34.382812 9.167969 C 34.378906 9.179688 34.378906 9.1875 34.375 9.199219 C 34.371094 9.21875 34.367188 9.234375 34.363281 9.253906 C 34.359375 9.261719 34.359375 9.273438 34.355469 9.285156 C 34.351562 9.300781 34.347656 9.320312 34.34375 9.335938 C 34.34375 9.347656 34.339844 9.359375 34.339844 9.367188 C 34.335938 9.386719 34.332031 9.402344 34.328125 9.421875 C 34.324219 9.433594 34.324219 9.445312 34.320312 9.453125 C 34.316406 9.472656 34.316406 9.488281 34.3125 9.507812 C 34.308594 9.519531 34.308594 9.53125 34.304688 9.539062 C 34.300781 9.558594 34.300781 9.574219 34.296875 9.59375 C 34.292969 9.605469 34.292969 9.617188 34.289062 9.628906 C 34.289062 9.644531 34.285156 9.660156 34.28125 9.679688 C 34.28125 9.691406 34.277344 9.703125 34.277344 9.714844 C 34.273438 9.730469 34.269531 9.746094 34.269531 9.765625 C 34.265625 9.777344 34.265625 9.789062 34.261719 9.800781 C 34.261719 9.816406 34.257812 9.835938 34.253906 9.851562 C 34.253906 9.863281 34.253906 9.875 34.25 9.890625 C 34.25 9.90625 34.246094 9.921875 34.246094 9.9375 C 34.242188 9.949219 34.242188 9.964844 34.238281 9.976562 C 34.238281 9.992188 34.234375 10.007812 34.234375 10.023438 C 34.230469 10.039062 34.230469 10.050781 34.230469 10.066406 C 34.226562 10.082031 34.226562 10.097656 34.222656 10.113281 C 34.222656 10.128906 34.21875 10.140625 34.21875 10.15625 C 34.21875 10.171875 34.214844 10.1875 34.214844 10.199219 C 34.214844 10.214844 34.210938 10.230469 34.210938 10.246094 C 34.210938 10.261719 34.207031 10.273438 34.207031 10.289062 C 34.207031 10.304688 34.203125 10.316406 34.203125 10.332031 C 34.160156 10.546875 34.136719 10.769531 34.136719 10.992188 C 34.136719 11.390625 34.207031 11.78125 34.34375 12.148438 C 34.472656 12.507812 34.664062 12.835938 34.90625 13.132812 C 35.121094 13.390625 35.375 13.617188 35.65625 13.800781 L 35.652344 13.800781 C 35.617188 13.792969 35.582031 13.785156 35.546875 13.773438 C 35.539062 13.773438 35.53125 13.769531 35.523438 13.769531 C 35.488281 13.757812 35.453125 13.75 35.421875 13.738281 L 35.417969 13.738281 C 35.382812 13.730469 35.347656 13.71875 35.3125 13.707031 C 35.304688 13.707031 35.296875 13.703125 35.289062 13.703125 C 35.257812 13.691406 35.222656 13.679688 35.1875 13.667969 L 35.183594 13.667969 C 35.152344 13.65625 35.117188 13.644531 35.082031 13.636719 C 35.078125 13.632812 35.070312 13.628906 35.0625 13.628906 C 35.027344 13.617188 34.996094 13.605469 34.960938 13.59375 C 34.957031 13.589844 34.957031 13.589844 34.953125 13.589844 C 34.921875 13.578125 34.890625 13.566406 34.859375 13.554688 C 34.851562 13.550781 34.847656 13.550781 34.839844 13.546875 C 34.804688 13.535156 34.773438 13.519531 34.742188 13.507812 C 34.738281 13.503906 34.734375 13.503906 34.730469 13.503906 C 34.699219 13.488281 34.667969 13.476562 34.636719 13.464844 L 34.621094 13.457031 C 34.589844 13.445312 34.558594 13.429688 34.523438 13.414062 C 34.519531 13.414062 34.515625 13.410156 34.511719 13.410156 C 34.480469 13.394531 34.453125 13.382812 34.421875 13.367188 C 34.417969 13.367188 34.414062 13.363281 34.410156 13.363281 C 34.378906 13.347656 34.347656 13.332031 34.316406 13.316406 C 34.308594 13.3125 34.304688 13.3125 34.296875 13.308594 C 34.269531 13.292969 34.242188 13.277344 34.210938 13.265625 C 34.207031 13.261719 34.207031 13.261719 34.203125 13.257812 C 34.171875 13.242188 34.140625 13.226562 34.109375 13.210938 C 34.105469 13.207031 34.097656 13.203125 34.09375 13.199219 C 34.0625 13.183594 34.035156 13.167969 34.003906 13.152344 L 34 13.148438 C 33.96875 13.132812 33.941406 13.113281 33.910156 13.097656 C 33.90625 13.09375 33.898438 13.089844 33.894531 13.085938 C 33.832031 13.050781 33.773438 13.011719 33.714844 12.976562 C 33.710938 12.972656 33.707031 12.96875 33.699219 12.964844 C 33.671875 12.945312 33.640625 12.925781 33.613281 12.90625 C 33.585938 12.886719 33.554688 12.867188 33.527344 12.847656 C 33.523438 12.84375 33.519531 12.839844 33.511719 12.835938 C 33.484375 12.816406 33.457031 12.796875 33.429688 12.777344 C 33.425781 12.773438 33.425781 12.773438 33.421875 12.769531 C 33.398438 12.753906 33.371094 12.734375 33.347656 12.714844 C 33.34375 12.710938 33.335938 12.707031 33.332031 12.703125 C 33.304688 12.679688 33.277344 12.660156 33.253906 12.640625 C 33.25 12.636719 33.246094 12.632812 33.242188 12.628906 C 33.21875 12.609375 33.195312 12.59375 33.171875 12.574219 C 33.167969 12.570312 33.164062 12.5625 33.15625 12.558594 C 33.132812 12.539062 33.105469 12.515625 33.082031 12.496094 C 33.078125 12.492188 33.074219 12.488281 33.066406 12.484375 C 33.046875 12.464844 33.023438 12.445312 33.003906 12.421875 C 33 12.417969 32.996094 12.417969 32.988281 12.414062 C 32.964844 12.390625 32.941406 12.367188 32.917969 12.34375 C 32.914062 12.339844 32.90625 12.335938 32.902344 12.332031 C 32.882812 12.308594 32.859375 12.289062 32.839844 12.269531 C 32.835938 12.265625 32.832031 12.261719 32.828125 12.257812 C 32.804688 12.234375 32.785156 12.210938 32.761719 12.1875 C 32.753906 12.183594 32.75 12.175781 32.746094 12.171875 C 32.722656 12.148438 32.703125 12.125 32.683594 12.105469 C 32.679688 12.101562 32.679688 12.101562 32.675781 12.097656 C 32.652344 12.074219 32.632812 12.046875 32.609375 12.023438 C 32.605469 12.019531 32.601562 12.011719 32.59375 12.007812 C 32.574219 11.980469 32.550781 11.957031 32.53125 11.929688 C 32.519531 11.917969 32.507812 11.902344 32.496094 11.890625 C 32.492188 11.886719 32.488281 11.878906 32.484375 11.875 C 32.476562 11.867188 32.46875 11.855469 32.460938 11.847656 C 32.457031 11.839844 32.453125 11.835938 32.449219 11.832031 C 32.441406 11.820312 32.433594 11.8125 32.429688 11.804688 C 32.421875 11.800781 32.417969 11.792969 32.414062 11.785156 C 32.40625 11.777344 32.402344 11.769531 32.394531 11.761719 C 32.390625 11.757812 32.386719 11.75 32.382812 11.742188 C 32.375 11.734375 32.371094 11.726562 32.363281 11.71875 C 32.359375 11.714844 32.355469 11.707031 32.347656 11.699219 C 32.34375 11.695312 32.335938 11.6875 32.332031 11.679688 C 32.328125 11.671875 32.320312 11.664062 32.316406 11.65625 C 32.3125 11.648438 32.304688 11.644531 32.300781 11.636719 C 32.296875 11.628906 32.292969 11.621094 32.285156 11.613281 C 32.28125 11.605469 32.277344 11.597656 32.269531 11.589844 C 32.265625 11.585938 32.261719 11.578125 32.257812 11.570312 C 32.25 11.5625 32.246094 11.554688 32.238281 11.546875 C 32.234375 11.542969 32.230469 11.535156 32.226562 11.527344 C 32.222656 11.519531 32.214844 11.511719 32.210938 11.503906 C 32.207031 11.496094 32.203125 11.492188 32.199219 11.484375 C 32.191406 11.476562 32.1875 11.46875 32.183594 11.460938 C 32.175781 11.453125 32.171875 11.449219 32.167969 11.441406 C 32.164062 11.433594 32.160156 11.425781 32.152344 11.417969 C 32.148438 11.410156 32.144531 11.402344 32.140625 11.394531 C 32.136719 11.386719 32.132812 11.378906 32.125 11.371094 C 32.121094 11.367188 32.117188 11.359375 32.113281 11.351562 C 32.109375 11.34375 32.105469 11.335938 32.097656 11.328125 C 32.09375 11.320312 32.089844 11.316406 32.085938 11.308594 C 32.082031 11.300781 32.078125 11.292969 32.074219 11.285156 C 32.070312 11.277344 32.066406 11.269531 32.0625 11.261719 C 32.054688 11.253906 32.050781 11.246094 32.046875 11.238281 C 32.042969 11.234375 32.039062 11.226562 32.035156 11.21875 C 32.03125 11.210938 32.027344 11.203125 32.023438 11.195312 C 32.019531 11.1875 32.015625 11.179688 32.011719 11.171875 C 32.007812 11.164062 32 11.15625 31.996094 11.148438 C 31.992188 11.140625 31.988281 11.136719 31.984375 11.128906 C 31.980469 11.121094 31.976562 11.113281 31.972656 11.105469 C 31.96875 11.097656 31.964844 11.089844 31.960938 11.082031 C 31.957031 11.074219 31.953125 11.066406 31.949219 11.058594 C 31.945312 11.050781 31.941406 11.042969 31.9375 11.039062 C 31.933594 11.03125 31.929688 11.019531 31.925781 11.011719 C 31.921875 11.007812 31.917969 11 31.917969 10.992188 C 31.914062 10.984375 31.910156 10.976562 31.90625 10.96875 C 31.902344 10.960938 31.898438 10.953125 31.894531 10.945312 C 31.890625 10.9375 31.886719 10.929688 31.882812 10.921875 C 31.878906 10.914062 31.875 10.90625 31.871094 10.902344 C 31.867188 10.890625 31.867188 10.882812 31.863281 10.875 C 31.859375 10.867188 31.855469 10.863281 31.851562 10.855469 C 31.847656 10.847656 31.84375 10.839844 31.839844 10.828125 C 31.839844 10.824219 31.835938 10.816406 31.832031 10.808594 C 31.828125 10.800781 31.824219 10.792969 31.820312 10.785156 C 31.816406 10.777344 31.816406 10.769531 31.8125 10.761719 C 31.808594 10.753906 31.804688 10.746094 31.800781 10.738281 C 31.800781 10.730469 31.796875 10.722656 31.792969 10.714844 C 31.789062 10.707031 31.785156 10.699219 31.78125 10.691406 C 31.78125 10.683594 31.777344 10.675781 31.773438 10.667969 C 31.773438 10.660156 31.769531 10.652344 31.765625 10.644531 C 31.761719 10.636719 31.757812 10.628906 31.757812 10.621094 C 31.753906 10.613281 31.75 10.605469 31.746094 10.597656 C 31.746094 10.589844 31.742188 10.582031 31.738281 10.574219 C 31.738281 10.566406 31.734375 10.558594 31.730469 10.550781 C 31.726562 10.542969 31.726562 10.535156 31.722656 10.527344 C 31.71875 10.519531 31.71875 10.511719 31.714844 10.503906 C 31.710938 10.496094 31.710938 10.488281 31.707031 10.480469 C 31.703125 10.472656 31.703125 10.464844 31.699219 10.457031 C 31.695312 10.449219 31.695312 10.441406 31.691406 10.433594 C 31.6875 10.425781 31.6875 10.417969 31.683594 10.410156 C 31.679688 10.402344 31.679688 10.394531 31.675781 10.386719 C 31.675781 10.378906 31.671875 10.371094 31.667969 10.363281 C 31.667969 10.355469 31.664062 10.347656 31.664062 10.339844 C 31.660156 10.332031 31.65625 10.324219 31.65625 10.316406 C 31.652344 10.308594 31.652344 10.300781 31.648438 10.292969 C 31.648438 10.285156 31.644531 10.277344 31.640625 10.265625 C 31.640625 10.261719 31.636719 10.253906 31.636719 10.246094 C 31.632812 10.238281 31.632812 10.226562 31.628906 10.21875 C 31.628906 10.210938 31.625 10.207031 31.625 10.199219 C 31.621094 10.1875 31.621094 10.179688 31.617188 10.171875 C 31.617188 10.164062 31.613281 10.15625 31.613281 10.152344 C 31.609375 10.140625 31.609375 10.132812 31.605469 10.125 C 31.605469 10.117188 31.601562 10.109375 31.601562 10.101562 C 31.601562 10.09375 31.597656 10.085938 31.597656 10.078125 C 31.59375 10.070312 31.59375 10.0625 31.589844 10.054688 C 31.589844 10.046875 31.585938 10.039062 31.585938 10.027344 C 31.585938 10.023438 31.582031 10.015625 31.582031 10.007812 C 31.578125 10 31.578125 9.988281 31.578125 9.980469 C 31.574219 9.972656 31.574219 9.964844 31.574219 9.960938 C 31.570312 9.949219 31.570312 9.941406 31.566406 9.933594 C 31.566406 9.925781 31.566406 9.917969 31.5625 9.910156 C 31.5625 9.902344 31.5625 9.894531 31.558594 9.886719 C 31.558594 9.878906 31.558594 9.871094 31.554688 9.863281 C 31.554688 9.855469 31.554688 9.847656 31.550781 9.835938 C 31.550781 9.828125 31.550781 9.824219 31.546875 9.816406 C 31.546875 9.808594 31.546875 9.796875 31.546875 9.789062 C 31.542969 9.78125 31.542969 9.773438 31.542969 9.769531 C 31.539062 9.757812 31.539062 9.75 31.539062 9.742188 C 31.539062 9.734375 31.535156 9.726562 31.535156 9.71875 C 31.535156 9.710938 31.535156 9.703125 31.53125 9.691406 C 31.53125 9.683594 31.53125 9.679688 31.53125 9.671875 C 31.53125 9.664062 31.527344 9.652344 31.527344 9.644531 C 31.527344 9.636719 31.527344 9.628906 31.527344 9.625 C 31.523438 9.613281 31.523438 9.605469 31.523438 9.597656 C 31.523438 9.589844 31.523438 9.582031 31.523438 9.574219 C 31.519531 9.566406 31.519531 9.558594 31.519531 9.546875 C 31.519531 9.539062 31.519531 9.535156 31.519531 9.527344 C 31.519531 9.519531 31.515625 9.507812 31.515625 9.5 C 31.515625 9.492188 31.515625 9.484375 31.515625 9.480469 C 31.515625 9.46875 31.515625 9.460938 31.515625 9.453125 C 31.515625 9.445312 31.515625 9.4375 31.511719 9.429688 C 31.511719 9.421875 31.511719 9.414062 31.511719 9.402344 C 31.511719 9.394531 31.511719 9.390625 31.511719 9.382812 C 31.511719 9.375 31.511719 9.363281 31.511719 9.355469 C 31.511719 9.347656 31.511719 9.339844 31.511719 9.335938 C 31.511719 9.324219 31.511719 9.316406 31.511719 9.304688 C 31.511719 9.300781 31.511719 9.292969 31.511719 9.285156 C 31.511719 9.277344 31.511719 9.265625 31.511719 9.257812 C 31.511719 9.25 31.511719 9.246094 31.511719 9.238281 C 31.511719 9.226562 31.511719 9.21875 31.511719 9.210938 C 31.511719 9.203125 31.511719 9.195312 31.511719 9.191406 C 31.511719 9.179688 31.511719 9.171875 31.511719 9.160156 C 31.515625 9.152344 31.515625 9.148438 31.515625 9.140625 C 31.515625 9.132812 31.515625 9.121094 31.515625 9.113281 C 31.515625 9.105469 31.515625 9.097656 31.515625 9.09375 C 31.515625 9.082031 31.519531 9.070312 31.519531 9.0625 C 31.519531 9.054688 31.519531 9.050781 31.519531 9.046875 C 31.519531 9.03125 31.523438 9.019531 31.523438 9.007812 C 31.523438 9.003906 31.523438 9 31.523438 8.996094 C 31.558594 8.953125 31.585938 8.902344 31.605469 8.851562 C 31.675781 8.65625 31.757812 8.460938 31.84375 8.273438 C 31.917969 8.117188 31.910156 7.941406 31.820312 7.796875 L 31.222656 6.835938 C 31.113281 6.664062 31.066406 6.457031 31.089844 6.253906 C 31.113281 6.050781 31.207031 5.863281 31.347656 5.71875 L 32.261719 4.804688 C 32.40625 4.660156 32.597656 4.570312 32.796875 4.546875 C 33 4.523438 33.207031 4.570312 33.378906 4.675781 L 34.34375 5.273438 C 34.484375 5.363281 34.664062 5.375 34.816406 5.300781 C 35.003906 5.210938 35.199219 5.128906 35.394531 5.058594 C 35.554688 5.003906 35.671875 4.871094 35.710938 4.707031 L 35.96875 3.601562 C 36.015625 3.40625 36.128906 3.226562 36.289062 3.101562 C 36.445312 2.972656 36.648438 2.902344 36.851562 2.902344 L 38.140625 2.902344 C 38.34375 2.902344 38.542969 2.972656 38.703125 3.101562 C 38.863281 3.226562 38.976562 3.40625 39.023438 3.601562 L 39.28125 4.707031 C 39.28125 4.710938 39.28125 4.714844 39.28125 4.714844 " fill-opacity="1" fill-rule="nonzero"/></g><g clip-path="url(#d00b1ceecf)"><path fill="#032f6b" d="M 40.300781 12.839844 L 40.300781 12.84375 C 40.292969 12.871094 40.285156 12.902344 40.277344 12.933594 C 40.273438 12.941406 40.273438 12.945312 40.269531 12.953125 C 40.265625 12.980469 40.257812 13.003906 40.25 13.03125 C 40.25 13.035156 40.246094 13.042969 40.246094 13.046875 C 40.238281 13.074219 40.230469 13.105469 40.21875 13.132812 C 40.21875 13.140625 40.214844 13.148438 40.214844 13.15625 C 40.207031 13.179688 40.199219 13.203125 40.191406 13.230469 C 40.1875 13.234375 40.1875 13.242188 40.183594 13.246094 C 40.175781 13.277344 40.167969 13.304688 40.15625 13.332031 C 40.15625 13.339844 40.152344 13.347656 40.152344 13.351562 C 40.144531 13.378906 40.136719 13.402344 40.125 13.425781 C 40.125 13.429688 40.121094 13.4375 40.121094 13.445312 C 40.109375 13.472656 40.101562 13.5 40.089844 13.527344 C 40.085938 13.535156 40.085938 13.542969 40.082031 13.546875 C 40.074219 13.570312 40.066406 13.59375 40.058594 13.617188 C 40.054688 13.625 40.050781 13.632812 40.046875 13.640625 C 40.039062 13.667969 40.027344 13.695312 40.015625 13.722656 C 40.015625 13.726562 40.011719 13.730469 40.007812 13.738281 C 40 13.761719 39.992188 13.785156 39.980469 13.804688 C 39.976562 13.8125 39.976562 13.820312 39.972656 13.828125 C 39.960938 13.855469 39.949219 13.882812 39.9375 13.910156 C 39.933594 13.914062 39.933594 13.917969 39.929688 13.921875 C 39.921875 13.945312 39.910156 13.96875 39.898438 13.992188 C 39.894531 14 39.894531 14.007812 39.890625 14.015625 C 39.878906 14.042969 39.863281 14.070312 39.851562 14.09375 C 39.851562 14.097656 39.851562 14.101562 39.847656 14.101562 C 39.835938 14.125 39.824219 14.152344 39.8125 14.175781 C 39.808594 14.183594 39.804688 14.191406 39.800781 14.199219 C 39.789062 14.222656 39.777344 14.246094 39.765625 14.269531 C 39.765625 14.273438 39.761719 14.273438 39.761719 14.277344 C 39.75 14.304688 39.734375 14.328125 39.722656 14.355469 C 39.71875 14.359375 39.714844 14.367188 39.710938 14.375 C 39.695312 14.398438 39.683594 14.421875 39.671875 14.441406 C 39.671875 14.445312 39.667969 14.449219 39.667969 14.453125 C 39.652344 14.480469 39.636719 14.503906 39.625 14.527344 C 39.621094 14.535156 39.617188 14.542969 39.613281 14.550781 C 39.597656 14.570312 39.585938 14.589844 39.574219 14.613281 L 39.566406 14.625 C 39.550781 14.652344 39.535156 14.675781 39.519531 14.699219 C 39.515625 14.707031 39.511719 14.710938 39.507812 14.71875 C 39.496094 14.738281 39.484375 14.757812 39.46875 14.777344 C 39.46875 14.785156 39.464844 14.789062 39.460938 14.792969 C 39.445312 14.816406 39.429688 14.839844 39.414062 14.863281 C 39.410156 14.871094 39.40625 14.875 39.402344 14.882812 C 39.386719 14.902344 39.375 14.921875 39.359375 14.941406 C 39.355469 14.945312 39.351562 14.953125 39.347656 14.957031 C 39.332031 14.980469 39.316406 15.003906 39.300781 15.027344 C 39.296875 15.03125 39.292969 15.035156 39.289062 15.042969 C 39.273438 15.0625 39.261719 15.078125 39.246094 15.097656 C 39.242188 15.105469 39.238281 15.109375 39.234375 15.117188 C 39.214844 15.136719 39.199219 15.160156 39.183594 15.183594 C 39.179688 15.1875 39.175781 15.191406 39.171875 15.195312 C 39.15625 15.214844 39.140625 15.234375 39.125 15.25 C 39.121094 15.257812 39.117188 15.261719 39.113281 15.269531 C 39.09375 15.289062 39.078125 15.3125 39.058594 15.332031 C 39.054688 15.335938 39.054688 15.339844 39.050781 15.34375 C 39.035156 15.363281 39.019531 15.382812 39 15.398438 C 38.996094 15.40625 38.992188 15.410156 38.988281 15.417969 C 38.96875 15.4375 38.949219 15.460938 38.929688 15.480469 C 38.929688 15.480469 38.925781 15.484375 38.925781 15.484375 C 38.90625 15.503906 38.890625 15.523438 38.871094 15.542969 C 38.867188 15.550781 38.863281 15.554688 38.855469 15.558594 C 38.835938 15.582031 38.816406 15.601562 38.796875 15.621094 C 38.785156 15.636719 38.769531 15.648438 38.753906 15.664062 C 38.75 15.667969 38.746094 15.671875 38.742188 15.675781 C 38.734375 15.6875 38.722656 15.695312 38.714844 15.707031 C 38.707031 15.710938 38.703125 15.714844 38.695312 15.722656 C 38.6875 15.730469 38.679688 15.738281 38.671875 15.746094 C 38.664062 15.753906 38.660156 15.757812 38.652344 15.761719 C 38.644531 15.769531 38.636719 15.78125 38.628906 15.789062 C 38.621094 15.792969 38.613281 15.796875 38.609375 15.804688 C 38.601562 15.8125 38.59375 15.820312 38.582031 15.828125 C 38.578125 15.832031 38.570312 15.839844 38.566406 15.84375 C 38.558594 15.851562 38.546875 15.859375 38.539062 15.867188 C 38.535156 15.871094 38.527344 15.878906 38.519531 15.882812 C 38.511719 15.890625 38.503906 15.898438 38.496094 15.90625 C 38.488281 15.910156 38.484375 15.917969 38.476562 15.921875 C 38.46875 15.929688 38.460938 15.9375 38.449219 15.945312 C 38.445312 15.949219 38.4375 15.953125 38.433594 15.960938 C 38.421875 15.96875 38.414062 15.972656 38.40625 15.980469 C 38.398438 15.988281 38.394531 15.992188 38.386719 15.996094 C 38.378906 16.003906 38.371094 16.011719 38.359375 16.019531 C 38.355469 16.023438 38.347656 16.027344 38.339844 16.035156 C 38.332031 16.039062 38.324219 16.046875 38.316406 16.054688 C 38.308594 16.058594 38.300781 16.0625 38.296875 16.070312 C 38.285156 16.078125 38.277344 16.082031 38.269531 16.089844 C 38.261719 16.09375 38.257812 16.101562 38.25 16.105469 C 38.242188 16.109375 38.230469 16.117188 38.222656 16.125 C 38.214844 16.128906 38.210938 16.132812 38.203125 16.140625 C 38.195312 16.144531 38.1875 16.152344 38.175781 16.160156 C 38.171875 16.164062 38.164062 16.167969 38.15625 16.171875 C 38.148438 16.179688 38.140625 16.1875 38.128906 16.191406 C 38.125 16.195312 38.117188 16.203125 38.109375 16.207031 C 38.101562 16.210938 38.09375 16.21875 38.082031 16.226562 C 38.078125 16.230469 38.070312 16.234375 38.0625 16.238281 C 38.054688 16.246094 38.046875 16.25 38.035156 16.257812 C 38.027344 16.261719 38.023438 16.265625 38.015625 16.269531 C 38.007812 16.277344 37.996094 16.285156 37.988281 16.289062 C 37.980469 16.292969 37.976562 16.296875 37.96875 16.300781 C 37.960938 16.308594 37.949219 16.3125 37.941406 16.320312 C 37.933594 16.324219 37.925781 16.328125 37.921875 16.332031 C 37.910156 16.339844 37.902344 16.34375 37.890625 16.351562 C 37.886719 16.355469 37.878906 16.359375 37.871094 16.363281 C 37.863281 16.367188 37.851562 16.375 37.84375 16.378906 C 37.835938 16.382812 37.832031 16.386719 37.824219 16.390625 C 37.8125 16.398438 37.804688 16.402344 37.796875 16.410156 C 37.789062 16.414062 37.78125 16.417969 37.773438 16.421875 C 37.765625 16.425781 37.757812 16.433594 37.746094 16.4375 C 37.738281 16.441406 37.734375 16.445312 37.726562 16.449219 C 37.71875 16.453125 37.707031 16.460938 37.699219 16.464844 C 37.691406 16.46875 37.683594 16.472656 37.675781 16.476562 C 37.667969 16.480469 37.65625 16.488281 37.648438 16.492188 C 37.640625 16.496094 37.636719 16.5 37.628906 16.503906 C 37.617188 16.507812 37.609375 16.511719 37.597656 16.519531 C 37.59375 16.519531 37.585938 16.523438 37.578125 16.527344 C 37.570312 16.535156 37.558594 16.539062 37.550781 16.542969 C 37.542969 16.546875 37.535156 16.550781 37.527344 16.554688 C 37.519531 16.558594 37.507812 16.5625 37.5 16.566406 C 37.492188 16.570312 37.484375 16.574219 37.480469 16.578125 C 37.46875 16.582031 37.460938 16.585938 37.449219 16.59375 C 37.441406 16.59375 37.4375 16.597656 37.429688 16.601562 C 37.417969 16.605469 37.410156 16.609375 37.398438 16.617188 C 37.390625 16.617188 37.386719 16.621094 37.378906 16.625 C 37.367188 16.628906 37.359375 16.632812 37.347656 16.636719 C 37.339844 16.640625 37.335938 16.644531 37.328125 16.648438 C 37.316406 16.652344 37.308594 16.65625 37.296875 16.660156 C 37.289062 16.664062 37.285156 16.667969 37.277344 16.667969 L 37.246094 16.683594 C 37.238281 16.683594 37.234375 16.6875 37.226562 16.691406 C 37.214844 16.695312 37.207031 16.699219 37.195312 16.703125 C 37.1875 16.703125 37.183594 16.707031 37.175781 16.710938 C 37.164062 16.714844 37.15625 16.71875 37.144531 16.722656 C 37.136719 16.726562 37.132812 16.726562 37.125 16.730469 C 37.113281 16.734375 37.105469 16.738281 37.09375 16.742188 C 37.085938 16.742188 37.082031 16.746094 37.074219 16.75 C 37.0625 16.753906 37.050781 16.757812 37.042969 16.761719 C 37.035156 16.761719 37.027344 16.765625 37.023438 16.765625 C 37.011719 16.769531 37 16.773438 36.992188 16.777344 C 36.984375 16.78125 36.976562 16.78125 36.972656 16.785156 C 36.960938 16.789062 36.949219 16.789062 36.9375 16.792969 C 36.933594 16.796875 36.925781 16.796875 36.917969 16.800781 C 36.910156 16.804688 36.898438 16.808594 36.886719 16.8125 C 36.878906 16.8125 36.875 16.816406 36.867188 16.816406 C 36.855469 16.820312 36.847656 16.824219 36.835938 16.828125 C 36.828125 16.828125 36.820312 16.832031 36.816406 16.832031 C 36.804688 16.835938 36.792969 16.839844 36.78125 16.839844 C 36.777344 16.84375 36.769531 16.84375 36.761719 16.847656 C 36.753906 16.847656 36.742188 16.851562 36.730469 16.855469 C 36.722656 16.855469 36.71875 16.859375 36.710938 16.859375 C 36.699219 16.863281 36.691406 16.867188 36.679688 16.867188 C 36.671875 16.871094 36.664062 16.871094 36.660156 16.875 C 36.648438 16.875 36.636719 16.878906 36.625 16.882812 C 36.621094 16.882812 36.613281 16.882812 36.605469 16.886719 C 36.597656 16.886719 36.585938 16.890625 36.574219 16.894531 C 36.566406 16.894531 36.5625 16.894531 36.554688 16.898438 C 36.542969 16.898438 36.53125 16.902344 36.523438 16.902344 C 36.515625 16.90625 36.507812 16.90625 36.5 16.90625 C 36.492188 16.910156 36.480469 16.914062 36.46875 16.914062 C 36.460938 16.914062 36.457031 16.917969 36.449219 16.917969 L 36.417969 16.921875 C 36.410156 16.925781 36.402344 16.925781 36.398438 16.925781 C 36.386719 16.929688 36.375 16.929688 36.363281 16.933594 C 36.355469 16.933594 36.351562 16.933594 36.34375 16.9375 C 36.332031 16.9375 36.320312 16.9375 36.3125 16.941406 C 36.304688 16.941406 36.296875 16.941406 36.292969 16.941406 C 36.28125 16.945312 36.269531 16.945312 36.257812 16.949219 C 36.253906 16.949219 36.246094 16.949219 36.238281 16.949219 C 36.226562 16.953125 36.21875 16.953125 36.207031 16.953125 C 36.199219 16.957031 36.191406 16.957031 36.1875 16.957031 C 36.175781 16.957031 36.164062 16.957031 36.152344 16.960938 C 36.148438 16.960938 36.140625 16.960938 36.132812 16.960938 C 36.121094 16.964844 36.113281 16.964844 36.101562 16.964844 C 36.09375 16.964844 36.085938 16.964844 36.082031 16.964844 C 36.070312 16.96875 36.058594 16.96875 36.046875 16.96875 C 36.042969 16.96875 36.035156 16.96875 36.027344 16.96875 C 36.015625 16.972656 36.007812 16.972656 35.996094 16.972656 C 35.988281 16.972656 35.980469 16.972656 35.976562 16.972656 C 35.964844 16.972656 35.953125 16.976562 35.941406 16.976562 C 35.9375 16.976562 35.929688 16.976562 35.921875 16.976562 C 35.910156 16.976562 35.902344 16.976562 35.890625 16.976562 C 35.882812 16.976562 35.875 16.976562 35.871094 16.976562 C 35.859375 16.976562 35.847656 16.976562 35.835938 16.976562 C 35.832031 16.976562 35.824219 16.976562 35.816406 16.976562 C 35.804688 16.980469 35.796875 16.976562 35.785156 16.976562 L 35.765625 16.976562 C 35.753906 16.976562 35.742188 16.976562 35.730469 16.976562 C 35.726562 16.976562 35.71875 16.976562 35.710938 16.976562 C 35.699219 16.976562 35.691406 16.976562 35.679688 16.976562 C 35.671875 16.976562 35.664062 16.976562 35.660156 16.976562 L 35.65625 16.976562 C 35.585938 16.921875 35.507812 16.882812 35.421875 16.851562 C 35.230469 16.78125 35.039062 16.703125 34.851562 16.613281 C 34.578125 16.484375 34.265625 16.503906 34.011719 16.660156 L 33.003906 17.285156 C 32.773438 17.429688 32.476562 17.398438 32.28125 17.203125 L 31.351562 16.269531 L 31.328125 16.25 C 31.136719 16.058594 31.101562 15.761719 31.246094 15.527344 L 31.871094 14.523438 C 32.03125 14.269531 32.046875 13.953125 31.917969 13.679688 C 31.832031 13.496094 31.75 13.304688 31.679688 13.109375 C 31.582031 12.828125 31.347656 12.617188 31.054688 12.550781 L 29.898438 12.28125 C 29.632812 12.21875 29.449219 11.984375 29.449219 11.710938 L 29.449219 11.183594 L 29.457031 11 C 29.449219 10.984375 29.449219 10.96875 29.449219 10.949219 L 29.449219 10.304688 C 29.449219 10.101562 29.519531 9.902344 29.644531 9.742188 C 29.773438 9.582031 29.949219 9.46875 30.148438 9.425781 L 31.21875 9.175781 L 31.21875 9.179688 C 31.21875 9.183594 31.21875 9.191406 31.21875 9.195312 C 31.21875 9.207031 31.21875 9.21875 31.21875 9.226562 C 31.21875 9.234375 31.21875 9.242188 31.21875 9.25 C 31.21875 9.257812 31.21875 9.269531 31.21875 9.277344 L 31.21875 9.300781 C 31.21875 9.308594 31.21875 9.320312 31.21875 9.328125 C 31.21875 9.335938 31.21875 9.34375 31.21875 9.351562 C 31.21875 9.359375 31.21875 9.371094 31.21875 9.378906 C 31.21875 9.386719 31.21875 9.394531 31.21875 9.402344 C 31.21875 9.410156 31.21875 9.421875 31.21875 9.429688 C 31.21875 9.4375 31.21875 9.445312 31.21875 9.453125 C 31.222656 9.460938 31.222656 9.472656 31.222656 9.480469 C 31.222656 9.488281 31.222656 9.496094 31.222656 9.503906 C 31.222656 9.511719 31.222656 9.523438 31.226562 9.53125 C 31.226562 9.539062 31.226562 9.546875 31.226562 9.554688 C 31.226562 9.5625 31.226562 9.574219 31.226562 9.582031 C 31.230469 9.589844 31.230469 9.597656 31.230469 9.601562 C 31.230469 9.613281 31.230469 9.625 31.230469 9.636719 C 31.234375 9.640625 31.234375 9.648438 31.234375 9.652344 C 31.234375 9.667969 31.238281 9.679688 31.238281 9.695312 C 31.238281 9.699219 31.238281 9.699219 31.238281 9.703125 C 31.242188 9.71875 31.242188 9.738281 31.246094 9.753906 C 31.246094 9.757812 31.246094 9.761719 31.246094 9.761719 C 31.246094 9.777344 31.25 9.789062 31.25 9.804688 C 31.25 9.808594 31.253906 9.816406 31.253906 9.820312 C 31.253906 9.832031 31.257812 9.84375 31.257812 9.855469 C 31.257812 9.859375 31.257812 9.867188 31.261719 9.875 C 31.261719 9.882812 31.261719 9.894531 31.265625 9.90625 C 31.265625 9.910156 31.265625 9.917969 31.269531 9.925781 C 31.269531 9.933594 31.273438 9.945312 31.273438 9.953125 C 31.273438 9.960938 31.277344 9.96875 31.277344 9.976562 C 31.277344 9.984375 31.28125 9.996094 31.28125 10.003906 C 31.285156 10.011719 31.285156 10.019531 31.285156 10.027344 C 31.289062 10.035156 31.289062 10.046875 31.292969 10.054688 C 31.292969 10.0625 31.292969 10.070312 31.296875 10.074219 C 31.296875 10.085938 31.300781 10.097656 31.300781 10.105469 C 31.304688 10.113281 31.304688 10.121094 31.304688 10.125 C 31.308594 10.136719 31.308594 10.144531 31.3125 10.15625 C 31.3125 10.164062 31.316406 10.167969 31.316406 10.175781 C 31.320312 10.1875 31.320312 10.195312 31.324219 10.207031 C 31.324219 10.214844 31.328125 10.21875 31.328125 10.226562 C 31.332031 10.238281 31.335938 10.25 31.335938 10.257812 C 31.339844 10.265625 31.339844 10.269531 31.339844 10.277344 C 31.34375 10.289062 31.347656 10.300781 31.351562 10.316406 C 31.351562 10.320312 31.351562 10.320312 31.355469 10.324219 C 31.359375 10.339844 31.363281 10.359375 31.367188 10.375 C 31.367188 10.378906 31.367188 10.378906 31.367188 10.382812 C 31.375 10.394531 31.378906 10.410156 31.382812 10.425781 C 31.382812 10.429688 31.382812 10.433594 31.386719 10.441406 C 31.390625 10.449219 31.394531 10.460938 31.394531 10.472656 C 31.398438 10.480469 31.398438 10.484375 31.402344 10.492188 C 31.40625 10.503906 31.410156 10.511719 31.410156 10.523438 C 31.414062 10.527344 31.414062 10.535156 31.417969 10.542969 C 31.421875 10.550781 31.425781 10.5625 31.425781 10.570312 C 31.429688 10.578125 31.433594 10.585938 31.433594 10.59375 C 31.4375 10.601562 31.441406 10.613281 31.445312 10.621094 C 31.445312 10.628906 31.449219 10.632812 31.453125 10.640625 C 31.453125 10.652344 31.457031 10.660156 31.460938 10.671875 L 31.46875 10.691406 C 31.472656 10.699219 31.476562 10.710938 31.480469 10.71875 C 31.480469 10.726562 31.484375 10.734375 31.488281 10.738281 C 31.492188 10.75 31.496094 10.757812 31.5 10.769531 C 31.5 10.773438 31.503906 10.78125 31.503906 10.789062 C 31.507812 10.796875 31.515625 10.808594 31.519531 10.816406 C 31.519531 10.824219 31.523438 10.832031 31.523438 10.835938 C 31.53125 10.847656 31.535156 10.859375 31.539062 10.867188 C 31.539062 10.875 31.542969 10.878906 31.546875 10.886719 C 31.550781 10.898438 31.554688 10.910156 31.5625 10.921875 C 31.5625 10.925781 31.5625 10.929688 31.566406 10.933594 C 31.574219 10.949219 31.578125 10.964844 31.585938 10.980469 L 31.589844 10.984375 C 31.59375 11 31.601562 11.015625 31.609375 11.03125 C 31.609375 11.035156 31.613281 11.039062 31.617188 11.042969 C 31.621094 11.054688 31.625 11.066406 31.632812 11.078125 C 31.632812 11.082031 31.636719 11.089844 31.640625 11.09375 C 31.644531 11.105469 31.648438 11.113281 31.652344 11.125 C 31.65625 11.132812 31.660156 11.136719 31.664062 11.144531 C 31.667969 11.152344 31.671875 11.164062 31.675781 11.171875 C 31.679688 11.179688 31.683594 11.183594 31.6875 11.191406 C 31.691406 11.203125 31.695312 11.210938 31.703125 11.21875 C 31.707031 11.226562 31.707031 11.234375 31.710938 11.238281 C 31.71875 11.25 31.722656 11.257812 31.726562 11.265625 C 31.730469 11.273438 31.734375 11.28125 31.738281 11.285156 C 31.742188 11.296875 31.746094 11.304688 31.753906 11.3125 C 31.757812 11.320312 31.757812 11.328125 31.761719 11.335938 C 31.769531 11.34375 31.773438 11.351562 31.777344 11.359375 C 31.78125 11.367188 31.785156 11.375 31.789062 11.378906 C 31.792969 11.390625 31.800781 11.398438 31.804688 11.410156 C 31.808594 11.414062 31.8125 11.421875 31.816406 11.425781 C 31.820312 11.4375 31.828125 11.445312 31.832031 11.457031 C 31.835938 11.460938 31.839844 11.46875 31.84375 11.472656 C 31.851562 11.484375 31.855469 11.496094 31.863281 11.503906 C 31.867188 11.511719 31.867188 11.515625 31.871094 11.519531 C 31.882812 11.535156 31.890625 11.550781 31.902344 11.566406 L 31.902344 11.570312 C 31.910156 11.582031 31.921875 11.597656 31.929688 11.613281 C 31.933594 11.617188 31.9375 11.621094 31.941406 11.625 C 31.945312 11.636719 31.953125 11.648438 31.960938 11.65625 C 31.964844 11.664062 31.96875 11.667969 31.972656 11.675781 C 31.976562 11.683594 31.984375 11.691406 31.988281 11.703125 C 31.992188 11.707031 32 11.714844 32.003906 11.722656 C 32.007812 11.730469 32.015625 11.738281 32.019531 11.746094 C 32.023438 11.753906 32.03125 11.761719 32.035156 11.765625 C 32.039062 11.773438 32.046875 11.785156 32.050781 11.792969 C 32.058594 11.796875 32.0625 11.804688 32.066406 11.8125 C 32.074219 11.820312 32.078125 11.828125 32.085938 11.835938 C 32.089844 11.84375 32.09375 11.851562 32.097656 11.855469 C 32.105469 11.863281 32.109375 11.875 32.117188 11.882812 C 32.121094 11.886719 32.125 11.894531 32.132812 11.902344 C 32.136719 11.910156 32.144531 11.917969 32.152344 11.925781 C 32.15625 11.933594 32.160156 11.9375 32.164062 11.945312 C 32.171875 11.953125 32.179688 11.960938 32.183594 11.972656 C 32.191406 11.976562 32.195312 11.984375 32.199219 11.988281 C 32.207031 12 32.214844 12.007812 32.21875 12.015625 C 32.226562 12.019531 32.230469 12.027344 32.234375 12.03125 C 32.242188 12.042969 32.25 12.050781 32.257812 12.0625 C 32.261719 12.066406 32.265625 12.070312 32.269531 12.078125 C 32.28125 12.089844 32.292969 12.105469 32.304688 12.121094 C 32.804688 12.71875 33.441406 13.207031 34.191406 13.578125 C 34.214844 13.589844 34.238281 13.605469 34.265625 13.617188 C 34.273438 13.621094 34.285156 13.625 34.296875 13.628906 C 34.308594 13.636719 34.324219 13.644531 34.339844 13.652344 C 34.355469 13.65625 34.367188 13.664062 34.378906 13.667969 C 34.394531 13.675781 34.40625 13.679688 34.417969 13.6875 C 34.429688 13.691406 34.445312 13.699219 34.457031 13.703125 C 34.46875 13.710938 34.480469 13.714844 34.492188 13.71875 C 34.507812 13.726562 34.523438 13.730469 34.535156 13.738281 C 34.546875 13.742188 34.558594 13.746094 34.570312 13.753906 C 34.585938 13.757812 34.601562 13.765625 34.613281 13.769531 C 34.625 13.773438 34.636719 13.78125 34.648438 13.785156 C 34.664062 13.789062 34.679688 13.796875 34.695312 13.804688 C 34.703125 13.808594 34.714844 13.8125 34.726562 13.816406 C 34.742188 13.820312 34.757812 13.828125 34.773438 13.832031 C 34.78125 13.835938 34.792969 13.839844 34.804688 13.84375 C 34.820312 13.851562 34.835938 13.855469 34.851562 13.863281 C 34.863281 13.867188 34.871094 13.871094 34.882812 13.875 C 34.898438 13.878906 34.914062 13.886719 34.929688 13.890625 C 34.941406 13.894531 34.953125 13.898438 34.964844 13.902344 C 34.980469 13.90625 34.996094 13.914062 35.011719 13.917969 C 35.019531 13.921875 35.03125 13.925781 35.042969 13.929688 C 35.058594 13.933594 35.074219 13.941406 35.089844 13.945312 C 35.101562 13.949219 35.113281 13.953125 35.125 13.957031 C 35.140625 13.960938 35.15625 13.964844 35.171875 13.972656 C 35.183594 13.976562 35.195312 13.980469 35.207031 13.980469 C 35.222656 13.988281 35.238281 13.992188 35.253906 13.996094 C 35.265625 14 35.277344 14.003906 35.289062 14.007812 C 35.304688 14.011719 35.320312 14.015625 35.335938 14.019531 C 35.347656 14.023438 35.359375 14.027344 35.371094 14.03125 C 35.386719 14.035156 35.402344 14.039062 35.417969 14.042969 C 35.429688 14.046875 35.441406 14.050781 35.453125 14.050781 C 35.46875 14.058594 35.484375 14.0625 35.5 14.066406 C 35.511719 14.066406 35.523438 14.070312 35.535156 14.074219 C 35.550781 14.078125 35.566406 14.082031 35.582031 14.085938 C 35.59375 14.089844 35.605469 14.09375 35.617188 14.09375 C 35.632812 14.097656 35.652344 14.101562 35.667969 14.105469 C 35.679688 14.109375 35.691406 14.113281 35.703125 14.113281 C 35.71875 14.117188 35.734375 14.121094 35.75 14.125 C 35.761719 14.128906 35.773438 14.132812 35.789062 14.132812 C 35.804688 14.136719 35.820312 14.140625 35.835938 14.144531 C 35.847656 14.144531 35.859375 14.148438 35.871094 14.152344 C 35.886719 14.15625 35.902344 14.15625 35.917969 14.160156 C 35.933594 14.164062 35.945312 14.167969 35.957031 14.167969 C 35.972656 14.171875 35.988281 14.175781 36.003906 14.175781 C 36.019531 14.179688 36.03125 14.183594 36.042969 14.183594 C 36.058594 14.1875 36.074219 14.191406 36.089844 14.191406 C 36.105469 14.195312 36.117188 14.199219 36.128906 14.199219 C 36.144531 14.203125 36.160156 14.203125 36.175781 14.207031 C 36.191406 14.210938 36.203125 14.210938 36.21875 14.214844 C 36.230469 14.214844 36.246094 14.21875 36.261719 14.21875 C 36.277344 14.222656 36.289062 14.226562 36.304688 14.226562 C 36.320312 14.230469 36.335938 14.230469 36.347656 14.234375 C 36.363281 14.234375 36.378906 14.238281 36.390625 14.238281 C 36.40625 14.242188 36.421875 14.242188 36.4375 14.246094 C 36.453125 14.246094 36.464844 14.25 36.480469 14.25 C 36.496094 14.253906 36.511719 14.253906 36.523438 14.257812 C 36.539062 14.257812 36.554688 14.257812 36.570312 14.261719 C 36.582031 14.261719 36.597656 14.265625 36.613281 14.265625 C 36.628906 14.265625 36.644531 14.269531 36.65625 14.269531 C 36.671875 14.273438 36.6875 14.273438 36.703125 14.273438 C 36.71875 14.277344 36.730469 14.277344 36.746094 14.277344 C 36.761719 14.28125 36.777344 14.28125 36.792969 14.28125 C 36.804688 14.285156 36.820312 14.285156 36.832031 14.285156 C 37.050781 14.328125 37.273438 14.351562 37.496094 14.351562 C 37.894531 14.351562 38.28125 14.28125 38.652344 14.148438 C 39.007812 14.015625 39.339844 13.828125 39.632812 13.582031 C 39.894531 13.367188 40.117188 13.117188 40.300781 12.839844 " fill-opacity="1" fill-rule="nonzero"/></g><g clip-path="url(#de33b22954)"><path fill="#ffd455" d="M 43.664062 16.25 L 42.707031 17.203125 C 42.515625 17.398438 42.21875 17.429688 41.988281 17.285156 L 40.980469 16.660156 C 40.726562 16.503906 40.410156 16.484375 40.140625 16.613281 C 39.953125 16.703125 39.761719 16.78125 39.570312 16.851562 C 39.285156 16.953125 39.074219 17.1875 39.007812 17.476562 L 38.738281 18.632812 C 38.675781 18.898438 38.441406 19.082031 38.171875 19.082031 L 36.820312 19.082031 C 36.546875 19.082031 36.316406 18.898438 36.253906 18.632812 L 35.984375 17.476562 C 35.964844 17.40625 35.941406 17.335938 35.90625 17.269531 C 35.914062 17.269531 35.917969 17.269531 35.925781 17.269531 C 35.929688 17.269531 35.9375 17.269531 35.941406 17.269531 C 35.953125 17.269531 35.96875 17.269531 35.980469 17.269531 C 35.988281 17.269531 35.992188 17.265625 35.996094 17.265625 C 36.03125 17.265625 36.066406 17.261719 36.101562 17.261719 C 36.105469 17.261719 36.109375 17.257812 36.113281 17.257812 C 36.128906 17.257812 36.140625 17.257812 36.15625 17.257812 C 36.160156 17.253906 36.164062 17.253906 36.171875 17.253906 C 36.183594 17.253906 36.195312 17.25 36.210938 17.25 C 36.214844 17.25 36.21875 17.25 36.226562 17.25 C 36.238281 17.246094 36.253906 17.246094 36.265625 17.242188 C 36.269531 17.242188 36.273438 17.242188 36.277344 17.242188 C 36.296875 17.242188 36.3125 17.238281 36.332031 17.234375 L 36.335938 17.234375 C 36.351562 17.234375 36.367188 17.230469 36.386719 17.226562 C 36.390625 17.226562 36.394531 17.226562 36.398438 17.226562 C 36.414062 17.222656 36.425781 17.222656 36.4375 17.21875 C 36.445312 17.21875 36.449219 17.21875 36.453125 17.214844 C 36.46875 17.214844 36.480469 17.210938 36.492188 17.210938 C 36.496094 17.210938 36.503906 17.207031 36.507812 17.207031 C 36.523438 17.203125 36.535156 17.203125 36.550781 17.199219 C 36.554688 17.199219 36.558594 17.199219 36.5625 17.195312 C 36.578125 17.195312 36.597656 17.191406 36.613281 17.1875 C 36.617188 17.1875 36.621094 17.183594 36.625 17.183594 C 36.636719 17.179688 36.652344 17.179688 36.667969 17.175781 C 36.671875 17.171875 36.679688 17.171875 36.683594 17.171875 C 36.695312 17.167969 36.707031 17.164062 36.71875 17.164062 C 36.726562 17.160156 36.730469 17.160156 36.738281 17.160156 C 36.75 17.15625 36.761719 17.152344 36.773438 17.148438 C 36.777344 17.148438 36.785156 17.148438 36.789062 17.144531 C 36.804688 17.140625 36.820312 17.136719 36.832031 17.132812 C 36.835938 17.132812 36.839844 17.132812 36.84375 17.132812 C 36.859375 17.125 36.878906 17.121094 36.894531 17.117188 C 36.898438 17.117188 36.902344 17.113281 36.910156 17.113281 C 36.921875 17.109375 36.933594 17.105469 36.945312 17.101562 C 36.953125 17.101562 36.960938 17.097656 36.964844 17.097656 C 36.976562 17.09375 36.988281 17.089844 37 17.085938 C 37.003906 17.082031 37.011719 17.082031 37.019531 17.078125 C 37.03125 17.074219 37.042969 17.070312 37.054688 17.066406 C 37.058594 17.066406 37.066406 17.0625 37.070312 17.0625 C 37.085938 17.058594 37.101562 17.050781 37.117188 17.046875 C 37.117188 17.046875 37.121094 17.046875 37.121094 17.042969 C 37.140625 17.039062 37.15625 17.03125 37.175781 17.027344 C 37.179688 17.023438 37.183594 17.023438 37.1875 17.019531 C 37.203125 17.015625 37.214844 17.011719 37.226562 17.007812 C 37.230469 17.003906 37.238281 17.003906 37.246094 17 C 37.253906 16.996094 37.265625 16.992188 37.277344 16.988281 C 37.285156 16.984375 37.289062 16.984375 37.296875 16.980469 C 37.308594 16.976562 37.320312 16.972656 37.332031 16.964844 C 37.335938 16.964844 37.34375 16.960938 37.347656 16.960938 C 37.367188 16.953125 37.382812 16.945312 37.398438 16.9375 C 37.988281 16.6875 38.53125 16.316406 39.007812 15.828125 C 39.5 15.320312 39.90625 14.71875 40.207031 14.03125 C 40.214844 14.007812 40.226562 13.984375 40.234375 13.964844 C 40.238281 13.953125 40.242188 13.945312 40.246094 13.933594 C 40.253906 13.921875 40.257812 13.90625 40.265625 13.894531 C 40.269531 13.882812 40.273438 13.871094 40.277344 13.859375 C 40.285156 13.847656 40.289062 13.835938 40.292969 13.824219 C 40.296875 13.8125 40.300781 13.804688 40.304688 13.792969 C 40.3125 13.78125 40.316406 13.765625 40.320312 13.753906 C 40.324219 13.742188 40.328125 13.730469 40.332031 13.722656 C 40.339844 13.707031 40.34375 13.695312 40.347656 13.683594 C 40.351562 13.671875 40.355469 13.660156 40.359375 13.648438 C 40.363281 13.636719 40.367188 13.625 40.371094 13.613281 C 40.378906 13.605469 40.382812 13.59375 40.386719 13.582031 C 40.390625 13.570312 40.394531 13.554688 40.398438 13.542969 C 40.402344 13.53125 40.40625 13.523438 40.410156 13.511719 C 40.414062 13.5 40.417969 13.484375 40.421875 13.472656 C 40.425781 13.460938 40.429688 13.449219 40.433594 13.441406 C 40.4375 13.425781 40.441406 13.414062 40.445312 13.402344 C 40.449219 13.390625 40.453125 13.378906 40.457031 13.367188 C 40.460938 13.355469 40.464844 13.34375 40.46875 13.328125 C 40.472656 13.316406 40.476562 13.308594 40.480469 13.296875 C 40.484375 13.285156 40.488281 13.269531 40.492188 13.257812 C 40.496094 13.246094 40.496094 13.234375 40.5 13.222656 C 40.503906 13.210938 40.507812 13.195312 40.511719 13.183594 C 40.515625 13.171875 40.519531 13.164062 40.523438 13.152344 C 40.527344 13.136719 40.53125 13.125 40.535156 13.109375 C 40.535156 13.101562 40.539062 13.089844 40.542969 13.078125 C 40.546875 13.066406 40.550781 13.050781 40.554688 13.035156 C 40.558594 13.027344 40.558594 13.015625 40.5625 13.003906 C 40.566406 12.992188 40.570312 12.976562 40.574219 12.960938 C 40.578125 12.953125 40.578125 12.941406 40.582031 12.933594 C 40.585938 12.917969 40.589844 12.902344 40.59375 12.886719 C 40.59375 12.878906 40.597656 12.867188 40.601562 12.855469 C 40.601562 12.84375 40.605469 12.828125 40.609375 12.8125 C 40.613281 12.804688 40.613281 12.792969 40.617188 12.78125 C 40.621094 12.769531 40.625 12.753906 40.628906 12.738281 C 40.628906 12.726562 40.632812 12.71875 40.632812 12.707031 C 40.636719 12.691406 40.640625 12.675781 40.644531 12.664062 C 40.644531 12.652344 40.648438 12.640625 40.648438 12.632812 C 40.652344 12.617188 40.65625 12.601562 40.660156 12.585938 C 40.660156 12.578125 40.664062 12.566406 40.664062 12.554688 C 40.667969 12.539062 40.671875 12.527344 40.675781 12.511719 C 40.675781 12.5 40.679688 12.488281 40.679688 12.480469 C 40.683594 12.464844 40.6875 12.449219 40.6875 12.433594 C 40.691406 12.421875 40.691406 12.414062 40.695312 12.402344 C 40.695312 12.386719 40.699219 12.371094 40.703125 12.359375 C 40.703125 12.347656 40.707031 12.335938 40.707031 12.324219 C 40.710938 12.308594 40.710938 12.296875 40.714844 12.28125 C 40.714844 12.269531 40.71875 12.257812 40.71875 12.246094 C 40.722656 12.234375 40.722656 12.21875 40.726562 12.203125 C 40.726562 12.191406 40.730469 12.179688 40.730469 12.167969 C 40.734375 12.152344 40.734375 12.140625 40.738281 12.125 C 40.738281 12.113281 40.742188 12.101562 40.742188 12.089844 C 40.742188 12.074219 40.746094 12.0625 40.746094 12.046875 C 40.75 12.035156 40.75 12.023438 40.753906 12.011719 C 40.753906 11.996094 40.753906 11.984375 40.757812 11.96875 C 40.757812 11.957031 40.761719 11.945312 40.761719 11.933594 C 40.761719 11.917969 40.765625 11.90625 40.765625 11.890625 C 40.765625 11.878906 40.769531 11.867188 40.769531 11.851562 C 40.769531 11.839844 40.773438 11.824219 40.773438 11.8125 C 40.777344 11.800781 40.777344 11.785156 40.777344 11.773438 C 40.777344 11.761719 40.78125 11.746094 40.78125 11.734375 C 40.78125 11.71875 40.785156 11.707031 40.785156 11.695312 C 40.785156 11.683594 40.785156 11.667969 40.789062 11.65625 C 40.832031 11.441406 40.851562 11.21875 40.851562 10.992188 C 40.851562 10.597656 40.785156 10.207031 40.648438 9.839844 C 40.519531 9.480469 40.328125 9.152344 40.085938 8.855469 C 39.871094 8.597656 39.621094 8.371094 39.339844 8.1875 L 39.34375 8.191406 C 39.375 8.199219 39.402344 8.207031 39.433594 8.214844 C 39.441406 8.214844 39.449219 8.21875 39.457031 8.21875 C 39.480469 8.226562 39.507812 8.234375 39.53125 8.238281 C 39.539062 8.242188 39.542969 8.242188 39.546875 8.246094 C 39.578125 8.253906 39.605469 8.261719 39.636719 8.269531 C 39.644531 8.273438 39.648438 8.273438 39.65625 8.277344 C 39.683594 8.285156 39.707031 8.289062 39.730469 8.296875 C 39.738281 8.300781 39.742188 8.300781 39.75 8.304688 C 39.777344 8.3125 39.804688 8.324219 39.835938 8.332031 C 39.839844 8.335938 39.847656 8.335938 39.855469 8.339844 C 39.878906 8.347656 39.902344 8.355469 39.925781 8.363281 C 39.933594 8.367188 39.941406 8.367188 39.945312 8.371094 C 39.972656 8.378906 40.003906 8.390625 40.03125 8.398438 C 40.035156 8.402344 40.042969 8.40625 40.046875 8.40625 C 40.070312 8.414062 40.09375 8.425781 40.117188 8.433594 C 40.125 8.4375 40.132812 8.4375 40.140625 8.441406 C 40.167969 8.453125 40.195312 8.460938 40.222656 8.472656 C 40.226562 8.476562 40.234375 8.476562 40.238281 8.480469 C 40.261719 8.488281 40.285156 8.5 40.308594 8.507812 C 40.316406 8.511719 40.324219 8.515625 40.328125 8.515625 C 40.355469 8.527344 40.382812 8.539062 40.410156 8.550781 C 40.414062 8.554688 40.417969 8.554688 40.421875 8.558594 C 40.445312 8.566406 40.46875 8.578125 40.496094 8.589844 C 40.5 8.59375 40.507812 8.597656 40.515625 8.597656 C 40.542969 8.613281 40.570312 8.625 40.597656 8.636719 L 40.601562 8.640625 C 40.625 8.652344 40.652344 8.664062 40.675781 8.675781 C 40.683594 8.679688 40.691406 8.683594 40.699219 8.6875 C 40.722656 8.699219 40.75 8.710938 40.773438 8.726562 L 40.777344 8.726562 C 40.804688 8.742188 40.828125 8.753906 40.855469 8.769531 C 40.863281 8.773438 40.867188 8.777344 40.875 8.78125 C 40.898438 8.792969 40.921875 8.804688 40.945312 8.816406 C 40.949219 8.820312 40.953125 8.820312 40.953125 8.824219 C 40.980469 8.835938 41.003906 8.851562 41.03125 8.867188 C 41.035156 8.871094 41.042969 8.875 41.050781 8.878906 C 41.070312 8.890625 41.09375 8.902344 41.113281 8.914062 C 41.117188 8.917969 41.121094 8.921875 41.125 8.921875 C 41.152344 8.9375 41.175781 8.953125 41.199219 8.96875 C 41.207031 8.972656 41.210938 8.976562 41.21875 8.980469 C 41.238281 8.992188 41.257812 9.007812 41.28125 9.019531 C 41.285156 9.023438 41.289062 9.027344 41.292969 9.027344 C 41.316406 9.042969 41.34375 9.058594 41.367188 9.078125 C 41.371094 9.082031 41.375 9.082031 41.382812 9.085938 C 41.402344 9.101562 41.421875 9.113281 41.441406 9.128906 C 41.445312 9.132812 41.453125 9.136719 41.457031 9.140625 C 41.480469 9.15625 41.503906 9.171875 41.527344 9.1875 C 41.53125 9.191406 41.535156 9.195312 41.542969 9.199219 C 41.5625 9.214844 41.578125 9.230469 41.597656 9.242188 C 41.605469 9.246094 41.609375 9.25 41.617188 9.253906 C 41.636719 9.273438 41.660156 9.289062 41.683594 9.308594 C 41.6875 9.308594 41.691406 9.3125 41.695312 9.316406 C 41.714844 9.332031 41.734375 9.347656 41.753906 9.363281 C 41.757812 9.367188 41.761719 9.371094 41.769531 9.375 C 41.789062 9.394531 41.8125 9.410156 41.835938 9.429688 C 41.835938 9.433594 41.839844 9.433594 41.84375 9.4375 C 41.863281 9.453125 41.882812 9.46875 41.902344 9.488281 C 41.90625 9.492188 41.910156 9.496094 41.917969 9.5 C 41.9375 9.519531 41.960938 9.539062 41.980469 9.558594 C 41.980469 9.558594 41.984375 9.5625 41.984375 9.5625 C 42.003906 9.582031 42.023438 9.597656 42.042969 9.617188 C 42.050781 9.621094 42.054688 9.625 42.058594 9.632812 C 42.082031 9.652344 42.101562 9.671875 42.121094 9.691406 C 42.136719 9.703125 42.148438 9.71875 42.164062 9.734375 C 42.167969 9.738281 42.171875 9.742188 42.179688 9.746094 C 42.1875 9.757812 42.195312 9.765625 42.207031 9.773438 C 42.210938 9.78125 42.214844 9.785156 42.222656 9.792969 C 42.230469 9.800781 42.238281 9.808594 42.246094 9.816406 C 42.253906 9.824219 42.257812 9.828125 42.265625 9.835938 C 42.273438 9.84375 42.28125 9.851562 42.289062 9.859375 C 42.292969 9.867188 42.300781 9.875 42.304688 9.878906 C 42.3125 9.886719 42.320312 9.894531 42.328125 9.902344 C 42.332031 9.910156 42.339844 9.917969 42.34375 9.921875 C 42.351562 9.933594 42.359375 9.941406 42.367188 9.949219 C 42.371094 9.953125 42.378906 9.960938 42.382812 9.96875 C 42.390625 9.976562 42.398438 9.984375 42.40625 9.992188 C 42.410156 10 42.417969 10.003906 42.421875 10.011719 C 42.429688 10.019531 42.4375 10.027344 42.445312 10.035156 C 42.449219 10.042969 42.453125 10.050781 42.460938 10.058594 C 42.46875 10.066406 42.472656 10.074219 42.480469 10.082031 C 42.488281 10.089844 42.492188 10.09375 42.496094 10.101562 C 42.503906 10.109375 42.511719 10.117188 42.519531 10.125 C 42.523438 10.132812 42.527344 10.140625 42.535156 10.148438 C 42.539062 10.15625 42.546875 10.164062 42.554688 10.171875 C 42.558594 10.179688 42.566406 10.183594 42.570312 10.191406 C 42.578125 10.199219 42.582031 10.210938 42.589844 10.21875 C 42.59375 10.222656 42.601562 10.230469 42.605469 10.238281 C 42.613281 10.246094 42.617188 10.253906 42.625 10.261719 C 42.628906 10.269531 42.632812 10.277344 42.640625 10.285156 C 42.644531 10.292969 42.652344 10.300781 42.660156 10.308594 C 42.664062 10.316406 42.667969 10.324219 42.671875 10.332031 C 42.679688 10.339844 42.6875 10.347656 42.691406 10.355469 C 42.695312 10.363281 42.703125 10.371094 42.707031 10.378906 C 42.714844 10.386719 42.71875 10.394531 42.726562 10.402344 C 42.730469 10.410156 42.734375 10.417969 42.738281 10.425781 C 42.746094 10.433594 42.75 10.441406 42.757812 10.449219 C 42.761719 10.457031 42.765625 10.464844 42.769531 10.472656 C 42.777344 10.480469 42.78125 10.488281 42.789062 10.5 C 42.792969 10.503906 42.796875 10.511719 42.800781 10.519531 C 42.808594 10.527344 42.8125 10.535156 42.820312 10.546875 C 42.824219 10.554688 42.828125 10.558594 42.832031 10.566406 C 42.839844 10.574219 42.84375 10.585938 42.851562 10.59375 C 42.855469 10.601562 42.859375 10.609375 42.863281 10.613281 C 42.867188 10.625 42.875 10.632812 42.878906 10.640625 C 42.882812 10.648438 42.886719 10.65625 42.890625 10.664062 C 42.898438 10.671875 42.902344 10.679688 42.910156 10.691406 C 42.914062 10.699219 42.917969 10.703125 42.921875 10.710938 C 42.925781 10.722656 42.929688 10.730469 42.9375 10.738281 C 42.941406 10.746094 42.945312 10.753906 42.949219 10.761719 C 42.953125 10.769531 42.960938 10.777344 42.964844 10.789062 C 42.96875 10.796875 42.972656 10.800781 42.976562 10.808594 C 42.980469 10.820312 42.988281 10.828125 42.992188 10.835938 C 42.996094 10.84375 43 10.851562 43.003906 10.859375 C 43.007812 10.867188 43.011719 10.878906 43.019531 10.886719 C 43.019531 10.894531 43.023438 10.902344 43.027344 10.90625 C 43.035156 10.917969 43.039062 10.925781 43.042969 10.9375 C 43.046875 10.945312 43.050781 10.949219 43.054688 10.957031 C 43.058594 10.96875 43.0625 10.976562 43.066406 10.988281 C 43.070312 10.992188 43.074219 11 43.078125 11.007812 C 43.082031 11.015625 43.085938 11.027344 43.09375 11.035156 C 43.09375 11.042969 43.097656 11.050781 43.101562 11.058594 C 43.105469 11.066406 43.109375 11.078125 43.117188 11.085938 C 43.117188 11.09375 43.121094 11.101562 43.125 11.109375 C 43.128906 11.117188 43.132812 11.128906 43.136719 11.136719 C 43.140625 11.144531 43.144531 11.152344 43.148438 11.15625 C 43.152344 11.167969 43.15625 11.175781 43.160156 11.1875 C 43.164062 11.195312 43.167969 11.203125 43.167969 11.207031 C 43.171875 11.21875 43.175781 11.226562 43.179688 11.238281 C 43.183594 11.246094 43.1875 11.253906 43.191406 11.257812 C 43.195312 11.269531 43.199219 11.277344 43.203125 11.289062 C 43.203125 11.296875 43.207031 11.304688 43.210938 11.308594 C 43.214844 11.320312 43.21875 11.332031 43.222656 11.339844 C 43.226562 11.347656 43.226562 11.355469 43.230469 11.359375 C 43.234375 11.371094 43.238281 11.382812 43.242188 11.390625 C 43.242188 11.398438 43.246094 11.40625 43.25 11.410156 C 43.253906 11.421875 43.257812 11.433594 43.261719 11.441406 C 43.261719 11.449219 43.265625 11.457031 43.265625 11.464844 C 43.269531 11.472656 43.273438 11.484375 43.277344 11.496094 C 43.28125 11.5 43.28125 11.507812 43.285156 11.515625 C 43.289062 11.523438 43.292969 11.535156 43.292969 11.546875 C 43.296875 11.554688 43.300781 11.558594 43.300781 11.566406 C 43.304688 11.578125 43.308594 11.585938 43.3125 11.597656 C 43.3125 11.605469 43.316406 11.613281 43.316406 11.617188 C 43.320312 11.628906 43.324219 11.640625 43.328125 11.648438 C 43.328125 11.65625 43.332031 11.664062 43.332031 11.667969 C 43.335938 11.679688 43.339844 11.691406 43.339844 11.703125 C 43.34375 11.707031 43.34375 11.714844 43.347656 11.722656 C 43.351562 11.734375 43.351562 11.742188 43.355469 11.753906 C 43.355469 11.761719 43.359375 11.765625 43.359375 11.773438 C 43.363281 11.785156 43.367188 11.796875 43.367188 11.804688 C 43.371094 11.8125 43.371094 11.820312 43.375 11.824219 C 43.375 11.835938 43.378906 11.847656 43.382812 11.859375 C 43.382812 11.863281 43.382812 11.871094 43.386719 11.878906 C 43.386719 11.890625 43.390625 11.898438 43.394531 11.910156 C 43.394531 11.917969 43.394531 11.925781 43.398438 11.929688 C 43.398438 11.941406 43.402344 11.953125 43.40625 11.964844 C 43.40625 11.96875 43.40625 11.976562 43.410156 11.984375 C 43.410156 11.992188 43.414062 12.003906 43.414062 12.015625 C 43.417969 12.023438 43.417969 12.027344 43.417969 12.035156 C 43.421875 12.046875 43.421875 12.058594 43.425781 12.070312 C 43.425781 12.074219 43.425781 12.082031 43.429688 12.085938 C 43.429688 12.097656 43.433594 12.109375 43.433594 12.121094 C 43.433594 12.128906 43.433594 12.132812 43.4375 12.140625 C 43.4375 12.152344 43.441406 12.164062 43.441406 12.175781 C 43.441406 12.179688 43.445312 12.1875 43.445312 12.191406 C 43.445312 12.203125 43.449219 12.214844 43.449219 12.226562 C 43.449219 12.234375 43.449219 12.238281 43.453125 12.246094 C 43.453125 12.257812 43.453125 12.269531 43.457031 12.28125 C 43.457031 12.285156 43.457031 12.292969 43.457031 12.296875 C 43.457031 12.308594 43.460938 12.320312 43.460938 12.332031 C 43.460938 12.339844 43.460938 12.34375 43.464844 12.351562 C 43.464844 12.363281 43.464844 12.375 43.464844 12.386719 C 43.46875 12.390625 43.46875 12.398438 43.46875 12.402344 C 43.46875 12.414062 43.46875 12.425781 43.46875 12.441406 C 43.472656 12.445312 43.472656 12.449219 43.472656 12.457031 C 43.472656 12.46875 43.472656 12.480469 43.472656 12.492188 C 43.472656 12.5 43.476562 12.503906 43.476562 12.507812 C 43.476562 12.519531 43.476562 12.535156 43.476562 12.546875 C 43.476562 12.550781 43.476562 12.554688 43.476562 12.5625 C 43.476562 12.574219 43.480469 12.589844 43.480469 12.601562 C 43.480469 12.605469 43.480469 12.609375 43.480469 12.613281 C 43.480469 12.628906 43.480469 12.644531 43.480469 12.65625 C 43.480469 12.660156 43.480469 12.664062 43.480469 12.667969 C 43.480469 12.683594 43.480469 12.699219 43.480469 12.71875 C 43.480469 12.753906 43.480469 12.789062 43.476562 12.824219 C 43.40625 12.90625 43.347656 13.003906 43.308594 13.109375 C 43.242188 13.304688 43.160156 13.496094 43.074219 13.679688 C 42.945312 13.953125 42.960938 14.269531 43.121094 14.523438 L 43.746094 15.527344 C 43.890625 15.761719 43.855469 16.058594 43.664062 16.25 " fill-opacity="1" fill-rule="nonzero"/></g></svg>